<svg xmlns="http://www.w3.org/2000/svg" xmlns:xlink="http://www.w3.org/1999/xlink" width="900" zoomAndPan="magnify" viewBox="0 0 675 675.000002" height="900" preserveAspectRatio="xMidYMid meet" version="1.0"><defs><filter x="0%" y="0%" width="100%" height="100%" id="id1"><feColorMatrix values="0 0 0 0 1 0 0 0 0 1 0 0 0 0 1 0 0 0 1 0" color-interpolation-filters="sRGB"/></filter><mask id="id2"><g filter="url(#id1)"><rect x="-67.5" width="810" fill="#000000" y="-67.5" height="810.000002" fill-opacity="0.3569"/></g></mask><clipPath id="id3"><path d="M 2 0.355469 L 462 0.355469 L 462 462 L 2 462 Z M 2 0.355469 " clip-rule="nonzero"/></clipPath><clipPath id="id4"><rect x="0" width="463" y="0" height="463"/></clipPath><clipPath id="id5"><path d="M 152.71875 136.90625 L 634.257812 136.90625 L 634.257812 161 L 152.71875 161 Z M 152.71875 136.90625 " clip-rule="nonzero"/></clipPath><clipPath id="id6"><path d="M 152.71875 163 L 634.257812 163 L 634.257812 187 L 152.71875 187 Z M 152.71875 163 " clip-rule="nonzero"/></clipPath><clipPath id="id7"><path d="M 152.71875 189 L 634.257812 189 L 634.257812 214 L 152.71875 214 Z M 152.71875 189 " clip-rule="nonzero"/></clipPath><clipPath id="id8"><path d="M 152.71875 215 L 634.257812 215 L 634.257812 240 L 152.71875 240 Z M 152.71875 215 " clip-rule="nonzero"/></clipPath><clipPath id="id9"><path d="M 152.71875 241 L 634.257812 241 L 634.257812 266 L 152.71875 266 Z M 152.71875 241 " clip-rule="nonzero"/></clipPath><clipPath id="id10"><path d="M 152.71875 268 L 634.257812 268 L 634.257812 292 L 152.71875 292 Z M 152.71875 268 " clip-rule="nonzero"/></clipPath><clipPath id="id11"><path d="M 152.71875 294 L 634.257812 294 L 634.257812 319 L 152.71875 319 Z M 152.71875 294 " clip-rule="nonzero"/></clipPath><clipPath id="id12"><path d="M 152.71875 320 L 634.257812 320 L 634.257812 345 L 152.71875 345 Z M 152.71875 320 " clip-rule="nonzero"/></clipPath><clipPath id="id13"><path d="M 152.71875 346 L 634.257812 346 L 634.257812 371 L 152.71875 371 Z M 152.71875 346 " clip-rule="nonzero"/></clipPath><clipPath id="id14"><path d="M 152.71875 372 L 634.257812 372 L 634.257812 397 L 152.71875 397 Z M 152.71875 372 " clip-rule="nonzero"/></clipPath><clipPath id="id15"><path d="M 152.71875 399 L 634.257812 399 L 634.257812 423 L 152.71875 423 Z M 152.71875 399 " clip-rule="nonzero"/></clipPath><clipPath id="id16"><path d="M 152.71875 425 L 634.257812 425 L 634.257812 450 L 152.71875 450 Z M 152.71875 425 " clip-rule="nonzero"/></clipPath><clipPath id="id17"><path d="M 152.71875 451 L 634.257812 451 L 634.257812 476 L 152.71875 476 Z M 152.71875 451 " clip-rule="nonzero"/></clipPath><clipPath id="id18"><path d="M 152.71875 477 L 634.257812 477 L 634.257812 502 L 152.71875 502 Z M 152.71875 477 " clip-rule="nonzero"/></clipPath><clipPath id="id19"><path d="M 152.71875 503 L 634.257812 503 L 634.257812 528 L 152.71875 528 Z M 152.71875 503 " clip-rule="nonzero"/></clipPath><clipPath id="id20"><path d="M 152.71875 530 L 634.257812 530 L 634.257812 555 L 152.71875 555 Z M 152.71875 530 " clip-rule="nonzero"/></clipPath><clipPath id="id21"><path d="M 152.71875 556 L 634.257812 556 L 634.257812 581 L 152.71875 581 Z M 152.71875 556 " clip-rule="nonzero"/></clipPath><clipPath id="id22"><path d="M 152.71875 582 L 634.257812 582 L 634.257812 606.460938 L 152.71875 606.460938 Z M 152.71875 582 " clip-rule="nonzero"/></clipPath><clipPath id="id23"><path d="M 19.125 67.398438 L 655.683594 67.398438 L 655.683594 640.300781 L 19.125 640.300781 Z M 19.125 67.398438 " clip-rule="nonzero"/></clipPath></defs><g mask="url(#id2)"><g transform="matrix(1, 0, 0, 1, 149, 165)"><g clip-path="url(#id4)"><g clip-path="url(#id3)"><path fill="#ffde59" d="M 62.867188 225.101562 C -17.636719 186.101562 -18.046875 71.945312 61.929688 31.902344 C 161.699219 -18.015625 299.828125 -28.128906 437.378906 153.066406 C 437.378906 153.066406 525.515625 270.851562 363.855469 430.398438 C 294.949219 498.414062 178.289062 448.550781 180.367188 351.765625 C 181.261719 309.71875 157.566406 270.980469 119.6875 252.640625 Z M 62.867188 225.101562 " fill-opacity="1" fill-rule="nonzero"/></g></g></g></g><g clip-path="url(#id5)"><path fill="#ffffff" d="M 585.460938 160.71875 L 537.472656 140.550781 L 489.480469 160.71875 L 441.488281 140.550781 L 393.496094 160.71875 L 345.503906 140.550781 L 297.511719 160.71875 L 249.519531 140.550781 L 201.535156 160.71875 L 152.890625 140.28125 L 154.195312 137.183594 L 201.535156 157.078125 L 249.519531 136.90625 L 297.511719 157.078125 L 345.503906 136.90625 L 393.496094 157.078125 L 441.488281 136.90625 L 489.480469 157.078125 L 537.472656 136.90625 L 585.460938 157.078125 L 632.808594 137.183594 L 634.113281 140.28125 Z M 585.460938 160.71875 " fill-opacity="1" fill-rule="nonzero"/></g><g clip-path="url(#id6)"><path fill="#ffffff" d="M 585.460938 186.941406 L 537.472656 166.769531 L 489.480469 186.941406 L 441.488281 166.769531 L 393.496094 186.941406 L 345.503906 166.769531 L 297.511719 186.941406 L 249.519531 166.769531 L 201.535156 186.941406 L 152.890625 166.503906 L 154.195312 163.402344 L 201.535156 183.296875 L 249.519531 163.128906 L 297.511719 183.296875 L 345.503906 163.128906 L 393.496094 183.296875 L 441.488281 163.128906 L 489.480469 183.296875 L 537.472656 163.128906 L 585.460938 183.296875 L 632.808594 163.402344 L 634.113281 166.503906 Z M 585.460938 186.941406 " fill-opacity="1" fill-rule="nonzero"/></g><g clip-path="url(#id7)"><path fill="#ffffff" d="M 585.460938 213.160156 L 537.472656 192.992188 L 489.480469 213.160156 L 441.488281 192.992188 L 393.496094 213.160156 L 345.503906 192.992188 L 297.511719 213.160156 L 249.519531 192.992188 L 201.535156 213.160156 L 152.890625 192.722656 L 154.195312 189.625 L 201.535156 209.519531 L 249.519531 189.347656 L 297.511719 209.519531 L 345.503906 189.347656 L 393.496094 209.519531 L 441.488281 189.347656 L 489.480469 209.519531 L 537.472656 189.347656 L 585.460938 209.519531 L 632.808594 189.625 L 634.113281 192.722656 Z M 585.460938 213.160156 " fill-opacity="1" fill-rule="nonzero"/></g><g clip-path="url(#id8)"><path fill="#ffffff" d="M 585.460938 239.382812 L 537.472656 219.214844 L 489.480469 239.382812 L 441.488281 219.214844 L 393.496094 239.382812 L 345.503906 219.214844 L 297.511719 239.382812 L 249.519531 219.214844 L 201.535156 239.382812 L 152.890625 218.945312 L 154.195312 215.84375 L 201.535156 235.738281 L 249.519531 215.570312 L 297.511719 235.738281 L 345.503906 215.570312 L 393.496094 235.738281 L 441.488281 215.570312 L 489.480469 235.738281 L 537.472656 215.570312 L 585.460938 235.738281 L 632.808594 215.84375 L 634.113281 218.945312 Z M 585.460938 239.382812 " fill-opacity="1" fill-rule="nonzero"/></g><g clip-path="url(#id9)"><path fill="#ffffff" d="M 585.460938 265.605469 L 537.472656 245.433594 L 489.480469 265.605469 L 441.488281 245.433594 L 393.496094 265.605469 L 345.503906 245.433594 L 297.511719 265.605469 L 249.519531 245.433594 L 201.535156 265.605469 L 152.890625 245.164062 L 154.195312 242.066406 L 201.535156 261.960938 L 249.519531 241.789062 L 297.511719 261.960938 L 345.503906 241.789062 L 393.496094 261.960938 L 441.488281 241.789062 L 489.480469 261.960938 L 537.472656 241.789062 L 585.460938 261.960938 L 632.808594 242.066406 L 634.113281 245.164062 Z M 585.460938 265.605469 " fill-opacity="1" fill-rule="nonzero"/></g><g clip-path="url(#id10)"><path fill="#ffffff" d="M 585.460938 291.824219 L 537.472656 271.65625 L 489.480469 291.824219 L 441.488281 271.65625 L 393.496094 291.824219 L 345.503906 271.65625 L 297.511719 291.824219 L 249.519531 271.65625 L 201.535156 291.824219 L 152.890625 271.386719 L 154.195312 268.285156 L 201.535156 288.179688 L 249.519531 268.011719 L 297.511719 288.179688 L 345.503906 268.011719 L 393.496094 288.179688 L 441.488281 268.011719 L 489.480469 288.179688 L 537.472656 268.011719 L 585.460938 288.179688 L 632.808594 268.285156 L 634.113281 271.386719 Z M 585.460938 291.824219 " fill-opacity="1" fill-rule="nonzero"/></g><g clip-path="url(#id11)"><path fill="#ffffff" d="M 585.460938 318.046875 L 537.472656 297.875 L 489.480469 318.046875 L 441.488281 297.875 L 393.496094 318.046875 L 345.503906 297.875 L 297.511719 318.046875 L 249.519531 297.875 L 201.535156 318.046875 L 152.890625 297.605469 L 154.195312 294.507812 L 201.535156 314.402344 L 249.519531 294.230469 L 297.511719 314.402344 L 345.503906 294.230469 L 393.496094 314.402344 L 441.488281 294.230469 L 489.480469 314.402344 L 537.472656 294.230469 L 585.460938 314.402344 L 632.808594 294.507812 L 634.113281 297.605469 Z M 585.460938 318.046875 " fill-opacity="1" fill-rule="nonzero"/></g><g clip-path="url(#id12)"><path fill="#ffffff" d="M 585.460938 344.265625 L 537.472656 324.097656 L 489.480469 344.265625 L 441.488281 324.097656 L 393.496094 344.265625 L 345.503906 324.097656 L 297.511719 344.265625 L 249.519531 324.097656 L 201.535156 344.265625 L 152.890625 323.828125 L 154.195312 320.726562 L 201.535156 340.621094 L 249.519531 320.453125 L 297.511719 340.621094 L 345.503906 320.453125 L 393.496094 340.621094 L 441.488281 320.453125 L 489.480469 340.621094 L 537.472656 320.453125 L 585.460938 340.621094 L 632.808594 320.726562 L 634.113281 323.828125 Z M 585.460938 344.265625 " fill-opacity="1" fill-rule="nonzero"/></g><g clip-path="url(#id13)"><path fill="#ffffff" d="M 585.460938 370.488281 L 537.472656 350.316406 L 489.480469 370.488281 L 441.488281 350.316406 L 393.496094 370.488281 L 345.503906 350.316406 L 297.511719 370.488281 L 249.519531 350.316406 L 201.535156 370.488281 L 152.890625 350.046875 L 154.195312 346.949219 L 201.535156 366.84375 L 249.519531 346.671875 L 297.511719 366.84375 L 345.503906 346.671875 L 393.496094 366.84375 L 441.488281 346.671875 L 489.480469 366.84375 L 537.472656 346.671875 L 585.460938 366.84375 L 632.808594 346.949219 L 634.113281 350.046875 Z M 585.460938 370.488281 " fill-opacity="1" fill-rule="nonzero"/></g><g clip-path="url(#id14)"><path fill="#ffffff" d="M 585.460938 396.707031 L 537.472656 376.539062 L 489.480469 396.707031 L 441.488281 376.539062 L 393.496094 396.707031 L 345.503906 376.539062 L 297.511719 396.707031 L 249.519531 376.539062 L 201.535156 396.707031 L 152.890625 376.269531 L 154.195312 373.167969 L 201.535156 393.0625 L 249.519531 372.894531 L 297.511719 393.0625 L 345.503906 372.894531 L 393.496094 393.0625 L 441.488281 372.894531 L 489.480469 393.0625 L 537.472656 372.894531 L 585.460938 393.0625 L 632.808594 373.167969 L 634.113281 376.269531 Z M 585.460938 396.707031 " fill-opacity="1" fill-rule="nonzero"/></g><g clip-path="url(#id15)"><path fill="#ffffff" d="M 585.460938 422.929688 L 537.472656 402.757812 L 489.480469 422.929688 L 441.488281 402.757812 L 393.496094 422.929688 L 345.503906 402.757812 L 297.511719 422.929688 L 249.519531 402.757812 L 201.535156 422.929688 L 152.890625 402.488281 L 154.195312 399.390625 L 201.535156 419.285156 L 249.519531 399.113281 L 297.511719 419.285156 L 345.503906 399.113281 L 393.496094 419.285156 L 441.488281 399.113281 L 489.480469 419.285156 L 537.472656 399.113281 L 585.460938 419.285156 L 632.808594 399.390625 L 634.113281 402.488281 Z M 585.460938 422.929688 " fill-opacity="1" fill-rule="nonzero"/></g><g clip-path="url(#id16)"><path fill="#ffffff" d="M 585.460938 449.148438 L 537.472656 428.980469 L 489.480469 449.148438 L 441.488281 428.980469 L 393.496094 449.148438 L 345.503906 428.980469 L 297.511719 449.148438 L 249.519531 428.980469 L 201.535156 449.148438 L 152.890625 428.710938 L 154.195312 425.609375 L 201.535156 445.503906 L 249.519531 425.335938 L 297.511719 445.503906 L 345.503906 425.335938 L 393.496094 445.503906 L 441.488281 425.335938 L 489.480469 445.503906 L 537.472656 425.335938 L 585.460938 445.503906 L 632.808594 425.609375 L 634.113281 428.710938 Z M 585.460938 449.148438 " fill-opacity="1" fill-rule="nonzero"/></g><g clip-path="url(#id17)"><path fill="#ffffff" d="M 585.460938 475.371094 L 537.472656 455.199219 L 489.480469 475.371094 L 441.488281 455.199219 L 393.496094 475.371094 L 345.503906 455.199219 L 297.511719 475.371094 L 249.519531 455.199219 L 201.535156 475.371094 L 152.890625 454.929688 L 154.195312 451.832031 L 201.535156 471.726562 L 249.519531 451.554688 L 297.511719 471.726562 L 345.503906 451.554688 L 393.496094 471.726562 L 441.488281 451.554688 L 489.480469 471.726562 L 537.472656 451.554688 L 585.460938 471.726562 L 632.808594 451.832031 L 634.113281 454.929688 Z M 585.460938 475.371094 " fill-opacity="1" fill-rule="nonzero"/></g><g clip-path="url(#id18)"><path fill="#ffffff" d="M 585.460938 501.589844 L 537.472656 481.421875 L 489.480469 501.589844 L 441.488281 481.421875 L 393.496094 501.589844 L 345.503906 481.421875 L 297.511719 501.589844 L 249.519531 481.421875 L 201.535156 501.589844 L 152.890625 481.152344 L 154.195312 478.054688 L 201.535156 497.945312 L 249.519531 477.777344 L 297.511719 497.945312 L 345.503906 477.777344 L 393.496094 497.945312 L 441.488281 477.777344 L 489.480469 497.945312 L 537.472656 477.777344 L 585.460938 497.945312 L 632.808594 478.054688 L 634.113281 481.152344 Z M 585.460938 501.589844 " fill-opacity="1" fill-rule="nonzero"/></g><g clip-path="url(#id19)"><path fill="#ffffff" d="M 585.460938 527.8125 L 537.472656 507.640625 L 489.480469 527.8125 L 441.488281 507.640625 L 393.496094 527.8125 L 345.503906 507.640625 L 297.511719 527.8125 L 249.519531 507.640625 L 201.535156 527.8125 L 152.890625 507.375 L 154.195312 504.273438 L 201.535156 524.167969 L 249.519531 503.996094 L 297.511719 524.167969 L 345.503906 503.996094 L 393.496094 524.167969 L 441.488281 503.996094 L 489.480469 524.167969 L 537.472656 503.996094 L 585.460938 524.167969 L 632.808594 504.273438 L 634.113281 507.375 Z M 585.460938 527.8125 " fill-opacity="1" fill-rule="nonzero"/></g><g clip-path="url(#id20)"><path fill="#ffffff" d="M 585.460938 554.03125 L 537.472656 533.863281 L 489.480469 554.03125 L 441.488281 533.863281 L 393.496094 554.03125 L 345.503906 533.863281 L 297.511719 554.03125 L 249.519531 533.863281 L 201.535156 554.03125 L 152.890625 533.59375 L 154.195312 530.496094 L 201.535156 550.390625 L 249.519531 530.21875 L 297.511719 550.390625 L 345.503906 530.21875 L 393.496094 550.390625 L 441.488281 530.21875 L 489.480469 550.390625 L 537.472656 530.21875 L 585.460938 550.390625 L 632.808594 530.496094 L 634.113281 533.59375 Z M 585.460938 554.03125 " fill-opacity="1" fill-rule="nonzero"/></g><g clip-path="url(#id21)"><path fill="#ffffff" d="M 585.460938 580.253906 L 537.472656 560.082031 L 489.480469 580.253906 L 441.488281 560.082031 L 393.496094 580.253906 L 345.503906 560.082031 L 297.511719 580.253906 L 249.519531 560.082031 L 201.535156 580.253906 L 152.890625 559.816406 L 154.195312 556.714844 L 201.535156 576.609375 L 249.519531 556.441406 L 297.511719 576.609375 L 345.503906 556.441406 L 393.496094 576.609375 L 441.488281 556.441406 L 489.480469 576.609375 L 537.472656 556.441406 L 585.460938 576.609375 L 632.808594 556.714844 L 634.113281 559.816406 Z M 585.460938 580.253906 " fill-opacity="1" fill-rule="nonzero"/></g><g clip-path="url(#id22)"><path fill="#ffffff" d="M 585.460938 606.472656 L 537.472656 586.304688 L 489.480469 606.472656 L 441.488281 586.304688 L 393.496094 606.472656 L 345.503906 586.304688 L 297.511719 606.472656 L 249.519531 586.304688 L 201.535156 606.472656 L 152.890625 586.035156 L 154.195312 582.9375 L 201.535156 602.832031 L 249.519531 582.660156 L 297.511719 602.832031 L 345.503906 582.660156 L 393.496094 602.832031 L 441.488281 582.660156 L 489.480469 602.832031 L 537.472656 582.660156 L 585.460938 602.832031 L 632.808594 582.9375 L 634.113281 586.035156 Z M 585.460938 606.472656 " fill-opacity="1" fill-rule="nonzero"/></g><g clip-path="url(#id23)"><path fill="#646464" d="M 576.113281 67.398438 L 98.699219 67.398438 C 97.398438 67.402344 96.097656 67.4375 94.796875 67.503906 C 93.496094 67.570312 92.199219 67.667969 90.902344 67.796875 C 89.609375 67.925781 88.316406 68.085938 87.03125 68.28125 C 85.742188 68.472656 84.460938 68.699219 83.183594 68.953125 C 81.910156 69.207031 80.640625 69.496094 79.378906 69.8125 C 78.117188 70.132812 76.863281 70.480469 75.617188 70.859375 C 74.371094 71.238281 73.136719 71.648438 71.910156 72.085938 C 70.6875 72.527344 69.472656 72.996094 68.269531 73.496094 C 67.070312 73.996094 65.878906 74.523438 64.703125 75.082031 C 63.527344 75.636719 62.367188 76.222656 61.21875 76.839844 C 60.070312 77.453125 58.9375 78.09375 57.824219 78.765625 C 56.707031 79.433594 55.609375 80.128906 54.527344 80.855469 C 53.445312 81.578125 52.382812 82.328125 51.335938 83.101562 C 50.289062 83.878906 49.265625 84.679688 48.257812 85.503906 C 47.253906 86.332031 46.269531 87.183594 45.304688 88.054688 C 44.339844 88.929688 43.398438 89.828125 42.476562 90.746094 C 41.554688 91.667969 40.660156 92.609375 39.785156 93.574219 C 38.910156 94.539062 38.0625 95.523438 37.234375 96.53125 C 36.410156 97.535156 35.609375 98.5625 34.832031 99.605469 C 34.058594 100.652344 33.308594 101.714844 32.582031 102.796875 C 31.859375 103.878906 31.164062 104.976562 30.492188 106.09375 C 29.824219 107.210938 29.179688 108.34375 28.566406 109.488281 C 27.953125 110.636719 27.367188 111.796875 26.808594 112.976562 C 26.253906 114.152344 25.722656 115.339844 25.226562 116.542969 C 24.726562 117.746094 24.257812 118.957031 23.816406 120.183594 C 23.375 121.40625 22.96875 122.644531 22.589844 123.886719 C 22.207031 125.132812 21.859375 126.386719 21.542969 127.648438 C 21.222656 128.910156 20.9375 130.179688 20.683594 131.457031 C 20.425781 132.734375 20.203125 134.015625 20.007812 135.300781 C 19.816406 136.589844 19.65625 137.878906 19.527344 139.175781 C 19.394531 140.46875 19.296875 141.769531 19.230469 143.066406 C 19.164062 144.367188 19.132812 145.667969 19.128906 146.96875 L 19.128906 560.730469 C 19.132812 562.035156 19.164062 563.335938 19.230469 564.632812 C 19.296875 565.933594 19.394531 567.230469 19.527344 568.527344 C 19.65625 569.820312 19.816406 571.113281 20.007812 572.398438 C 20.203125 573.6875 20.425781 574.96875 20.683594 576.246094 C 20.9375 577.519531 21.222656 578.789062 21.542969 580.050781 C 21.859375 581.316406 22.207031 582.570312 22.589844 583.8125 C 22.96875 585.058594 23.375 586.292969 23.816406 587.519531 C 24.257812 588.742188 24.726562 589.957031 25.226562 591.160156 C 25.722656 592.363281 26.253906 593.550781 26.808594 594.726562 C 27.367188 595.902344 27.953125 597.066406 28.566406 598.210938 C 29.179688 599.359375 29.824219 600.492188 30.492188 601.605469 C 31.164062 602.722656 31.859375 603.824219 32.582031 604.902344 C 33.308594 605.984375 34.058594 607.050781 34.832031 608.09375 C 35.609375 609.140625 36.410156 610.164062 37.234375 611.171875 C 38.0625 612.175781 38.910156 613.164062 39.785156 614.125 C 40.660156 615.089844 41.554688 616.035156 42.476562 616.953125 C 43.398438 617.875 44.339844 618.769531 45.304688 619.644531 C 46.269531 620.519531 47.253906 621.371094 48.257812 622.195312 C 49.265625 623.023438 50.289062 623.824219 51.335938 624.597656 C 52.382812 625.375 53.445312 626.125 54.527344 626.847656 C 55.609375 627.570312 56.707031 628.265625 57.824219 628.9375 C 58.9375 629.605469 60.070312 630.25 61.21875 630.863281 C 62.367188 631.476562 63.527344 632.0625 64.703125 632.621094 C 65.878906 633.179688 67.070312 633.707031 68.269531 634.207031 C 69.472656 634.707031 70.6875 635.175781 71.910156 635.613281 C 73.136719 636.054688 74.371094 636.464844 75.617188 636.84375 C 76.863281 637.222656 78.117188 637.570312 79.378906 637.886719 C 80.640625 638.207031 81.910156 638.492188 83.183594 638.75 C 84.460938 639.003906 85.742188 639.230469 87.03125 639.421875 C 88.316406 639.613281 89.609375 639.777344 90.902344 639.90625 C 92.199219 640.035156 93.496094 640.132812 94.796875 640.199219 C 96.097656 640.265625 97.398438 640.300781 98.699219 640.300781 L 576.113281 640.300781 C 577.414062 640.300781 578.714844 640.265625 580.015625 640.199219 C 581.3125 640.132812 582.613281 640.035156 583.90625 639.90625 C 585.203125 639.777344 586.492188 639.613281 587.78125 639.421875 C 589.066406 639.230469 590.347656 639.003906 591.625 638.75 C 592.902344 638.492188 594.171875 638.207031 595.433594 637.886719 C 596.695312 637.570312 597.949219 637.222656 599.195312 636.84375 C 600.4375 636.464844 601.675781 636.054688 602.898438 635.613281 C 604.125 635.175781 605.335938 634.707031 606.539062 634.207031 C 607.742188 633.707031 608.929688 633.179688 610.105469 632.621094 C 611.28125 632.0625 612.445312 631.476562 613.59375 630.863281 C 614.738281 630.25 615.871094 629.605469 616.988281 628.9375 C 618.101562 628.265625 619.203125 627.570312 620.285156 626.847656 C 621.367188 626.125 622.429688 625.375 623.476562 624.597656 C 624.519531 623.824219 625.546875 623.023438 626.550781 622.195312 C 627.558594 621.371094 628.542969 620.519531 629.507812 619.644531 C 630.472656 618.769531 631.414062 617.875 632.332031 616.953125 C 633.253906 616.035156 634.152344 615.089844 635.027344 614.125 C 635.898438 613.164062 636.75 612.175781 637.574219 611.171875 C 638.402344 610.164062 639.203125 609.140625 639.976562 608.09375 C 640.753906 607.050781 641.503906 605.984375 642.226562 604.902344 C 642.949219 603.824219 643.648438 602.722656 644.316406 601.605469 C 644.988281 600.492188 645.628906 599.359375 646.242188 598.210938 C 646.859375 597.066406 647.445312 595.902344 648 594.726562 C 648.558594 593.550781 649.085938 592.363281 649.585938 591.160156 C 650.085938 589.957031 650.554688 588.742188 650.992188 587.519531 C 651.433594 586.292969 651.84375 585.058594 652.222656 583.8125 C 652.601562 582.570312 652.949219 581.316406 653.269531 580.050781 C 653.585938 578.789062 653.871094 577.519531 654.128906 576.246094 C 654.382812 574.96875 654.609375 573.6875 654.800781 572.398438 C 654.992188 571.113281 655.15625 569.820312 655.285156 568.527344 C 655.414062 567.230469 655.511719 565.933594 655.578125 564.632812 C 655.644531 563.335938 655.679688 562.035156 655.679688 560.730469 L 655.679688 146.96875 C 655.679688 145.667969 655.644531 144.367188 655.578125 143.066406 C 655.511719 141.769531 655.414062 140.46875 655.285156 139.175781 C 655.15625 137.878906 654.992188 136.589844 654.800781 135.300781 C 654.609375 134.015625 654.382812 132.734375 654.128906 131.457031 C 653.871094 130.179688 653.585938 128.910156 653.269531 127.648438 C 652.949219 126.386719 652.601562 125.132812 652.222656 123.886719 C 651.84375 122.644531 651.433594 121.40625 650.992188 120.183594 C 650.554688 118.957031 650.085938 117.746094 649.585938 116.542969 C 649.085938 115.339844 648.558594 114.152344 648 112.976562 C 647.441406 111.796875 646.859375 110.636719 646.242188 109.488281 C 645.628906 108.34375 644.988281 107.210938 644.316406 106.09375 C 643.648438 104.976562 642.949219 103.878906 642.226562 102.796875 C 641.503906 101.714844 640.753906 100.652344 639.976562 99.605469 C 639.203125 98.5625 638.402344 97.535156 637.574219 96.53125 C 636.75 95.523438 635.898438 94.539062 635.027344 93.574219 C 634.152344 92.609375 633.253906 91.667969 632.332031 90.746094 C 631.414062 89.828125 630.472656 88.929688 629.507812 88.054688 C 628.542969 87.183594 627.558594 86.332031 626.550781 85.503906 C 625.546875 84.679688 624.519531 83.878906 623.476562 83.101562 C 622.429688 82.328125 621.367188 81.578125 620.285156 80.855469 C 619.203125 80.128906 618.101562 79.433594 616.988281 78.765625 C 615.871094 78.09375 614.738281 77.453125 613.59375 76.839844 C 612.445312 76.222656 611.28125 75.636719 610.105469 75.082031 C 608.929688 74.523438 607.742188 73.996094 606.539062 73.496094 C 605.335938 72.996094 604.125 72.527344 602.898438 72.085938 C 601.671875 71.648438 600.4375 71.238281 599.195312 70.859375 C 597.949219 70.480469 596.695312 70.132812 595.433594 69.8125 C 594.171875 69.496094 592.902344 69.207031 591.625 68.953125 C 590.347656 68.699219 589.066406 68.472656 587.78125 68.28125 C 586.492188 68.085938 585.203125 67.925781 583.90625 67.796875 C 582.613281 67.667969 581.3125 67.570312 580.015625 67.503906 C 578.714844 67.4375 577.414062 67.402344 576.113281 67.398438 Z M 98.699219 99.226562 L 576.113281 99.226562 C 577.675781 99.226562 579.234375 99.304688 580.792969 99.457031 C 582.347656 99.609375 583.890625 99.839844 585.425781 100.144531 C 586.960938 100.449219 588.472656 100.828125 589.96875 101.285156 C 591.46875 101.738281 592.9375 102.265625 594.382812 102.863281 C 595.828125 103.460938 597.238281 104.128906 598.617188 104.867188 C 599.996094 105.601562 601.335938 106.40625 602.636719 107.273438 C 603.9375 108.144531 605.191406 109.074219 606.398438 110.066406 C 607.609375 111.058594 608.765625 112.105469 609.871094 113.210938 C 610.976562 114.316406 612.023438 115.472656 613.015625 116.683594 C 614.007812 117.890625 614.9375 119.144531 615.808594 120.445312 C 616.675781 121.746094 617.480469 123.085938 618.214844 124.464844 C 618.953125 125.84375 619.621094 127.253906 620.21875 128.699219 C 620.816406 130.144531 621.34375 131.613281 621.796875 133.109375 C 622.25 134.605469 622.632812 136.121094 622.9375 137.65625 C 623.242188 139.1875 623.46875 140.734375 623.625 142.289062 C 623.777344 143.847656 623.851562 145.40625 623.851562 146.96875 L 623.851562 194.710938 L 50.957031 194.710938 L 50.957031 146.96875 C 50.957031 145.40625 51.035156 143.847656 51.1875 142.289062 C 51.339844 140.734375 51.570312 139.1875 51.875 137.65625 C 52.179688 136.121094 52.558594 134.605469 53.011719 133.109375 C 53.464844 131.613281 53.992188 130.144531 54.589844 128.699219 C 55.1875 127.253906 55.855469 125.84375 56.59375 124.464844 C 57.332031 123.085938 58.132812 121.746094 59.003906 120.445312 C 59.871094 119.144531 60.800781 117.890625 61.792969 116.683594 C 62.785156 115.472656 63.835938 114.316406 64.941406 113.210938 C 66.046875 112.105469 67.203125 111.058594 68.410156 110.066406 C 69.621094 109.074219 70.875 108.144531 72.175781 107.273438 C 73.476562 106.40625 74.8125 105.601562 76.191406 104.867188 C 77.570312 104.128906 78.984375 103.460938 80.429688 102.863281 C 81.871094 102.265625 83.34375 101.738281 84.839844 101.285156 C 86.335938 100.828125 87.851562 100.449219 89.382812 100.144531 C 90.917969 99.839844 92.460938 99.609375 94.019531 99.457031 C 95.574219 99.304688 97.132812 99.226562 98.699219 99.226562 Z M 576.113281 608.472656 L 98.699219 608.472656 C 97.132812 608.472656 95.574219 608.398438 94.019531 608.242188 C 92.460938 608.089844 90.917969 607.859375 89.382812 607.554688 C 87.851562 607.25 86.335938 606.871094 84.839844 606.417969 C 83.34375 605.964844 81.871094 605.4375 80.429688 604.839844 C 78.984375 604.242188 77.570312 603.574219 76.191406 602.835938 C 74.8125 602.097656 73.476562 601.296875 72.175781 600.425781 C 70.875 599.558594 69.621094 598.628906 68.410156 597.636719 C 67.203125 596.644531 66.046875 595.597656 64.941406 594.492188 C 63.835938 593.382812 62.785156 592.226562 61.792969 591.019531 C 60.800781 589.808594 59.871094 588.554688 59.003906 587.253906 C 58.132812 585.957031 57.332031 584.617188 56.59375 583.238281 C 55.855469 581.859375 55.1875 580.445312 54.589844 579 C 53.992188 577.558594 53.464844 576.085938 53.011719 574.589844 C 52.558594 573.09375 52.179688 571.578125 51.875 570.046875 C 51.570312 568.511719 51.339844 566.96875 51.1875 565.410156 C 51.035156 563.855469 50.957031 562.296875 50.957031 560.730469 L 50.957031 226.539062 L 623.851562 226.539062 L 623.851562 560.730469 C 623.851562 562.296875 623.777344 563.855469 623.625 565.410156 C 623.46875 566.96875 623.242188 568.511719 622.9375 570.046875 C 622.632812 571.578125 622.25 573.09375 621.796875 574.589844 C 621.34375 576.085938 620.816406 577.558594 620.21875 579 C 619.621094 580.445312 618.953125 581.859375 618.214844 583.238281 C 617.480469 584.617188 616.675781 585.957031 615.808594 587.253906 C 614.9375 588.554688 614.007812 589.808594 613.015625 591.019531 C 612.023438 592.226562 610.976562 593.382812 609.871094 594.492188 C 608.765625 595.597656 607.609375 596.644531 606.398438 597.636719 C 605.191406 598.628906 603.9375 599.558594 602.636719 600.425781 C 601.335938 601.296875 599.996094 602.097656 598.617188 602.835938 C 597.238281 603.574219 595.828125 604.242188 594.382812 604.839844 C 592.9375 605.4375 591.46875 605.964844 589.972656 606.417969 C 588.472656 606.871094 586.960938 607.25 585.425781 607.554688 C 583.890625 607.859375 582.347656 608.089844 580.792969 608.242188 C 579.234375 608.398438 577.675781 608.472656 576.113281 608.472656 Z M 576.113281 608.472656 " fill-opacity="1" fill-rule="nonzero"/></g><path fill="#646464" d="M 98.699219 162.882812 L 130.527344 162.882812 C 131.046875 162.882812 131.566406 162.859375 132.085938 162.808594 C 132.605469 162.757812 133.121094 162.679688 133.628906 162.578125 C 134.140625 162.476562 134.648438 162.351562 135.144531 162.199219 C 135.644531 162.046875 136.132812 161.871094 136.617188 161.671875 C 137.097656 161.472656 137.566406 161.25 138.027344 161.003906 C 138.488281 160.757812 138.933594 160.492188 139.367188 160.203125 C 139.800781 159.914062 140.21875 159.601562 140.621094 159.269531 C 141.023438 158.941406 141.410156 158.589844 141.777344 158.222656 C 142.148438 157.855469 142.496094 157.46875 142.828125 157.066406 C 143.15625 156.664062 143.46875 156.246094 143.757812 155.8125 C 144.046875 155.378906 144.316406 154.929688 144.5625 154.472656 C 144.804688 154.011719 145.027344 153.542969 145.226562 153.058594 C 145.429688 152.578125 145.601562 152.089844 145.753906 151.589844 C 145.90625 151.089844 146.03125 150.585938 146.132812 150.074219 C 146.234375 149.5625 146.3125 149.046875 146.363281 148.53125 C 146.414062 148.011719 146.441406 147.492188 146.441406 146.96875 C 146.441406 146.449219 146.414062 145.929688 146.363281 145.410156 C 146.3125 144.890625 146.234375 144.375 146.132812 143.863281 C 146.03125 143.355469 145.90625 142.847656 145.753906 142.351562 C 145.601562 141.851562 145.429688 141.359375 145.226562 140.878906 C 145.027344 140.398438 144.804688 139.925781 144.5625 139.46875 C 144.316406 139.007812 144.046875 138.5625 143.757812 138.128906 C 143.46875 137.695312 143.15625 137.277344 142.828125 136.875 C 142.496094 136.472656 142.148438 136.085938 141.777344 135.71875 C 141.410156 135.347656 141.023438 135 140.621094 134.667969 C 140.21875 134.335938 139.800781 134.027344 139.367188 133.738281 C 138.933594 133.449219 138.488281 133.179688 138.027344 132.933594 C 137.566406 132.6875 137.097656 132.464844 136.617188 132.265625 C 136.132812 132.066406 135.644531 131.890625 135.144531 131.742188 C 134.648438 131.589844 134.140625 131.464844 133.628906 131.363281 C 133.121094 131.261719 132.605469 131.183594 132.085938 131.132812 C 131.566406 131.082031 131.046875 131.054688 130.527344 131.054688 L 98.699219 131.054688 C 98.175781 131.054688 97.65625 131.082031 97.136719 131.132812 C 96.621094 131.183594 96.105469 131.261719 95.59375 131.363281 C 95.082031 131.464844 94.578125 131.589844 94.078125 131.742188 C 93.578125 131.890625 93.089844 132.066406 92.609375 132.265625 C 92.125 132.464844 91.65625 132.6875 91.195312 132.933594 C 90.738281 133.179688 90.289062 133.449219 89.855469 133.738281 C 89.421875 134.027344 89.003906 134.335938 88.601562 134.667969 C 88.199219 135 87.8125 135.347656 87.445312 135.71875 C 87.078125 136.085938 86.726562 136.472656 86.398438 136.875 C 86.066406 137.277344 85.757812 137.695312 85.464844 138.128906 C 85.175781 138.5625 84.910156 139.007812 84.664062 139.46875 C 84.417969 139.925781 84.195312 140.398438 83.996094 140.878906 C 83.796875 141.359375 83.621094 141.851562 83.46875 142.351562 C 83.320312 142.847656 83.191406 143.355469 83.089844 143.863281 C 82.988281 144.375 82.914062 144.890625 82.859375 145.410156 C 82.808594 145.929688 82.785156 146.449219 82.785156 146.96875 C 82.785156 147.492188 82.808594 148.011719 82.859375 148.53125 C 82.914062 149.046875 82.988281 149.5625 83.089844 150.074219 C 83.191406 150.585938 83.320312 151.089844 83.46875 151.589844 C 83.621094 152.089844 83.796875 152.578125 83.996094 153.058594 C 84.195312 153.542969 84.417969 154.011719 84.664062 154.472656 C 84.910156 154.929688 85.175781 155.378906 85.464844 155.8125 C 85.757812 156.246094 86.066406 156.664062 86.398438 157.066406 C 86.726562 157.46875 87.078125 157.855469 87.445312 158.222656 C 87.8125 158.589844 88.199219 158.941406 88.601562 159.269531 C 89.003906 159.601562 89.421875 159.914062 89.855469 160.203125 C 90.289062 160.492188 90.738281 160.757812 91.195312 161.003906 C 91.65625 161.25 92.125 161.472656 92.609375 161.671875 C 93.089844 161.871094 93.578125 162.046875 94.078125 162.199219 C 94.578125 162.351562 95.082031 162.476562 95.59375 162.578125 C 96.105469 162.679688 96.621094 162.757812 97.136719 162.808594 C 97.65625 162.859375 98.175781 162.882812 98.699219 162.882812 Z M 98.699219 162.882812 " fill-opacity="1" fill-rule="nonzero"/><path fill="#646464" d="M 194.179688 162.882812 L 226.007812 162.882812 C 226.53125 162.882812 227.050781 162.859375 227.570312 162.808594 C 228.085938 162.757812 228.601562 162.679688 229.113281 162.578125 C 229.625 162.476562 230.128906 162.351562 230.628906 162.199219 C 231.125 162.046875 231.617188 161.871094 232.097656 161.671875 C 232.578125 161.472656 233.050781 161.25 233.511719 161.003906 C 233.96875 160.757812 234.417969 160.492188 234.851562 160.203125 C 235.28125 159.914062 235.703125 159.601562 236.105469 159.269531 C 236.507812 158.941406 236.894531 158.589844 237.261719 158.222656 C 237.628906 157.855469 237.980469 157.46875 238.308594 157.066406 C 238.640625 156.664062 238.949219 156.246094 239.242188 155.8125 C 239.53125 155.378906 239.796875 154.929688 240.042969 154.472656 C 240.289062 154.011719 240.511719 153.542969 240.710938 153.058594 C 240.910156 152.578125 241.085938 152.089844 241.238281 151.589844 C 241.386719 151.089844 241.515625 150.585938 241.617188 150.074219 C 241.71875 149.5625 241.792969 149.046875 241.847656 148.53125 C 241.898438 148.011719 241.921875 147.492188 241.921875 146.96875 C 241.921875 146.449219 241.898438 145.929688 241.847656 145.410156 C 241.792969 144.890625 241.71875 144.375 241.617188 143.863281 C 241.515625 143.355469 241.386719 142.847656 241.238281 142.351562 C 241.085938 141.851562 240.910156 141.359375 240.710938 140.878906 C 240.511719 140.398438 240.289062 139.925781 240.042969 139.46875 C 239.796875 139.007812 239.53125 138.5625 239.242188 138.128906 C 238.949219 137.695312 238.640625 137.277344 238.308594 136.875 C 237.980469 136.472656 237.628906 136.085938 237.261719 135.71875 C 236.894531 135.347656 236.507812 135 236.105469 134.667969 C 235.703125 134.335938 235.28125 134.027344 234.851562 133.738281 C 234.417969 133.449219 233.96875 133.179688 233.511719 132.933594 C 233.050781 132.6875 232.578125 132.464844 232.097656 132.265625 C 231.617188 132.066406 231.125 131.890625 230.628906 131.742188 C 230.128906 131.589844 229.625 131.464844 229.113281 131.363281 C 228.601562 131.261719 228.085938 131.183594 227.570312 131.132812 C 227.050781 131.082031 226.53125 131.054688 226.007812 131.054688 L 194.179688 131.054688 C 193.660156 131.054688 193.140625 131.082031 192.621094 131.132812 C 192.101562 131.183594 191.585938 131.261719 191.078125 131.363281 C 190.566406 131.464844 190.058594 131.589844 189.5625 131.742188 C 189.0625 131.890625 188.574219 132.066406 188.089844 132.265625 C 187.609375 132.464844 187.140625 132.6875 186.679688 132.933594 C 186.21875 133.179688 185.773438 133.449219 185.339844 133.738281 C 184.90625 134.027344 184.488281 134.335938 184.085938 134.667969 C 183.683594 135 183.296875 135.347656 182.929688 135.71875 C 182.558594 136.085938 182.210938 136.472656 181.878906 136.875 C 181.550781 137.277344 181.238281 137.695312 180.949219 138.128906 C 180.660156 138.5625 180.390625 139.007812 180.144531 139.46875 C 179.902344 139.925781 179.679688 140.398438 179.480469 140.878906 C 179.277344 141.359375 179.105469 141.851562 178.953125 142.351562 C 178.800781 142.847656 178.675781 143.355469 178.574219 143.863281 C 178.472656 144.375 178.394531 144.890625 178.34375 145.410156 C 178.292969 145.929688 178.265625 146.449219 178.265625 146.96875 C 178.265625 147.492188 178.292969 148.011719 178.34375 148.53125 C 178.394531 149.046875 178.472656 149.5625 178.574219 150.074219 C 178.675781 150.585938 178.800781 151.089844 178.953125 151.589844 C 179.105469 152.089844 179.277344 152.578125 179.480469 153.058594 C 179.679688 153.542969 179.902344 154.011719 180.144531 154.472656 C 180.390625 154.929688 180.660156 155.378906 180.949219 155.8125 C 181.238281 156.246094 181.550781 156.664062 181.878906 157.066406 C 182.210938 157.46875 182.558594 157.855469 182.929688 158.222656 C 183.296875 158.589844 183.683594 158.941406 184.085938 159.269531 C 184.488281 159.601562 184.90625 159.914062 185.339844 160.203125 C 185.773438 160.492188 186.21875 160.757812 186.679688 161.003906 C 187.140625 161.25 187.609375 161.472656 188.089844 161.671875 C 188.574219 161.871094 189.0625 162.046875 189.5625 162.199219 C 190.058594 162.351562 190.566406 162.476562 191.078125 162.578125 C 191.585938 162.679688 192.101562 162.757812 192.621094 162.808594 C 193.140625 162.859375 193.660156 162.882812 194.179688 162.882812 Z M 194.179688 162.882812 " fill-opacity="1" fill-rule="nonzero"/><path fill="#646464" d="M 321.492188 290.195312 L 289.664062 290.195312 C 289.144531 290.195312 288.621094 290.21875 288.105469 290.273438 C 287.585938 290.324219 287.070312 290.398438 286.558594 290.5 C 286.046875 290.601562 285.542969 290.730469 285.042969 290.878906 C 284.546875 291.03125 284.054688 291.207031 283.574219 291.40625 C 283.09375 291.605469 282.621094 291.828125 282.160156 292.074219 C 281.703125 292.320312 281.257812 292.585938 280.824219 292.878906 C 280.390625 293.167969 279.972656 293.476562 279.566406 293.808594 C 279.164062 294.136719 278.78125 294.488281 278.410156 294.855469 C 278.042969 295.226562 277.691406 295.609375 277.363281 296.011719 C 277.03125 296.417969 276.722656 296.835938 276.433594 297.269531 C 276.140625 297.699219 275.875 298.148438 275.628906 298.605469 C 275.382812 299.066406 275.160156 299.539062 274.960938 300.019531 C 274.761719 300.5 274.585938 300.992188 274.433594 301.488281 C 274.285156 301.988281 274.15625 302.492188 274.054688 303.003906 C 273.953125 303.515625 273.878906 304.03125 273.828125 304.550781 C 273.777344 305.066406 273.75 305.585938 273.75 306.109375 L 273.75 497.074219 C 273.75 497.597656 273.777344 498.117188 273.828125 498.636719 C 273.878906 499.15625 273.953125 499.667969 274.054688 500.179688 C 274.15625 500.691406 274.285156 501.195312 274.433594 501.695312 C 274.585938 502.195312 274.761719 502.683594 274.960938 503.164062 C 275.160156 503.648438 275.382812 504.117188 275.628906 504.578125 C 275.875 505.039062 276.140625 505.484375 276.433594 505.917969 C 276.722656 506.351562 277.03125 506.769531 277.363281 507.171875 C 277.691406 507.574219 278.042969 507.960938 278.410156 508.328125 C 278.78125 508.699219 279.164062 509.046875 279.566406 509.378906 C 279.972656 509.707031 280.390625 510.019531 280.824219 510.308594 C 281.257812 510.597656 281.703125 510.863281 282.160156 511.109375 C 282.621094 511.355469 283.09375 511.578125 283.574219 511.777344 C 284.054688 511.976562 284.546875 512.152344 285.042969 512.304688 C 285.542969 512.457031 286.046875 512.582031 286.558594 512.683594 C 287.070312 512.785156 287.585938 512.863281 288.105469 512.914062 C 288.621094 512.964844 289.144531 512.988281 289.664062 512.988281 L 321.492188 512.988281 C 322.792969 512.988281 324.09375 512.953125 325.394531 512.886719 C 326.695312 512.820312 327.992188 512.722656 329.285156 512.59375 C 330.582031 512.464844 331.871094 512.304688 333.160156 512.109375 C 334.445312 511.917969 335.726562 511.691406 337.003906 511.4375 C 338.28125 511.179688 339.550781 510.894531 340.8125 510.578125 C 342.074219 510.257812 343.328125 509.910156 344.574219 509.53125 C 345.816406 509.152344 347.054688 508.742188 348.277344 508.304688 C 349.503906 507.863281 350.714844 507.394531 351.917969 506.894531 C 353.121094 506.394531 354.308594 505.867188 355.484375 505.308594 C 356.660156 504.753906 357.824219 504.167969 358.972656 503.550781 C 360.117188 502.9375 361.25 502.296875 362.367188 501.625 C 363.484375 500.957031 364.582031 500.257812 365.664062 499.535156 C 366.746094 498.8125 367.808594 498.0625 368.855469 497.285156 C 369.898438 496.511719 370.925781 495.710938 371.929688 494.882812 C 372.9375 494.058594 373.921875 493.207031 374.886719 492.335938 C 375.851562 491.460938 376.792969 490.5625 377.710938 489.640625 C 378.632812 488.722656 379.53125 487.78125 380.40625 486.816406 C 381.277344 485.851562 382.128906 484.867188 382.953125 483.859375 C 383.78125 482.855469 384.582031 481.828125 385.355469 480.785156 C 386.132812 479.738281 386.882812 478.675781 387.605469 477.59375 C 388.328125 476.511719 389.027344 475.410156 389.695312 474.296875 C 390.367188 473.179688 391.007812 472.046875 391.621094 470.902344 C 392.238281 469.753906 392.824219 468.589844 393.378906 467.414062 C 393.9375 466.238281 394.464844 465.050781 394.964844 463.847656 C 395.464844 462.644531 395.933594 461.433594 396.375 460.207031 C 396.8125 458.980469 397.222656 457.746094 397.601562 456.503906 C 397.980469 455.257812 398.328125 454.003906 398.648438 452.742188 C 398.964844 451.480469 399.25 450.210938 399.507812 448.933594 C 399.761719 447.65625 399.988281 446.375 400.179688 445.089844 C 400.375 443.800781 400.535156 442.511719 400.664062 441.214844 C 400.792969 439.917969 400.890625 438.621094 400.957031 437.324219 C 401.023438 436.023438 401.058594 434.722656 401.058594 433.421875 L 401.058594 369.765625 C 401.058594 368.464844 401.023438 367.164062 400.957031 365.863281 C 400.890625 364.5625 400.792969 363.265625 400.664062 361.96875 C 400.535156 360.675781 400.375 359.382812 400.179688 358.097656 C 399.988281 356.808594 399.761719 355.527344 399.507812 354.25 C 399.25 352.976562 398.964844 351.707031 398.648438 350.445312 C 398.328125 349.183594 397.980469 347.929688 397.601562 346.683594 C 397.222656 345.4375 396.8125 344.203125 396.375 342.976562 C 395.933594 341.753906 395.464844 340.539062 394.964844 339.335938 C 394.464844 338.136719 393.9375 336.945312 393.378906 335.769531 C 392.824219 334.59375 392.238281 333.433594 391.621094 332.285156 C 391.007812 331.136719 390.367188 330.003906 389.695312 328.890625 C 389.027344 327.773438 388.328125 326.675781 387.605469 325.59375 C 386.882812 324.511719 386.132812 323.445312 385.355469 322.402344 C 384.582031 321.355469 383.78125 320.332031 382.953125 319.324219 C 382.128906 318.320312 381.277344 317.335938 380.40625 316.371094 C 379.53125 315.40625 378.632812 314.464844 377.710938 313.542969 C 376.792969 312.621094 375.851562 311.726562 374.886719 310.851562 C 373.921875 309.976562 372.9375 309.125 371.929688 308.300781 C 370.925781 307.476562 369.898438 306.675781 368.855469 305.898438 C 367.808594 305.121094 366.746094 304.371094 365.664062 303.648438 C 364.582031 302.925781 363.484375 302.230469 362.367188 301.558594 C 361.25 300.890625 360.117188 300.246094 358.972656 299.632812 C 357.824219 299.019531 356.660156 298.433594 355.484375 297.875 C 354.308594 297.316406 353.121094 296.789062 351.917969 296.289062 C 350.714844 295.792969 349.503906 295.320312 348.277344 294.882812 C 347.054688 294.441406 345.816406 294.03125 344.574219 293.652344 C 343.328125 293.273438 342.074219 292.925781 340.8125 292.609375 C 339.550781 292.289062 338.28125 292.003906 337.003906 291.746094 C 335.726562 291.492188 334.445312 291.269531 333.160156 291.074219 C 331.871094 290.882812 330.582031 290.722656 329.285156 290.589844 C 327.992188 290.460938 326.695312 290.363281 325.394531 290.296875 C 324.09375 290.230469 322.792969 290.199219 321.492188 290.195312 Z M 369.234375 433.421875 C 369.234375 434.984375 369.15625 436.542969 369.003906 438.101562 C 368.851562 439.65625 368.621094 441.199219 368.316406 442.734375 C 368.011719 444.269531 367.632812 445.78125 367.175781 447.277344 C 366.722656 448.777344 366.195312 450.246094 365.597656 451.691406 C 365 453.136719 364.332031 454.546875 363.59375 455.925781 C 362.859375 457.304688 362.054688 458.644531 361.1875 459.945312 C 360.316406 461.246094 359.386719 462.5 358.394531 463.707031 C 357.402344 464.917969 356.355469 466.074219 355.25 467.179688 C 354.144531 468.285156 352.988281 469.332031 351.777344 470.324219 C 350.570312 471.316406 349.316406 472.246094 348.015625 473.117188 C 346.714844 473.984375 345.375 474.789062 343.996094 475.523438 C 342.617188 476.261719 341.207031 476.929688 339.761719 477.527344 C 338.316406 478.125 336.847656 478.652344 335.351562 479.105469 C 333.855469 479.558594 332.339844 479.941406 330.804688 480.246094 C 329.273438 480.550781 327.726562 480.777344 326.171875 480.933594 C 324.613281 481.085938 323.054688 481.164062 321.492188 481.164062 L 305.578125 481.164062 L 305.578125 322.023438 L 321.492188 322.023438 C 323.054688 322.023438 324.613281 322.097656 326.171875 322.253906 C 327.726562 322.40625 329.273438 322.636719 330.804688 322.941406 C 332.339844 323.246094 333.855469 323.625 335.351562 324.078125 C 336.847656 324.53125 338.316406 325.058594 339.761719 325.65625 C 341.207031 326.253906 342.617188 326.921875 343.996094 327.660156 C 345.375 328.398438 346.714844 329.199219 348.015625 330.070312 C 349.316406 330.9375 350.570312 331.867188 351.777344 332.859375 C 352.988281 333.851562 354.144531 334.902344 355.25 336.007812 C 356.355469 337.113281 357.402344 338.269531 358.394531 339.476562 C 359.386719 340.6875 360.316406 341.941406 361.1875 343.242188 C 362.054688 344.539062 362.859375 345.878906 363.59375 347.257812 C 364.332031 348.636719 365 350.050781 365.597656 351.496094 C 366.195312 352.9375 366.722656 354.410156 367.175781 355.90625 C 367.632812 357.402344 368.011719 358.917969 368.316406 360.449219 C 368.621094 361.984375 368.851562 363.527344 369.003906 365.085938 C 369.15625 366.640625 369.234375 368.199219 369.234375 369.765625 Z M 369.234375 433.421875 " fill-opacity="1" fill-rule="nonzero"/><path fill="#646464" d="M 496.542969 322.023438 C 497.585938 322.027344 498.621094 322.082031 499.660156 322.1875 C 500.695312 322.296875 501.722656 322.453125 502.742188 322.65625 C 503.761719 322.863281 504.769531 323.121094 505.765625 323.425781 C 506.761719 323.730469 507.738281 324.082031 508.699219 324.484375 C 509.660156 324.882812 510.601562 325.332031 511.519531 325.824219 C 512.433594 326.316406 513.328125 326.851562 514.191406 327.429688 C 515.058594 328.011719 515.890625 328.628906 516.695312 329.292969 C 517.5 329.953125 518.269531 330.652344 519.007812 331.386719 C 519.742188 332.125 520.441406 332.894531 521.101562 333.699219 C 521.761719 334.503906 522.382812 335.335938 522.960938 336.203125 C 523.542969 337.066406 524.078125 337.957031 524.570312 338.875 C 525.0625 339.792969 525.507812 340.730469 525.910156 341.691406 C 526.308594 342.652344 526.664062 343.632812 526.96875 344.628906 C 527.273438 345.625 527.527344 346.632812 527.734375 347.652344 C 527.941406 348.671875 528.097656 349.699219 528.203125 350.734375 C 528.3125 351.769531 528.367188 352.808594 528.371094 353.851562 C 528.371094 354.371094 528.394531 354.890625 528.449219 355.410156 C 528.5 355.929688 528.574219 356.445312 528.675781 356.957031 C 528.777344 357.464844 528.90625 357.972656 529.054688 358.46875 C 529.207031 358.96875 529.382812 359.460938 529.582031 359.941406 C 529.78125 360.421875 530.003906 360.894531 530.25 361.351562 C 530.496094 361.8125 530.761719 362.257812 531.050781 362.691406 C 531.34375 363.125 531.652344 363.542969 531.984375 363.945312 C 532.3125 364.347656 532.664062 364.734375 533.03125 365.105469 C 533.398438 365.472656 533.785156 365.820312 534.1875 366.152344 C 534.589844 366.484375 535.011719 366.792969 535.441406 367.082031 C 535.875 367.371094 536.324219 367.640625 536.78125 367.886719 C 537.242188 368.132812 537.714844 368.355469 538.195312 368.554688 C 538.675781 368.753906 539.167969 368.929688 539.664062 369.078125 C 540.164062 369.230469 540.667969 369.355469 541.179688 369.457031 C 541.691406 369.5625 542.207031 369.636719 542.726562 369.6875 C 543.242188 369.738281 543.761719 369.765625 544.285156 369.765625 C 544.804688 369.765625 545.324219 369.738281 545.84375 369.6875 C 546.363281 369.636719 546.878906 369.5625 547.390625 369.457031 C 547.898438 369.355469 548.40625 369.230469 548.902344 369.078125 C 549.402344 368.929688 549.894531 368.753906 550.375 368.554688 C 550.855469 368.355469 551.328125 368.132812 551.785156 367.886719 C 552.246094 367.640625 552.691406 367.371094 553.125 367.082031 C 553.558594 366.792969 553.976562 366.484375 554.378906 366.152344 C 554.78125 365.820312 555.167969 365.472656 555.539062 365.105469 C 555.90625 364.734375 556.253906 364.347656 556.585938 363.945312 C 556.917969 363.542969 557.226562 363.125 557.515625 362.691406 C 557.804688 362.257812 558.074219 361.8125 558.320312 361.351562 C 558.566406 360.894531 558.789062 360.421875 558.988281 359.941406 C 559.1875 359.460938 559.363281 358.96875 559.511719 358.46875 C 559.664062 357.972656 559.789062 357.464844 559.890625 356.957031 C 559.996094 356.445312 560.070312 355.929688 560.121094 355.410156 C 560.171875 354.890625 560.199219 354.371094 560.199219 353.851562 C 560.199219 352.808594 560.171875 351.769531 560.121094 350.726562 C 560.070312 349.6875 559.992188 348.648438 559.890625 347.613281 C 559.789062 346.574219 559.664062 345.542969 559.507812 344.511719 C 559.355469 343.480469 559.179688 342.453125 558.976562 341.433594 C 558.773438 340.410156 558.542969 339.394531 558.289062 338.382812 C 558.039062 337.375 557.757812 336.371094 557.457031 335.371094 C 557.15625 334.375 556.828125 333.386719 556.476562 332.40625 C 556.125 331.425781 555.75 330.453125 555.351562 329.492188 C 554.953125 328.527344 554.53125 327.574219 554.085938 326.632812 C 553.640625 325.691406 553.171875 324.761719 552.683594 323.84375 C 552.191406 322.925781 551.675781 322.019531 551.140625 321.125 C 550.605469 320.230469 550.050781 319.351562 549.46875 318.484375 C 548.890625 317.621094 548.292969 316.769531 547.671875 315.929688 C 547.050781 315.09375 546.410156 314.273438 545.75 313.46875 C 545.089844 312.664062 544.40625 311.875 543.707031 311.101562 C 543.007812 310.332031 542.289062 309.574219 541.554688 308.839844 C 540.816406 308.101562 540.0625 307.382812 539.292969 306.683594 C 538.519531 305.984375 537.730469 305.304688 536.925781 304.644531 C 536.121094 303.984375 535.300781 303.34375 534.460938 302.722656 C 533.625 302.101562 532.773438 301.5 531.90625 300.921875 C 531.042969 300.34375 530.160156 299.785156 529.269531 299.25 C 528.375 298.714844 527.46875 298.203125 526.550781 297.710938 C 525.632812 297.21875 524.699219 296.753906 523.757812 296.308594 C 522.816406 295.859375 521.867188 295.4375 520.902344 295.039062 C 519.941406 294.640625 518.96875 294.265625 517.988281 293.917969 C 517.007812 293.566406 516.019531 293.238281 515.019531 292.9375 C 514.023438 292.632812 513.019531 292.355469 512.011719 292.101562 C 511 291.851562 509.984375 291.621094 508.960938 291.417969 C 507.941406 291.214844 506.914062 291.035156 505.882812 290.882812 C 504.851562 290.730469 503.820312 290.605469 502.78125 290.5 C 501.746094 290.398438 500.707031 290.324219 499.667969 290.273438 C 498.625 290.21875 497.585938 290.195312 496.542969 290.195312 C 495.5 290.195312 494.460938 290.21875 493.417969 290.273438 C 492.378906 290.324219 491.339844 290.398438 490.304688 290.5 C 489.265625 290.605469 488.234375 290.730469 487.203125 290.882812 C 486.171875 291.035156 485.144531 291.214844 484.125 291.417969 C 483.101562 291.621094 482.085938 291.851562 481.074219 292.101562 C 480.066406 292.355469 479.0625 292.632812 478.066406 292.9375 C 477.066406 293.238281 476.078125 293.566406 475.097656 293.917969 C 474.117188 294.265625 473.144531 294.640625 472.183594 295.039062 C 471.222656 295.4375 470.269531 295.859375 469.328125 296.308594 C 468.386719 296.753906 467.453125 297.21875 466.535156 297.710938 C 465.617188 298.203125 464.710938 298.714844 463.816406 299.25 C 462.925781 299.785156 462.042969 300.34375 461.179688 300.921875 C 460.3125 301.5 459.460938 302.101562 458.625 302.722656 C 457.785156 303.34375 456.964844 303.984375 456.160156 304.644531 C 455.355469 305.304688 454.566406 305.984375 453.796875 306.683594 C 453.023438 307.382812 452.269531 308.101562 451.53125 308.839844 C 450.796875 309.574219 450.078125 310.332031 449.378906 311.101562 C 448.679688 311.875 447.996094 312.664062 447.335938 313.46875 C 446.675781 314.273438 446.035156 315.09375 445.414062 315.929688 C 444.792969 316.769531 444.195312 317.621094 443.617188 318.484375 C 443.035156 319.351562 442.480469 320.230469 441.945312 321.125 C 441.410156 322.019531 440.894531 322.925781 440.402344 323.84375 C 439.914062 324.761719 439.445312 325.691406 439 326.632812 C 438.554688 327.574219 438.132812 328.527344 437.734375 329.492188 C 437.335938 330.453125 436.960938 331.425781 436.609375 332.40625 C 436.257812 333.386719 435.929688 334.375 435.628906 335.371094 C 435.328125 336.371094 435.046875 337.375 434.796875 338.382812 C 434.542969 339.394531 434.3125 340.410156 434.109375 341.433594 C 433.90625 342.453125 433.730469 343.480469 433.578125 344.511719 C 433.425781 345.542969 433.296875 346.574219 433.195312 347.613281 C 433.09375 348.648438 433.015625 349.6875 432.964844 350.726562 C 432.914062 351.769531 432.886719 352.808594 432.886719 353.851562 C 432.886719 387.558594 464.28125 403.183594 489.453125 415.769531 C 514.628906 428.355469 528.371094 436.3125 528.371094 449.335938 C 528.371094 450.375 528.320312 451.417969 528.21875 452.453125 C 528.117188 453.492188 527.960938 454.519531 527.757812 455.542969 C 527.554688 456.566406 527.304688 457.574219 527 458.574219 C 526.699219 459.570312 526.347656 460.550781 525.949219 461.515625 C 525.550781 462.476562 525.105469 463.417969 524.613281 464.335938 C 524.121094 465.257812 523.585938 466.148438 523.007812 467.015625 C 522.425781 467.882812 521.808594 468.71875 521.144531 469.527344 C 520.484375 470.332031 519.785156 471.101562 519.046875 471.839844 C 518.3125 472.578125 517.539062 473.277344 516.734375 473.9375 C 515.929688 474.597656 515.09375 475.21875 514.226562 475.796875 C 513.359375 476.378906 512.464844 476.914062 511.546875 477.402344 C 510.628906 477.894531 509.6875 478.339844 508.722656 478.738281 C 507.761719 479.136719 506.78125 479.488281 505.78125 479.792969 C 504.785156 480.09375 503.773438 480.347656 502.753906 480.550781 C 501.730469 480.753906 500.699219 480.90625 499.664062 481.007812 C 498.625 481.109375 497.585938 481.164062 496.542969 481.164062 C 495.5 481.164062 494.460938 481.109375 493.421875 481.007812 C 492.386719 480.90625 491.355469 480.753906 490.332031 480.550781 C 489.3125 480.347656 488.300781 480.09375 487.304688 479.792969 C 486.304688 479.488281 485.328125 479.136719 484.363281 478.738281 C 483.398438 478.339844 482.460938 477.894531 481.539062 477.402344 C 480.621094 476.914062 479.726562 476.378906 478.859375 475.796875 C 477.992188 475.21875 477.15625 474.597656 476.351562 473.9375 C 475.546875 473.277344 474.773438 472.578125 474.039062 471.839844 C 473.300781 471.101562 472.601562 470.332031 471.941406 469.527344 C 471.277344 468.71875 470.660156 467.882812 470.078125 467.015625 C 469.5 466.148438 468.964844 465.257812 468.472656 464.335938 C 467.980469 463.417969 467.539062 462.476562 467.136719 461.515625 C 466.738281 460.550781 466.386719 459.570312 466.085938 458.574219 C 465.785156 457.574219 465.53125 456.566406 465.328125 455.542969 C 465.125 454.519531 464.972656 453.492188 464.867188 452.453125 C 464.765625 451.417969 464.714844 450.375 464.714844 449.335938 C 464.714844 448.8125 464.691406 448.292969 464.640625 447.773438 C 464.585938 447.253906 464.511719 446.742188 464.410156 446.230469 C 464.308594 445.71875 464.179688 445.214844 464.03125 444.714844 C 463.878906 444.214844 463.703125 443.726562 463.503906 443.246094 C 463.304688 442.761719 463.082031 442.292969 462.835938 441.832031 C 462.589844 441.371094 462.324219 440.925781 462.035156 440.492188 C 461.742188 440.058594 461.433594 439.640625 461.101562 439.238281 C 460.773438 438.835938 460.421875 438.449219 460.054688 438.082031 C 459.6875 437.714844 459.300781 437.363281 458.898438 437.03125 C 458.496094 436.703125 458.078125 436.390625 457.644531 436.101562 C 457.210938 435.8125 456.761719 435.546875 456.304688 435.300781 C 455.84375 435.054688 455.375 434.832031 454.890625 434.632812 C 454.410156 434.433594 453.921875 434.257812 453.421875 434.105469 C 452.921875 433.953125 452.417969 433.828125 451.90625 433.726562 C 451.394531 433.625 450.878906 433.546875 450.363281 433.496094 C 449.84375 433.445312 449.324219 433.421875 448.800781 433.421875 C 448.28125 433.421875 447.761719 433.445312 447.242188 433.496094 C 446.722656 433.546875 446.207031 433.625 445.695312 433.726562 C 445.1875 433.828125 444.679688 433.953125 444.183594 434.105469 C 443.683594 434.257812 443.191406 434.433594 442.710938 434.632812 C 442.230469 434.832031 441.757812 435.054688 441.300781 435.300781 C 440.839844 435.546875 440.394531 435.8125 439.960938 436.101562 C 439.527344 436.390625 439.109375 436.703125 438.707031 437.03125 C 438.304688 437.363281 437.917969 437.714844 437.550781 438.082031 C 437.179688 438.449219 436.832031 438.835938 436.5 439.238281 C 436.167969 439.640625 435.859375 440.058594 435.570312 440.492188 C 435.28125 440.925781 435.011719 441.371094 434.765625 441.832031 C 434.519531 442.292969 434.296875 442.761719 434.097656 443.246094 C 433.898438 443.726562 433.722656 444.214844 433.574219 444.714844 C 433.421875 445.214844 433.296875 445.71875 433.195312 446.230469 C 433.09375 446.742188 433.015625 447.253906 432.964844 447.773438 C 432.914062 448.292969 432.886719 448.8125 432.886719 449.335938 C 432.886719 450.375 432.914062 451.417969 432.964844 452.457031 C 433.015625 453.5 433.09375 454.535156 433.195312 455.574219 C 433.296875 456.609375 433.425781 457.644531 433.578125 458.675781 C 433.730469 459.703125 433.90625 460.730469 434.109375 461.753906 C 434.3125 462.773438 434.542969 463.789062 434.796875 464.800781 C 435.046875 465.8125 435.328125 466.816406 435.628906 467.8125 C 435.929688 468.808594 436.257812 469.796875 436.609375 470.777344 C 436.960938 471.761719 437.335938 472.730469 437.734375 473.695312 C 438.132812 474.65625 438.554688 475.609375 439 476.550781 C 439.445312 477.492188 439.914062 478.421875 440.402344 479.339844 C 440.894531 480.261719 441.410156 481.167969 441.945312 482.058594 C 442.480469 482.953125 443.035156 483.832031 443.617188 484.699219 C 444.195312 485.566406 444.792969 486.417969 445.414062 487.253906 C 446.035156 488.089844 446.675781 488.910156 447.335938 489.71875 C 447.996094 490.523438 448.679688 491.3125 449.378906 492.082031 C 450.078125 492.855469 450.796875 493.609375 451.53125 494.34375 C 452.269531 495.082031 453.023438 495.800781 453.792969 496.5 C 454.566406 497.199219 455.355469 497.878906 456.160156 498.539062 C 456.964844 499.203125 457.785156 499.84375 458.625 500.464844 C 459.460938 501.082031 460.3125 501.683594 461.179688 502.261719 C 462.042969 502.839844 462.925781 503.398438 463.816406 503.933594 C 464.710938 504.46875 465.617188 504.984375 466.535156 505.472656 C 467.453125 505.964844 468.386719 506.433594 469.328125 506.878906 C 470.269531 507.324219 471.222656 507.746094 472.183594 508.144531 C 473.144531 508.542969 474.117188 508.917969 475.097656 509.269531 C 476.078125 509.621094 477.066406 509.945312 478.066406 510.25 C 479.0625 510.550781 480.066406 510.828125 481.074219 511.082031 C 482.085938 511.335938 483.101562 511.5625 484.125 511.765625 C 485.144531 511.96875 486.171875 512.148438 487.203125 512.300781 C 488.234375 512.453125 489.265625 512.582031 490.304688 512.683594 C 491.339844 512.785156 492.378906 512.863281 493.417969 512.914062 C 494.460938 512.964844 495.5 512.988281 496.542969 512.988281 C 497.585938 512.988281 498.625 512.964844 499.667969 512.914062 C 500.707031 512.863281 501.746094 512.785156 502.78125 512.683594 C 503.820312 512.582031 504.851562 512.453125 505.882812 512.300781 C 506.914062 512.148438 507.941406 511.96875 508.960938 511.765625 C 509.984375 511.5625 511 511.335938 512.011719 511.082031 C 513.019531 510.828125 514.023438 510.550781 515.019531 510.25 C 516.019531 509.945312 517.007812 509.621094 517.988281 509.269531 C 518.96875 508.917969 519.941406 508.542969 520.902344 508.144531 C 521.867188 507.746094 522.816406 507.324219 523.757812 506.878906 C 524.699219 506.433594 525.632812 505.964844 526.550781 505.472656 C 527.46875 504.984375 528.375 504.46875 529.269531 503.933594 C 530.160156 503.398438 531.042969 502.839844 531.90625 502.261719 C 532.773438 501.683594 533.625 501.082031 534.460938 500.464844 C 535.300781 499.84375 536.121094 499.203125 536.925781 498.539062 C 537.730469 497.878906 538.519531 497.199219 539.292969 496.5 C 540.0625 495.800781 540.816406 495.082031 541.554688 494.34375 C 542.289062 493.609375 543.007812 492.855469 543.707031 492.082031 C 544.40625 491.3125 545.089844 490.523438 545.75 489.71875 C 546.410156 488.910156 547.050781 488.089844 547.671875 487.253906 C 548.292969 486.417969 548.890625 485.566406 549.46875 484.699219 C 550.050781 483.832031 550.605469 482.953125 551.140625 482.058594 C 551.675781 481.167969 552.191406 480.261719 552.683594 479.339844 C 553.171875 478.421875 553.640625 477.492188 554.085938 476.550781 C 554.53125 475.609375 554.953125 474.65625 555.351562 473.695312 C 555.75 472.730469 556.125 471.761719 556.476562 470.777344 C 556.828125 469.796875 557.15625 468.808594 557.457031 467.8125 C 557.757812 466.816406 558.039062 465.8125 558.289062 464.800781 C 558.542969 463.789062 558.773438 462.773438 558.976562 461.753906 C 559.179688 460.730469 559.355469 459.703125 559.507812 458.675781 C 559.664062 457.644531 559.789062 456.609375 559.890625 455.574219 C 559.992188 454.535156 560.070312 453.5 560.121094 452.457031 C 560.171875 451.417969 560.199219 450.375 560.199219 449.335938 C 560.199219 415.625 528.804688 400 503.632812 387.414062 C 478.460938 374.828125 464.714844 366.871094 464.714844 353.851562 C 464.71875 352.808594 464.777344 351.769531 464.882812 350.734375 C 464.988281 349.699219 465.144531 348.671875 465.351562 347.652344 C 465.558594 346.632812 465.8125 345.625 466.117188 344.628906 C 466.421875 343.632812 466.777344 342.652344 467.175781 341.691406 C 467.578125 340.730469 468.023438 339.792969 468.515625 338.875 C 469.007812 337.957031 469.542969 337.066406 470.125 336.203125 C 470.703125 335.335938 471.324219 334.503906 471.984375 333.699219 C 472.644531 332.894531 473.34375 332.125 474.078125 331.386719 C 474.816406 330.652344 475.585938 329.953125 476.390625 329.292969 C 477.195312 328.628906 478.03125 328.011719 478.894531 327.429688 C 479.757812 326.851562 480.652344 326.316406 481.566406 325.824219 C 482.484375 325.332031 483.425781 324.882812 484.386719 324.484375 C 485.347656 324.082031 486.324219 323.730469 487.320312 323.425781 C 488.316406 323.121094 489.324219 322.863281 490.34375 322.660156 C 491.363281 322.453125 492.390625 322.296875 493.429688 322.1875 C 494.464844 322.082031 495.503906 322.027344 496.542969 322.023438 Z M 496.542969 322.023438 " fill-opacity="1" fill-rule="nonzero"/><path fill="#646464" d="M 178.265625 290.195312 C 177.226562 290.195312 176.183594 290.21875 175.144531 290.273438 C 174.101562 290.324219 173.066406 290.398438 172.027344 290.5 C 170.992188 290.605469 169.957031 290.730469 168.925781 290.882812 C 167.898438 291.035156 166.871094 291.214844 165.847656 291.417969 C 164.828125 291.621094 163.8125 291.851562 162.800781 292.101562 C 161.789062 292.355469 160.785156 292.632812 159.789062 292.9375 C 158.792969 293.238281 157.804688 293.566406 156.824219 293.917969 C 155.839844 294.265625 154.871094 294.640625 153.90625 295.039062 C 152.945312 295.4375 151.992188 295.859375 151.050781 296.308594 C 150.109375 296.753906 149.179688 297.21875 148.261719 297.710938 C 147.339844 298.203125 146.433594 298.714844 145.542969 299.25 C 144.648438 299.785156 143.769531 300.34375 142.902344 300.921875 C 142.035156 301.5 141.183594 302.101562 140.347656 302.722656 C 139.511719 303.34375 138.691406 303.984375 137.886719 304.644531 C 137.078125 305.304688 136.289062 305.984375 135.519531 306.683594 C 134.746094 307.382812 133.992188 308.101562 133.257812 308.839844 C 132.519531 309.574219 131.800781 310.332031 131.101562 311.101562 C 130.402344 311.875 129.722656 312.664062 129.0625 313.46875 C 128.398438 314.273438 127.757812 315.09375 127.140625 315.929688 C 126.519531 316.769531 125.917969 317.621094 125.339844 318.484375 C 124.761719 319.351562 124.203125 320.230469 123.667969 321.125 C 123.132812 322.019531 122.621094 322.925781 122.128906 323.84375 C 121.636719 324.761719 121.167969 325.691406 120.722656 326.632812 C 120.277344 327.578125 119.855469 328.527344 119.457031 329.492188 C 119.058594 330.453125 118.683594 331.425781 118.332031 332.40625 C 117.980469 333.386719 117.65625 334.375 117.351562 335.371094 C 117.050781 336.371094 116.773438 337.375 116.519531 338.382812 C 116.265625 339.394531 116.039062 340.410156 115.835938 341.433594 C 115.632812 342.453125 115.453125 343.480469 115.300781 344.511719 C 115.148438 345.542969 115.019531 346.574219 114.917969 347.613281 C 114.816406 348.648438 114.738281 349.6875 114.6875 350.726562 C 114.636719 351.769531 114.613281 352.808594 114.613281 353.851562 L 114.613281 497.074219 C 114.613281 497.597656 114.636719 498.117188 114.6875 498.636719 C 114.738281 499.15625 114.816406 499.667969 114.917969 500.179688 C 115.019531 500.691406 115.144531 501.195312 115.296875 501.695312 C 115.449219 502.195312 115.625 502.683594 115.824219 503.164062 C 116.023438 503.648438 116.246094 504.117188 116.492188 504.578125 C 116.738281 505.039062 117.003906 505.484375 117.292969 505.917969 C 117.582031 506.351562 117.894531 506.769531 118.222656 507.171875 C 118.554688 507.574219 118.90625 507.960938 119.273438 508.328125 C 119.640625 508.699219 120.027344 509.046875 120.429688 509.378906 C 120.832031 509.707031 121.25 510.019531 121.683594 510.308594 C 122.117188 510.597656 122.566406 510.863281 123.023438 511.109375 C 123.484375 511.355469 123.953125 511.578125 124.4375 511.777344 C 124.917969 511.976562 125.40625 512.152344 125.90625 512.304688 C 126.40625 512.457031 126.910156 512.582031 127.421875 512.683594 C 127.933594 512.785156 128.449219 512.863281 128.964844 512.914062 C 129.484375 512.964844 130.003906 512.988281 130.527344 512.988281 C 131.046875 512.988281 131.566406 512.964844 132.085938 512.914062 C 132.605469 512.863281 133.121094 512.785156 133.628906 512.683594 C 134.140625 512.582031 134.648438 512.457031 135.144531 512.304688 C 135.644531 512.152344 136.132812 511.976562 136.617188 511.777344 C 137.097656 511.578125 137.566406 511.355469 138.027344 511.109375 C 138.488281 510.863281 138.933594 510.597656 139.367188 510.308594 C 139.800781 510.019531 140.21875 509.707031 140.621094 509.378906 C 141.023438 509.046875 141.410156 508.699219 141.777344 508.328125 C 142.148438 507.960938 142.496094 507.574219 142.828125 507.171875 C 143.15625 506.769531 143.46875 506.351562 143.757812 505.917969 C 144.046875 505.484375 144.316406 505.039062 144.5625 504.578125 C 144.804688 504.117188 145.027344 503.648438 145.226562 503.164062 C 145.429688 502.683594 145.601562 502.195312 145.753906 501.695312 C 145.90625 501.195312 146.03125 500.691406 146.132812 500.179688 C 146.234375 499.667969 146.3125 499.15625 146.363281 498.636719 C 146.414062 498.117188 146.441406 497.597656 146.441406 497.074219 L 146.441406 417.507812 L 210.09375 417.507812 L 210.09375 497.074219 C 210.09375 497.597656 210.121094 498.117188 210.171875 498.636719 C 210.222656 499.15625 210.300781 499.667969 210.402344 500.179688 C 210.503906 500.691406 210.628906 501.195312 210.78125 501.695312 C 210.929688 502.195312 211.105469 502.683594 211.304688 503.164062 C 211.503906 503.648438 211.726562 504.117188 211.972656 504.578125 C 212.21875 505.039062 212.488281 505.484375 212.777344 505.917969 C 213.066406 506.351562 213.375 506.769531 213.707031 507.171875 C 214.039062 507.574219 214.386719 507.960938 214.757812 508.328125 C 215.125 508.699219 215.511719 509.046875 215.914062 509.378906 C 216.316406 509.707031 216.734375 510.019531 217.167969 510.308594 C 217.601562 510.597656 218.046875 510.863281 218.507812 511.109375 C 218.964844 511.355469 219.4375 511.578125 219.917969 511.777344 C 220.398438 511.976562 220.890625 512.152344 221.390625 512.304688 C 221.886719 512.457031 222.394531 512.582031 222.902344 512.683594 C 223.414062 512.785156 223.929688 512.863281 224.449219 512.914062 C 224.96875 512.964844 225.488281 512.988281 226.007812 512.988281 C 226.53125 512.988281 227.050781 512.964844 227.570312 512.914062 C 228.085938 512.863281 228.601562 512.785156 229.113281 512.683594 C 229.625 512.582031 230.128906 512.457031 230.628906 512.304688 C 231.125 512.152344 231.617188 511.976562 232.097656 511.777344 C 232.578125 511.578125 233.050781 511.355469 233.511719 511.109375 C 233.96875 510.863281 234.417969 510.597656 234.851562 510.308594 C 235.28125 510.019531 235.703125 509.707031 236.105469 509.378906 C 236.507812 509.046875 236.894531 508.699219 237.261719 508.328125 C 237.628906 507.960938 237.980469 507.574219 238.308594 507.171875 C 238.640625 506.769531 238.949219 506.351562 239.242188 505.917969 C 239.53125 505.484375 239.796875 505.039062 240.042969 504.578125 C 240.289062 504.117188 240.511719 503.648438 240.710938 503.164062 C 240.910156 502.683594 241.085938 502.195312 241.238281 501.695312 C 241.386719 501.195312 241.515625 500.691406 241.617188 500.179688 C 241.71875 499.667969 241.792969 499.15625 241.847656 498.636719 C 241.898438 498.117188 241.921875 497.597656 241.921875 497.074219 L 241.921875 353.851562 C 241.921875 352.808594 241.898438 351.769531 241.847656 350.726562 C 241.792969 349.6875 241.71875 348.648438 241.617188 347.613281 C 241.515625 346.574219 241.386719 345.542969 241.234375 344.511719 C 241.082031 343.480469 240.902344 342.453125 240.699219 341.433594 C 240.496094 340.410156 240.269531 339.394531 240.015625 338.382812 C 239.761719 337.375 239.484375 336.371094 239.179688 335.371094 C 238.878906 334.375 238.550781 333.386719 238.203125 332.40625 C 237.851562 331.425781 237.476562 330.453125 237.078125 329.492188 C 236.679688 328.527344 236.257812 327.574219 235.8125 326.632812 C 235.367188 325.691406 234.898438 324.761719 234.40625 323.84375 C 233.914062 322.925781 233.402344 322.019531 232.867188 321.125 C 232.332031 320.230469 231.773438 319.351562 231.195312 318.484375 C 230.617188 317.621094 230.015625 316.769531 229.394531 315.929688 C 228.773438 315.09375 228.132812 314.273438 227.472656 313.46875 C 226.8125 312.664062 226.132812 311.875 225.433594 311.101562 C 224.734375 310.332031 224.015625 309.574219 223.277344 308.839844 C 222.542969 308.101562 221.789062 307.382812 221.015625 306.683594 C 220.242188 305.984375 219.453125 305.304688 218.648438 304.644531 C 217.84375 303.984375 217.023438 303.34375 216.1875 302.722656 C 215.351562 302.101562 214.5 301.5 213.632812 300.921875 C 212.765625 300.34375 211.886719 299.785156 210.992188 299.25 C 210.097656 298.714844 209.191406 298.203125 208.273438 297.710938 C 207.355469 297.21875 206.425781 296.753906 205.484375 296.308594 C 204.542969 295.859375 203.589844 295.4375 202.628906 295.039062 C 201.664062 294.640625 200.691406 294.265625 199.710938 293.917969 C 198.730469 293.566406 197.742188 293.238281 196.746094 292.9375 C 195.75 292.632812 194.746094 292.355469 193.734375 292.101562 C 192.722656 291.851562 191.707031 291.621094 190.6875 291.417969 C 189.664062 291.214844 188.636719 291.035156 187.605469 290.882812 C 186.578125 290.730469 185.542969 290.605469 184.507812 290.5 C 183.46875 290.398438 182.429688 290.324219 181.390625 290.273438 C 180.351562 290.21875 179.308594 290.195312 178.265625 290.195312 Z M 146.441406 385.679688 L 146.441406 353.851562 C 146.441406 352.808594 146.492188 351.769531 146.59375 350.730469 C 146.695312 349.695312 146.847656 348.664062 147.050781 347.640625 C 147.253906 346.617188 147.507812 345.609375 147.808594 344.613281 C 148.113281 343.613281 148.464844 342.632812 148.863281 341.671875 C 149.261719 340.707031 149.707031 339.765625 150.199219 338.847656 C 150.6875 337.929688 151.222656 337.035156 151.804688 336.167969 C 152.382812 335.300781 153.003906 334.464844 153.664062 333.660156 C 154.324219 332.855469 155.023438 332.082031 155.761719 331.34375 C 156.5 330.609375 157.269531 329.910156 158.074219 329.246094 C 158.882812 328.585938 159.71875 327.964844 160.585938 327.386719 C 161.453125 326.808594 162.34375 326.273438 163.265625 325.78125 C 164.183594 325.289062 165.125 324.84375 166.085938 324.445312 C 167.050781 324.046875 168.03125 323.695312 169.027344 323.394531 C 170.027344 323.089844 171.035156 322.835938 172.058594 322.632812 C 173.082031 322.429688 174.109375 322.277344 175.148438 322.175781 C 176.183594 322.074219 177.226562 322.023438 178.265625 322.023438 C 179.308594 322.023438 180.347656 322.074219 181.386719 322.175781 C 182.425781 322.277344 183.453125 322.429688 184.476562 322.632812 C 185.5 322.835938 186.507812 323.089844 187.507812 323.394531 C 188.503906 323.695312 189.484375 324.046875 190.445312 324.445312 C 191.410156 324.84375 192.351562 325.289062 193.269531 325.78125 C 194.191406 326.273438 195.082031 326.808594 195.949219 327.386719 C 196.816406 327.964844 197.652344 328.585938 198.457031 329.246094 C 199.265625 329.910156 200.035156 330.609375 200.773438 331.34375 C 201.511719 332.082031 202.210938 332.855469 202.871094 333.660156 C 203.53125 334.464844 204.152344 335.300781 204.730469 336.167969 C 205.308594 337.035156 205.84375 337.929688 206.335938 338.847656 C 206.828125 339.765625 207.273438 340.707031 207.671875 341.671875 C 208.070312 342.632812 208.421875 343.613281 208.722656 344.613281 C 209.027344 345.609375 209.28125 346.617188 209.484375 347.640625 C 209.6875 348.664062 209.839844 349.695312 209.941406 350.730469 C 210.042969 351.769531 210.09375 352.808594 210.09375 353.851562 L 210.09375 385.679688 Z M 146.441406 385.679688 " fill-opacity="1" fill-rule="nonzero"/></svg>