<svg xmlns="http://www.w3.org/2000/svg" xmlns:xlink="http://www.w3.org/1999/xlink" width="900" zoomAndPan="magnify" viewBox="0 0 675 675.000002" height="900" preserveAspectRatio="xMidYMid meet" version="1.0"><defs><filter x="0%" y="0%" width="100%" height="100%" id="id1"><feColorMatrix values="0 0 0 0 1 0 0 0 0 1 0 0 0 0 1 0 0 0 1 0" color-interpolation-filters="sRGB"/></filter><clipPath id="id2"><path d="M 0.5 0 L 674.5 0 L 674.5 674 L 0.5 674 Z M 0.5 0 " clip-rule="nonzero"/></clipPath><clipPath id="id3"><path d="M 130 136 L 674.5 136 L 674.5 665 L 130 665 Z M 130 136 " clip-rule="nonzero"/></clipPath><mask id="id4"><g filter="url(#id1)"><rect x="-67.5" width="810" fill="#000000" y="-67.5" height="810.000002" fill-opacity="0.1176"/></g></mask><clipPath id="id5"><rect x="0" width="545" y="0" height="529"/></clipPath><clipPath id="id6"><path d="M 152.71875 136.90625 L 674.5 136.90625 L 674.5 163 L 152.71875 163 Z M 152.71875 136.90625 " clip-rule="nonzero"/></clipPath><clipPath id="id7"><path d="M 152.71875 165 L 674.5 165 L 674.5 192 L 152.71875 192 Z M 152.71875 165 " clip-rule="nonzero"/></clipPath><clipPath id="id8"><path d="M 152.71875 193 L 674.5 193 L 674.5 220 L 152.71875 220 Z M 152.71875 193 " clip-rule="nonzero"/></clipPath><clipPath id="id9"><path d="M 152.71875 222 L 674.5 222 L 674.5 248 L 152.71875 248 Z M 152.71875 222 " clip-rule="nonzero"/></clipPath><clipPath id="id10"><path d="M 152.71875 250 L 674.5 250 L 674.5 277 L 152.71875 277 Z M 152.71875 250 " clip-rule="nonzero"/></clipPath><clipPath id="id11"><path d="M 152.71875 278 L 674.5 278 L 674.5 305 L 152.71875 305 Z M 152.71875 278 " clip-rule="nonzero"/></clipPath><clipPath id="id12"><path d="M 152.71875 307 L 674.5 307 L 674.5 334 L 152.71875 334 Z M 152.71875 307 " clip-rule="nonzero"/></clipPath><clipPath id="id13"><path d="M 152.71875 335 L 674.5 335 L 674.5 362 L 152.71875 362 Z M 152.71875 335 " clip-rule="nonzero"/></clipPath><clipPath id="id14"><path d="M 152.71875 364 L 674.5 364 L 674.5 390 L 152.71875 390 Z M 152.71875 364 " clip-rule="nonzero"/></clipPath><clipPath id="id15"><path d="M 152.71875 392 L 674.5 392 L 674.5 419 L 152.71875 419 Z M 152.71875 392 " clip-rule="nonzero"/></clipPath><clipPath id="id16"><path d="M 152.71875 420 L 674.5 420 L 674.5 447 L 152.71875 447 Z M 152.71875 420 " clip-rule="nonzero"/></clipPath><clipPath id="id17"><path d="M 152.71875 449 L 674.5 449 L 674.5 476 L 152.71875 476 Z M 152.71875 449 " clip-rule="nonzero"/></clipPath><clipPath id="id18"><path d="M 152.71875 477 L 674.5 477 L 674.5 504 L 152.71875 504 Z M 152.71875 477 " clip-rule="nonzero"/></clipPath><clipPath id="id19"><path d="M 152.71875 506 L 674.5 506 L 674.5 532 L 152.71875 532 Z M 152.71875 506 " clip-rule="nonzero"/></clipPath><clipPath id="id20"><path d="M 152.71875 534 L 674.5 534 L 674.5 561 L 152.71875 561 Z M 152.71875 534 " clip-rule="nonzero"/></clipPath><clipPath id="id21"><path d="M 152.71875 562 L 674.5 562 L 674.5 589 L 152.71875 589 Z M 152.71875 562 " clip-rule="nonzero"/></clipPath><clipPath id="id22"><path d="M 152.71875 591 L 674.5 591 L 674.5 618 L 152.71875 618 Z M 152.71875 591 " clip-rule="nonzero"/></clipPath><clipPath id="id23"><path d="M 152.71875 619 L 674.5 619 L 674.5 645.402344 L 152.71875 645.402344 Z M 152.71875 619 " clip-rule="nonzero"/></clipPath><clipPath id="id24"><path d="M 42.113281 118 L 632.988281 118 L 632.988281 557 L 42.113281 557 Z M 42.113281 118 " clip-rule="nonzero"/></clipPath></defs><g clip-path="url(#id2)"><path fill="#ffffff" d="M 0.5 0 L 674.5 0 L 674.5 681.492188 L 0.5 681.492188 Z M 0.5 0 " fill-opacity="1" fill-rule="nonzero"/><path fill="#ffffff" d="M 0.5 0 L 674.5 0 L 674.5 674 L 0.5 674 Z M 0.5 0 " fill-opacity="1" fill-rule="nonzero"/><path fill="#ffffff" d="M 0.5 0 L 674.5 0 L 674.5 674 L 0.5 674 Z M 0.5 0 " fill-opacity="1" fill-rule="nonzero"/><path fill="#ffffff" d="M 0.5 0 L 674.5 0 L 674.5 674 L 0.5 674 Z M 0.5 0 " fill-opacity="1" fill-rule="nonzero"/></g><g clip-path="url(#id3)"><g mask="url(#id4)"><g transform="matrix(1, 0, 0, 1, 130, 136)"><g clip-path="url(#id5)"><path fill="#219aaa" d="M 81.867188 254.101562 C 1.363281 215.101562 0.953125 100.945312 80.929688 60.902344 C 180.699219 10.984375 318.828125 0.871094 456.378906 182.066406 C 456.378906 182.066406 544.515625 299.851562 382.855469 459.398438 C 313.949219 527.414062 197.289062 477.550781 199.367188 380.765625 C 200.261719 338.71875 176.566406 299.980469 138.6875 281.640625 Z M 81.867188 254.101562 " fill-opacity="1" fill-rule="nonzero"/></g></g></g></g><g clip-path="url(#id6)"><path fill="#ffffff" d="M 621.804688 162.695312 L 569.78125 140.851562 L 517.761719 162.695312 L 465.738281 140.851562 L 413.714844 162.695312 L 361.695312 140.851562 L 309.671875 162.695312 L 257.648438 140.851562 L 205.636719 162.695312 L 152.90625 140.5625 L 154.320312 137.207031 L 205.636719 158.75 L 257.648438 136.90625 L 309.671875 158.75 L 361.695312 136.90625 L 413.714844 158.75 L 465.738281 136.90625 L 517.761719 158.75 L 569.78125 136.90625 L 621.804688 158.75 L 673.128906 137.207031 L 674.539062 140.5625 Z M 621.804688 162.695312 " fill-opacity="1" fill-rule="nonzero"/></g><g clip-path="url(#id7)"><path fill="#ffffff" d="M 621.804688 191.089844 L 569.78125 169.25 L 517.761719 191.089844 L 465.738281 169.25 L 413.714844 191.089844 L 361.695312 169.25 L 309.671875 191.089844 L 257.648438 169.25 L 205.636719 191.089844 L 152.90625 168.957031 L 154.320312 165.601562 L 205.636719 187.144531 L 257.648438 165.300781 L 309.671875 187.144531 L 361.695312 165.300781 L 413.714844 187.144531 L 465.738281 165.300781 L 517.761719 187.144531 L 569.78125 165.300781 L 621.804688 187.144531 L 673.128906 165.601562 L 674.539062 168.957031 Z M 621.804688 191.089844 " fill-opacity="1" fill-rule="nonzero"/></g><g clip-path="url(#id8)"><path fill="#ffffff" d="M 621.804688 219.484375 L 569.78125 197.644531 L 517.761719 219.484375 L 465.738281 197.644531 L 413.714844 219.484375 L 361.695312 197.644531 L 309.671875 219.484375 L 257.648438 197.644531 L 205.636719 219.484375 L 152.90625 197.351562 L 154.320312 193.996094 L 205.636719 215.539062 L 257.648438 193.699219 L 309.671875 215.539062 L 361.695312 193.699219 L 413.714844 215.539062 L 465.738281 193.699219 L 517.761719 215.539062 L 569.78125 193.699219 L 621.804688 215.539062 L 673.128906 193.996094 L 674.539062 197.351562 Z M 621.804688 219.484375 " fill-opacity="1" fill-rule="nonzero"/></g><g clip-path="url(#id9)"><path fill="#ffffff" d="M 621.804688 247.882812 L 569.78125 226.039062 L 517.761719 247.882812 L 465.738281 226.039062 L 413.714844 247.882812 L 361.695312 226.039062 L 309.671875 247.882812 L 257.648438 226.039062 L 205.636719 247.882812 L 152.90625 225.746094 L 154.320312 222.390625 L 205.636719 243.933594 L 257.648438 222.09375 L 309.671875 243.933594 L 361.695312 222.09375 L 413.714844 243.933594 L 465.738281 222.09375 L 517.761719 243.933594 L 569.78125 222.09375 L 621.804688 243.933594 L 673.128906 222.390625 L 674.539062 225.746094 Z M 621.804688 247.882812 " fill-opacity="1" fill-rule="nonzero"/></g><g clip-path="url(#id10)"><path fill="#ffffff" d="M 621.804688 276.277344 L 569.78125 254.433594 L 517.761719 276.277344 L 465.738281 254.433594 L 413.714844 276.277344 L 361.695312 254.433594 L 309.671875 276.277344 L 257.648438 254.433594 L 205.636719 276.277344 L 152.90625 254.144531 L 154.320312 250.785156 L 205.636719 272.332031 L 257.648438 250.488281 L 309.671875 272.332031 L 361.695312 250.488281 L 413.714844 272.332031 L 465.738281 250.488281 L 517.761719 272.332031 L 569.78125 250.488281 L 621.804688 272.332031 L 673.128906 250.785156 L 674.539062 254.144531 Z M 621.804688 276.277344 " fill-opacity="1" fill-rule="nonzero"/></g><g clip-path="url(#id11)"><path fill="#ffffff" d="M 621.804688 304.671875 L 569.78125 282.828125 L 517.761719 304.671875 L 465.738281 282.828125 L 413.714844 304.671875 L 361.695312 282.828125 L 309.671875 304.671875 L 257.648438 282.828125 L 205.636719 304.671875 L 152.90625 282.539062 L 154.320312 279.183594 L 205.636719 300.726562 L 257.648438 278.882812 L 309.671875 300.726562 L 361.695312 278.882812 L 413.714844 300.726562 L 465.738281 278.882812 L 517.761719 300.726562 L 569.78125 278.882812 L 621.804688 300.726562 L 673.128906 279.183594 L 674.539062 282.539062 Z M 621.804688 304.671875 " fill-opacity="1" fill-rule="nonzero"/></g><g clip-path="url(#id12)"><path fill="#ffffff" d="M 621.804688 333.066406 L 569.78125 311.226562 L 517.761719 333.066406 L 465.738281 311.226562 L 413.714844 333.066406 L 361.695312 311.226562 L 309.671875 333.066406 L 257.648438 311.226562 L 205.636719 333.066406 L 152.90625 310.933594 L 154.320312 307.578125 L 205.636719 329.121094 L 257.648438 307.277344 L 309.671875 329.121094 L 361.695312 307.277344 L 413.714844 329.121094 L 465.738281 307.277344 L 517.761719 329.121094 L 569.78125 307.277344 L 621.804688 329.121094 L 673.128906 307.578125 L 674.539062 310.933594 Z M 621.804688 333.066406 " fill-opacity="1" fill-rule="nonzero"/></g><g clip-path="url(#id13)"><path fill="#ffffff" d="M 621.804688 361.464844 L 569.78125 339.621094 L 517.761719 361.464844 L 465.738281 339.621094 L 413.714844 361.464844 L 361.695312 339.621094 L 309.671875 361.464844 L 257.648438 339.621094 L 205.636719 361.464844 L 152.90625 339.328125 L 154.320312 335.972656 L 205.636719 357.515625 L 257.648438 335.675781 L 309.671875 357.515625 L 361.695312 335.675781 L 413.714844 357.515625 L 465.738281 335.675781 L 517.761719 357.515625 L 569.78125 335.675781 L 621.804688 357.515625 L 673.128906 335.972656 L 674.539062 339.328125 Z M 621.804688 361.464844 " fill-opacity="1" fill-rule="nonzero"/></g><g clip-path="url(#id14)"><path fill="#ffffff" d="M 621.804688 389.859375 L 569.78125 368.015625 L 517.761719 389.859375 L 465.738281 368.015625 L 413.714844 389.859375 L 361.695312 368.015625 L 309.671875 389.859375 L 257.648438 368.015625 L 205.636719 389.859375 L 152.90625 367.726562 L 154.320312 364.367188 L 205.636719 385.914062 L 257.648438 364.070312 L 309.671875 385.914062 L 361.695312 364.070312 L 413.714844 385.914062 L 465.738281 364.070312 L 517.761719 385.914062 L 569.78125 364.070312 L 621.804688 385.914062 L 673.128906 364.367188 L 674.539062 367.726562 Z M 621.804688 389.859375 " fill-opacity="1" fill-rule="nonzero"/></g><g clip-path="url(#id15)"><path fill="#ffffff" d="M 621.804688 418.253906 L 569.78125 396.410156 L 517.761719 418.253906 L 465.738281 396.410156 L 413.714844 418.253906 L 361.695312 396.410156 L 309.671875 418.253906 L 257.648438 396.410156 L 205.636719 418.253906 L 152.90625 396.121094 L 154.320312 392.765625 L 205.636719 414.308594 L 257.648438 392.464844 L 309.671875 414.308594 L 361.695312 392.464844 L 413.714844 414.308594 L 465.738281 392.464844 L 517.761719 414.308594 L 569.78125 392.464844 L 621.804688 414.308594 L 673.128906 392.765625 L 674.539062 396.121094 Z M 621.804688 418.253906 " fill-opacity="1" fill-rule="nonzero"/></g><g clip-path="url(#id16)"><path fill="#ffffff" d="M 621.804688 446.648438 L 569.78125 424.808594 L 517.761719 446.648438 L 465.738281 424.808594 L 413.714844 446.648438 L 361.695312 424.808594 L 309.671875 446.648438 L 257.648438 424.808594 L 205.636719 446.648438 L 152.90625 424.515625 L 154.320312 421.160156 L 205.636719 442.703125 L 257.648438 420.859375 L 309.671875 442.703125 L 361.695312 420.859375 L 413.714844 442.703125 L 465.738281 420.859375 L 517.761719 442.703125 L 569.78125 420.859375 L 621.804688 442.703125 L 673.128906 421.160156 L 674.539062 424.515625 Z M 621.804688 446.648438 " fill-opacity="1" fill-rule="nonzero"/></g><g clip-path="url(#id17)"><path fill="#ffffff" d="M 621.804688 475.046875 L 569.78125 453.203125 L 517.761719 475.046875 L 465.738281 453.203125 L 413.714844 475.046875 L 361.695312 453.203125 L 309.671875 475.046875 L 257.648438 453.203125 L 205.636719 475.046875 L 152.90625 452.910156 L 154.320312 449.554688 L 205.636719 471.097656 L 257.648438 449.257812 L 309.671875 471.097656 L 361.695312 449.257812 L 413.714844 471.097656 L 465.738281 449.257812 L 517.761719 471.097656 L 569.78125 449.257812 L 621.804688 471.097656 L 673.128906 449.554688 L 674.539062 452.910156 Z M 621.804688 475.046875 " fill-opacity="1" fill-rule="nonzero"/></g><g clip-path="url(#id18)"><path fill="#ffffff" d="M 621.804688 503.441406 L 569.78125 481.597656 L 517.761719 503.441406 L 465.738281 481.597656 L 413.714844 503.441406 L 361.695312 481.597656 L 309.671875 503.441406 L 257.648438 481.597656 L 205.636719 503.441406 L 152.90625 481.308594 L 154.320312 477.949219 L 205.636719 499.496094 L 257.648438 477.652344 L 309.671875 499.496094 L 361.695312 477.652344 L 413.714844 499.496094 L 465.738281 477.652344 L 517.761719 499.496094 L 569.78125 477.652344 L 621.804688 499.496094 L 673.128906 477.949219 L 674.539062 481.308594 Z M 621.804688 503.441406 " fill-opacity="1" fill-rule="nonzero"/></g><g clip-path="url(#id19)"><path fill="#ffffff" d="M 621.804688 531.835938 L 569.78125 509.992188 L 517.761719 531.835938 L 465.738281 509.992188 L 413.714844 531.835938 L 361.695312 509.992188 L 309.671875 531.835938 L 257.648438 509.992188 L 205.636719 531.835938 L 152.90625 509.703125 L 154.320312 506.34375 L 205.636719 527.890625 L 257.648438 506.046875 L 309.671875 527.890625 L 361.695312 506.046875 L 413.714844 527.890625 L 465.738281 506.046875 L 517.761719 527.890625 L 569.78125 506.046875 L 621.804688 527.890625 L 673.128906 506.34375 L 674.539062 509.703125 Z M 621.804688 531.835938 " fill-opacity="1" fill-rule="nonzero"/></g><g clip-path="url(#id20)"><path fill="#ffffff" d="M 621.804688 560.230469 L 569.78125 538.390625 L 517.761719 560.230469 L 465.738281 538.390625 L 413.714844 560.230469 L 361.695312 538.390625 L 309.671875 560.230469 L 257.648438 538.390625 L 205.636719 560.230469 L 152.90625 538.097656 L 154.320312 534.742188 L 205.636719 556.285156 L 257.648438 534.441406 L 309.671875 556.285156 L 361.695312 534.441406 L 413.714844 556.285156 L 465.738281 534.441406 L 517.761719 556.285156 L 569.78125 534.441406 L 621.804688 556.285156 L 673.128906 534.742188 L 674.539062 538.097656 Z M 621.804688 560.230469 " fill-opacity="1" fill-rule="nonzero"/></g><g clip-path="url(#id21)"><path fill="#ffffff" d="M 621.804688 588.625 L 569.78125 566.785156 L 517.761719 588.625 L 465.738281 566.785156 L 413.714844 588.625 L 361.695312 566.785156 L 309.671875 588.625 L 257.648438 566.785156 L 205.636719 588.625 L 152.90625 566.492188 L 154.320312 563.136719 L 205.636719 584.679688 L 257.648438 562.839844 L 309.671875 584.679688 L 361.695312 562.839844 L 413.714844 584.679688 L 465.738281 562.839844 L 517.761719 584.679688 L 569.78125 562.839844 L 621.804688 584.679688 L 673.128906 563.136719 L 674.539062 566.492188 Z M 621.804688 588.625 " fill-opacity="1" fill-rule="nonzero"/></g><g clip-path="url(#id22)"><path fill="#ffffff" d="M 621.804688 617.023438 L 569.78125 595.179688 L 517.761719 617.023438 L 465.738281 595.179688 L 413.714844 617.023438 L 361.695312 595.179688 L 309.671875 617.023438 L 257.648438 595.179688 L 205.636719 617.023438 L 152.90625 594.886719 L 154.320312 591.53125 L 205.636719 613.074219 L 257.648438 591.234375 L 309.671875 613.074219 L 361.695312 591.234375 L 413.714844 613.074219 L 465.738281 591.234375 L 517.761719 613.074219 L 569.78125 591.234375 L 621.804688 613.074219 L 673.128906 591.53125 L 674.539062 594.886719 Z M 621.804688 617.023438 " fill-opacity="1" fill-rule="nonzero"/></g><g clip-path="url(#id23)"><path fill="#ffffff" d="M 621.804688 645.417969 L 569.78125 623.574219 L 517.761719 645.417969 L 465.738281 623.574219 L 413.714844 645.417969 L 361.695312 623.574219 L 309.671875 645.417969 L 257.648438 623.574219 L 205.636719 645.417969 L 152.90625 623.285156 L 154.320312 619.925781 L 205.636719 641.472656 L 257.648438 619.628906 L 309.671875 641.472656 L 361.695312 619.628906 L 413.714844 641.472656 L 465.738281 619.628906 L 517.761719 641.472656 L 569.78125 619.628906 L 621.804688 641.472656 L 673.128906 619.925781 L 674.539062 623.285156 Z M 621.804688 645.417969 " fill-opacity="1" fill-rule="nonzero"/></g><g clip-path="url(#id24)"><path fill="#000000" d="M 547.316406 355.605469 C 545.917969 355.605469 544.515625 355.640625 543.121094 355.710938 C 541.722656 355.777344 540.324219 355.878906 538.933594 356.019531 C 537.539062 356.15625 536.148438 356.328125 534.765625 356.53125 C 533.378906 356.738281 532 356.976562 530.628906 357.25 C 529.253906 357.523438 527.890625 357.832031 526.53125 358.171875 C 525.175781 358.511719 523.824219 358.882812 522.484375 359.289062 C 521.144531 359.695312 519.816406 360.136719 518.5 360.609375 C 517.179688 361.078125 515.875 361.582031 514.582031 362.121094 C 513.289062 362.65625 512.007812 363.222656 510.742188 363.820312 C 509.476562 364.421875 508.226562 365.050781 506.992188 365.710938 C 505.757812 366.371094 504.542969 367.058594 503.339844 367.78125 C 502.140625 368.5 500.957031 369.25 499.792969 370.027344 C 498.628906 370.804688 497.484375 371.609375 496.359375 372.445312 C 495.238281 373.277344 494.132812 374.140625 493.050781 375.027344 C 491.96875 375.917969 490.910156 376.832031 489.871094 377.773438 C 488.835938 378.710938 487.820312 379.675781 486.832031 380.667969 C 485.839844 381.65625 484.875 382.671875 483.9375 383.710938 C 482.996094 384.746094 482.082031 385.808594 481.195312 386.890625 C 480.304688 387.972656 479.445312 389.074219 478.609375 390.199219 C 477.777344 391.324219 476.972656 392.46875 476.195312 393.632812 C 475.414062 394.796875 474.667969 395.980469 473.949219 397.183594 C 473.226562 398.382812 472.539062 399.601562 471.878906 400.835938 C 471.21875 402.070312 470.589844 403.324219 469.992188 404.589844 C 469.390625 405.855469 468.824219 407.132812 468.289062 408.429688 C 467.753906 409.722656 467.25 411.027344 466.777344 412.347656 C 466.304688 413.664062 465.867188 414.992188 465.460938 416.335938 C 465.054688 417.675781 464.679688 419.023438 464.339844 420.382812 C 464 421.738281 463.695312 423.105469 463.421875 424.480469 C 463.148438 425.851562 462.910156 427.230469 462.703125 428.617188 C 462.5 430.003906 462.328125 431.390625 462.191406 432.785156 C 462.050781 434.179688 461.949219 435.574219 461.878906 436.972656 C 461.8125 438.371094 461.777344 439.773438 461.777344 441.171875 C 461.777344 442.574219 461.8125 443.972656 461.878906 445.371094 C 461.949219 446.769531 462.050781 448.167969 462.191406 449.558594 C 462.328125 450.953125 462.5 452.34375 462.703125 453.726562 C 462.910156 455.113281 463.148438 456.492188 463.421875 457.867188 C 463.695312 459.238281 464 460.605469 464.339844 461.964844 C 464.679688 463.320312 465.054688 464.671875 465.460938 466.011719 C 465.867188 467.351562 466.304688 468.679688 466.777344 470 C 467.25 471.316406 467.753906 472.625 468.289062 473.917969 C 468.824219 475.210938 469.390625 476.492188 469.992188 477.757812 C 470.589844 479.023438 471.21875 480.273438 471.878906 481.507812 C 472.539062 482.742188 473.226562 483.960938 473.949219 485.164062 C 474.667969 486.363281 475.414062 487.546875 476.195312 488.710938 C 476.972656 489.875 477.777344 491.019531 478.609375 492.144531 C 479.445312 493.269531 480.304688 494.371094 481.195312 495.457031 C 482.082031 496.539062 482.996094 497.597656 483.9375 498.636719 C 484.875 499.671875 485.839844 500.6875 486.832031 501.675781 C 487.820312 502.667969 488.835938 503.632812 489.871094 504.574219 C 490.910156 505.515625 491.96875 506.429688 493.050781 507.316406 C 494.132812 508.203125 495.238281 509.066406 496.359375 509.902344 C 497.484375 510.734375 498.628906 511.539062 499.792969 512.320312 C 500.957031 513.097656 502.140625 513.84375 503.339844 514.566406 C 504.542969 515.285156 505.757812 515.976562 506.992188 516.636719 C 508.226562 517.296875 509.476562 517.925781 510.742188 518.523438 C 512.007812 519.121094 513.289062 519.691406 514.582031 520.226562 C 515.875 520.761719 517.179688 521.265625 518.5 521.738281 C 519.816406 522.210938 521.144531 522.648438 522.484375 523.054688 C 523.824219 523.460938 525.175781 523.835938 526.53125 524.175781 C 527.890625 524.515625 529.253906 524.820312 530.628906 525.09375 C 532 525.367188 533.378906 525.609375 534.765625 525.8125 C 536.148438 526.019531 537.539062 526.191406 538.933594 526.328125 C 540.324219 526.464844 541.722656 526.566406 543.121094 526.636719 C 544.515625 526.703125 545.917969 526.738281 547.316406 526.738281 C 548.714844 526.738281 550.117188 526.703125 551.511719 526.636719 C 552.910156 526.566406 554.308594 526.464844 555.699219 526.328125 C 557.09375 526.191406 558.484375 526.019531 559.867188 525.8125 C 561.253906 525.609375 562.632812 525.367188 564.003906 525.09375 C 565.378906 524.820312 566.742188 524.515625 568.101562 524.175781 C 569.457031 523.835938 570.808594 523.460938 572.148438 523.054688 C 573.488281 522.648438 574.816406 522.210938 576.132812 521.738281 C 577.453125 521.265625 578.757812 520.761719 580.050781 520.226562 C 581.34375 519.691406 582.625 519.121094 583.890625 518.523438 C 585.15625 517.925781 586.40625 517.296875 587.640625 516.636719 C 588.875 515.976562 590.089844 515.285156 591.292969 514.566406 C 592.492188 513.84375 593.675781 513.097656 594.839844 512.320312 C 596.003906 511.539062 597.148438 510.734375 598.273438 509.898438 C 599.394531 509.066406 600.5 508.203125 601.582031 507.316406 C 602.664062 506.429688 603.722656 505.515625 604.761719 504.574219 C 605.796875 503.632812 606.8125 502.667969 607.800781 501.675781 C 608.792969 500.6875 609.757812 499.671875 610.695312 498.636719 C 611.636719 497.597656 612.550781 496.539062 613.4375 495.457031 C 614.328125 494.371094 615.1875 493.269531 616.023438 492.144531 C 616.855469 491.019531 617.660156 489.875 618.4375 488.710938 C 619.21875 487.546875 619.964844 486.363281 620.683594 485.164062 C 621.40625 483.960938 622.09375 482.742188 622.753906 481.507812 C 623.414062 480.273438 624.042969 479.023438 624.640625 477.757812 C 625.242188 476.492188 625.808594 475.210938 626.34375 473.917969 C 626.878906 472.625 627.382812 471.316406 627.855469 470 C 628.328125 468.679688 628.765625 467.351562 629.171875 466.011719 C 629.578125 464.671875 629.953125 463.320312 630.292969 461.964844 C 630.632812 460.605469 630.9375 459.238281 631.210938 457.867188 C 631.484375 456.492188 631.722656 455.113281 631.929688 453.726562 C 632.132812 452.34375 632.304688 450.953125 632.441406 449.558594 C 632.582031 448.167969 632.683594 446.769531 632.753906 445.371094 C 632.820312 443.972656 632.855469 442.574219 632.855469 441.171875 C 632.855469 439.773438 632.816406 438.375 632.746094 436.976562 C 632.675781 435.578125 632.574219 434.179688 632.433594 432.789062 C 632.296875 431.394531 632.125 430.007812 631.917969 428.621094 C 631.710938 427.238281 631.46875 425.859375 631.195312 424.484375 C 630.921875 423.113281 630.613281 421.746094 630.273438 420.390625 C 629.933594 419.03125 629.558594 417.683594 629.152344 416.34375 C 628.742188 415.003906 628.304688 413.675781 627.832031 412.359375 C 627.359375 411.039062 626.855469 409.734375 626.320312 408.441406 C 625.78125 407.148438 625.214844 405.871094 624.617188 404.605469 C 624.015625 403.339844 623.386719 402.089844 622.726562 400.855469 C 622.066406 399.621094 621.378906 398.402344 620.65625 397.203125 C 619.9375 396.003906 619.1875 394.820312 618.410156 393.65625 C 617.632812 392.492188 616.828125 391.347656 615.992188 390.222656 C 615.160156 389.101562 614.296875 387.996094 613.410156 386.914062 C 612.523438 385.832031 611.609375 384.773438 610.667969 383.734375 C 609.730469 382.699219 608.765625 381.683594 607.773438 380.695312 C 606.785156 379.703125 605.773438 378.738281 604.734375 377.800781 C 603.699219 376.859375 602.636719 375.945312 601.558594 375.058594 C 600.476562 374.167969 599.371094 373.308594 598.25 372.472656 C 597.125 371.640625 595.980469 370.832031 594.816406 370.054688 C 593.652344 369.277344 592.472656 368.527344 591.273438 367.808594 C 590.070312 367.085938 588.855469 366.398438 587.621094 365.738281 C 586.386719 365.078125 585.136719 364.445312 583.871094 363.847656 C 582.609375 363.25 581.328125 362.679688 580.035156 362.144531 C 578.742188 361.609375 577.4375 361.101562 576.121094 360.628906 C 574.804688 360.160156 573.476562 359.71875 572.136719 359.3125 C 570.796875 358.902344 569.449219 358.53125 568.09375 358.1875 C 566.734375 357.847656 565.371094 357.539062 563.996094 357.265625 C 562.625 356.992188 561.246094 356.75 559.863281 356.542969 C 558.480469 356.335938 557.089844 356.164062 555.699219 356.027344 C 554.304688 355.886719 552.910156 355.785156 551.511719 355.714844 C 550.113281 355.644531 548.714844 355.609375 547.316406 355.605469 Z M 547.316406 513.574219 C 546.132812 513.574219 544.949219 513.546875 543.765625 513.488281 C 542.582031 513.429688 541.402344 513.34375 540.222656 513.226562 C 539.042969 513.109375 537.867188 512.964844 536.695312 512.792969 C 535.523438 512.617188 534.359375 512.414062 533.195312 512.183594 C 532.035156 511.953125 530.878906 511.691406 529.730469 511.40625 C 528.582031 511.117188 527.441406 510.800781 526.304688 510.457031 C 525.171875 510.113281 524.046875 509.742188 522.933594 509.34375 C 521.816406 508.945312 520.710938 508.515625 519.617188 508.0625 C 518.523438 507.609375 517.441406 507.128906 516.371094 506.625 C 515.300781 506.117188 514.242188 505.585938 513.195312 505.027344 C 512.152344 504.46875 511.121094 503.882812 510.105469 503.273438 C 509.089844 502.664062 508.089844 502.03125 507.105469 501.375 C 506.121094 500.714844 505.152344 500.03125 504.199219 499.328125 C 503.25 498.621094 502.316406 497.890625 501.398438 497.140625 C 500.484375 496.390625 499.585938 495.613281 498.710938 494.820312 C 497.832031 494.023438 496.972656 493.207031 496.136719 492.367188 C 495.300781 491.53125 494.484375 490.671875 493.6875 489.796875 C 492.890625 488.917969 492.117188 488.019531 491.367188 487.105469 C 490.617188 486.1875 489.886719 485.253906 489.179688 484.304688 C 488.476562 483.351562 487.792969 482.382812 487.136719 481.398438 C 486.476562 480.414062 485.84375 479.410156 485.234375 478.394531 C 484.625 477.378906 484.042969 476.347656 483.484375 475.304688 C 482.925781 474.257812 482.394531 473.199219 481.886719 472.128906 C 481.378906 471.058594 480.898438 469.976562 480.445312 468.878906 C 479.992188 467.785156 479.566406 466.679688 479.167969 465.5625 C 478.769531 464.449219 478.398438 463.324219 478.054688 462.191406 C 477.710938 461.054688 477.394531 459.914062 477.105469 458.765625 C 476.820312 457.617188 476.558594 456.460938 476.328125 455.296875 C 476.097656 454.136719 475.894531 452.96875 475.722656 451.796875 C 475.546875 450.625 475.402344 449.449219 475.285156 448.269531 C 475.167969 447.089844 475.082031 445.910156 475.023438 444.726562 C 474.964844 443.542969 474.9375 442.359375 474.9375 441.171875 C 474.9375 439.988281 474.964844 438.804688 475.023438 437.621094 C 475.082031 436.4375 475.167969 435.253906 475.285156 434.074219 C 475.402344 432.898438 475.546875 431.722656 475.722656 430.550781 C 475.894531 429.375 476.097656 428.210938 476.328125 427.046875 C 476.558594 425.886719 476.820312 424.730469 477.105469 423.582031 C 477.394531 422.429688 477.710938 421.289062 478.054688 420.15625 C 478.398438 419.019531 478.769531 417.898438 479.167969 416.78125 C 479.566406 415.664062 479.992188 414.558594 480.445312 413.464844 C 480.898438 412.371094 481.378906 411.289062 481.886719 410.214844 C 482.394531 409.144531 482.925781 408.085938 483.484375 407.042969 C 484.042969 405.996094 484.625 404.964844 485.234375 403.949219 C 485.84375 402.933594 486.476562 401.933594 487.136719 400.949219 C 487.792969 399.960938 488.476562 398.996094 489.179688 398.042969 C 489.886719 397.089844 490.617188 396.15625 491.367188 395.242188 C 492.117188 394.324219 492.890625 393.429688 493.6875 392.550781 C 494.484375 391.671875 495.300781 390.8125 496.136719 389.976562 C 496.972656 389.136719 497.832031 388.320312 498.710938 387.527344 C 499.585938 386.730469 500.484375 385.957031 501.398438 385.203125 C 502.316406 384.453125 503.25 383.722656 504.199219 383.019531 C 505.152344 382.3125 506.121094 381.628906 507.105469 380.972656 C 508.089844 380.3125 509.089844 379.679688 510.105469 379.070312 C 511.121094 378.460938 512.152344 377.878906 513.195312 377.320312 C 514.242188 376.761719 515.300781 376.226562 516.371094 375.722656 C 517.441406 375.214844 518.523438 374.734375 519.617188 374.28125 C 520.710938 373.828125 521.816406 373.402344 522.933594 373.003906 C 524.046875 372.601562 525.171875 372.230469 526.304688 371.886719 C 527.441406 371.542969 528.582031 371.226562 529.730469 370.941406 C 530.878906 370.652344 532.035156 370.390625 533.195312 370.160156 C 534.359375 369.929688 535.523438 369.726562 536.695312 369.554688 C 537.867188 369.378906 539.042969 369.234375 540.222656 369.117188 C 541.402344 369.003906 542.582031 368.914062 543.765625 368.855469 C 544.949219 368.800781 546.132812 368.769531 547.316406 368.769531 C 548.5 368.769531 549.683594 368.800781 550.867188 368.855469 C 552.050781 368.914062 553.230469 369.003906 554.410156 369.117188 C 555.589844 369.234375 556.765625 369.378906 557.9375 369.554688 C 559.109375 369.726562 560.273438 369.929688 561.4375 370.160156 C 562.597656 370.390625 563.753906 370.652344 564.902344 370.941406 C 566.050781 371.226562 567.191406 371.542969 568.328125 371.886719 C 569.460938 372.230469 570.585938 372.601562 571.699219 373.003906 C 572.816406 373.402344 573.921875 373.828125 575.015625 374.28125 C 576.109375 374.734375 577.191406 375.214844 578.261719 375.722656 C 579.332031 376.226562 580.390625 376.761719 581.4375 377.320312 C 582.480469 377.878906 583.511719 378.460938 584.527344 379.070312 C 585.542969 379.679688 586.542969 380.3125 587.527344 380.972656 C 588.511719 381.628906 589.480469 382.3125 590.433594 383.019531 C 591.382812 383.722656 592.316406 384.453125 593.234375 385.203125 C 594.148438 385.957031 595.046875 386.730469 595.921875 387.527344 C 596.800781 388.320312 597.660156 389.136719 598.496094 389.976562 C 599.332031 390.8125 600.148438 391.671875 600.945312 392.550781 C 601.742188 393.429688 602.515625 394.324219 603.265625 395.242188 C 604.015625 396.15625 604.746094 397.089844 605.453125 398.042969 C 606.15625 398.996094 606.839844 399.960938 607.496094 400.949219 C 608.15625 401.933594 608.789062 402.933594 609.398438 403.949219 C 610.007812 404.964844 610.589844 405.996094 611.148438 407.042969 C 611.707031 408.085938 612.238281 409.144531 612.746094 410.214844 C 613.253906 411.289062 613.734375 412.371094 614.1875 413.464844 C 614.640625 414.558594 615.066406 415.664062 615.464844 416.78125 C 615.863281 417.898438 616.234375 419.019531 616.578125 420.15625 C 616.921875 421.289062 617.238281 422.429688 617.527344 423.582031 C 617.8125 424.730469 618.074219 425.886719 618.304688 427.046875 C 618.535156 428.210938 618.738281 429.375 618.910156 430.550781 C 619.085938 431.722656 619.230469 432.898438 619.347656 434.074219 C 619.460938 435.253906 619.550781 436.4375 619.609375 437.621094 C 619.667969 438.804688 619.695312 439.988281 619.695312 441.171875 C 619.695312 442.355469 619.664062 443.542969 619.605469 444.722656 C 619.546875 445.90625 619.457031 447.089844 619.339844 448.265625 C 619.222656 449.445312 619.078125 450.621094 618.902344 451.792969 C 618.726562 452.964844 618.523438 454.128906 618.292969 455.292969 C 618.058594 456.453125 617.800781 457.609375 617.511719 458.757812 C 617.222656 459.90625 616.90625 461.046875 616.5625 462.179688 C 616.214844 463.316406 615.84375 464.4375 615.445312 465.554688 C 615.046875 466.667969 614.617188 467.773438 614.164062 468.867188 C 613.710938 469.960938 613.230469 471.042969 612.722656 472.113281 C 612.21875 473.183594 611.683594 474.242188 611.125 475.289062 C 610.566406 476.332031 609.984375 477.363281 609.375 478.378906 C 608.765625 479.394531 608.132812 480.394531 607.472656 481.378906 C 606.816406 482.363281 606.132812 483.332031 605.425781 484.28125 C 604.722656 485.234375 603.992188 486.167969 603.242188 487.082031 C 602.492188 488 601.71875 488.894531 600.921875 489.773438 C 600.125 490.652344 599.308594 491.507812 598.472656 492.347656 C 597.636719 493.183594 596.777344 494 595.902344 494.796875 C 595.023438 495.589844 594.128906 496.363281 593.210938 497.117188 C 592.296875 497.867188 591.363281 498.597656 590.414062 499.300781 C 589.460938 500.007812 588.492188 500.691406 587.507812 501.347656 C 586.523438 502.007812 585.523438 502.640625 584.507812 503.25 C 583.492188 503.859375 582.464844 504.445312 581.421875 505.003906 C 580.375 505.5625 579.320312 506.09375 578.25 506.601562 C 577.179688 507.109375 576.097656 507.589844 575.003906 508.042969 C 573.910156 508.496094 572.804688 508.921875 571.691406 509.324219 C 570.574219 509.722656 569.449219 510.09375 568.316406 510.441406 C 567.183594 510.785156 566.042969 511.101562 564.894531 511.390625 C 563.746094 511.679688 562.59375 511.9375 561.429688 512.171875 C 560.269531 512.402344 559.105469 512.605469 557.933594 512.78125 C 556.761719 512.957031 555.585938 513.101562 554.410156 513.21875 C 553.230469 513.335938 552.050781 513.425781 550.867188 513.484375 C 549.683594 513.542969 548.5 513.574219 547.316406 513.574219 Z M 539.089844 426.363281 C 539.089844 426.902344 539.144531 427.4375 539.25 427.96875 C 539.355469 428.5 539.511719 429.011719 539.71875 429.511719 C 539.925781 430.011719 540.175781 430.484375 540.476562 430.933594 C 540.777344 431.382812 541.117188 431.800781 541.5 432.179688 C 541.882812 432.5625 542.296875 432.902344 542.746094 433.203125 C 543.195312 433.503906 543.667969 433.757812 544.167969 433.964844 C 544.667969 434.171875 545.183594 434.328125 545.710938 434.433594 C 546.242188 434.539062 546.777344 434.589844 547.316406 434.589844 C 548.578125 434.589844 549.828125 434.695312 551.070312 434.917969 C 552.3125 435.136719 553.527344 435.464844 554.710938 435.898438 C 555.894531 436.332031 557.03125 436.871094 558.121094 437.507812 C 559.210938 438.144531 560.234375 438.871094 561.195312 439.691406 C 562.15625 440.507812 563.035156 441.40625 563.835938 442.378906 C 564.636719 443.355469 565.347656 444.394531 565.964844 445.496094 C 566.578125 446.59375 567.09375 447.742188 567.507812 448.933594 C 567.921875 450.125 568.226562 451.34375 568.425781 452.59375 C 568.621094 453.839844 568.707031 455.09375 568.679688 456.355469 C 568.65625 457.617188 568.519531 458.867188 568.273438 460.101562 C 568.023438 461.339844 567.671875 462.546875 567.210938 463.722656 C 566.75 464.894531 566.1875 466.019531 565.527344 467.097656 C 564.867188 468.171875 564.117188 469.179688 563.277344 470.121094 C 562.4375 471.0625 561.519531 471.921875 560.527344 472.703125 C 559.535156 473.480469 558.480469 474.167969 557.367188 474.761719 C 556.253906 475.351562 555.097656 475.84375 553.894531 476.230469 L 553.894531 489.8125 C 553.894531 490.246094 553.855469 490.675781 553.769531 491.097656 C 553.683594 491.523438 553.5625 491.933594 553.394531 492.332031 C 553.230469 492.730469 553.027344 493.113281 552.789062 493.472656 C 552.546875 493.828125 552.273438 494.164062 551.96875 494.46875 C 551.664062 494.773438 551.332031 495.046875 550.972656 495.285156 C 550.613281 495.527344 550.234375 495.730469 549.835938 495.894531 C 549.433594 496.058594 549.023438 496.183594 548.601562 496.269531 C 548.175781 496.355469 547.75 496.394531 547.316406 496.394531 C 546.882812 496.394531 546.457031 496.355469 546.03125 496.269531 C 545.609375 496.183594 545.199219 496.058594 544.796875 495.894531 C 544.398438 495.730469 544.019531 495.527344 543.660156 495.285156 C 543.300781 495.046875 542.96875 494.773438 542.664062 494.46875 C 542.359375 494.164062 542.085938 493.828125 541.84375 493.472656 C 541.605469 493.113281 541.402344 492.730469 541.238281 492.332031 C 541.070312 491.933594 540.945312 491.523438 540.863281 491.097656 C 540.777344 490.675781 540.738281 490.246094 540.738281 489.8125 L 540.738281 476.230469 C 539.671875 475.886719 538.640625 475.460938 537.640625 474.957031 C 536.640625 474.453125 535.6875 473.871094 534.78125 473.214844 C 533.875 472.5625 533.023438 471.839844 532.230469 471.050781 C 531.433594 470.261719 530.707031 469.414062 530.046875 468.511719 C 529.386719 467.605469 528.800781 466.65625 528.289062 465.660156 C 527.777344 464.664062 527.347656 463.636719 527 462.574219 C 526.648438 461.507812 526.382812 460.425781 526.207031 459.320312 C 526.027344 458.214844 525.9375 457.101562 525.933594 455.980469 C 525.933594 455.324219 525.933594 454.707031 526.015625 454.082031 C 526.046875 453.644531 526.121094 453.214844 526.238281 452.792969 C 526.351562 452.371094 526.507812 451.964844 526.703125 451.574219 C 526.902344 451.183594 527.136719 450.816406 527.40625 450.472656 C 527.675781 450.128906 527.976562 449.816406 528.308594 449.53125 C 528.640625 449.246094 528.996094 449 529.378906 448.785156 C 529.761719 448.574219 530.160156 448.402344 530.578125 448.269531 C 530.992188 448.132812 531.417969 448.042969 531.851562 447.996094 C 532.285156 447.945312 532.722656 447.941406 533.15625 447.980469 C 533.59375 448.019531 534.019531 448.097656 534.4375 448.222656 C 534.859375 448.347656 535.261719 448.507812 535.648438 448.714844 C 536.035156 448.917969 536.398438 449.15625 536.738281 449.433594 C 537.074219 449.710938 537.382812 450.015625 537.660156 450.355469 C 537.9375 450.691406 538.179688 451.054688 538.386719 451.4375 C 538.59375 451.824219 538.757812 452.226562 538.882812 452.644531 C 539.007812 453.0625 539.09375 453.492188 539.132812 453.925781 C 539.171875 454.363281 539.171875 454.796875 539.125 455.230469 C 539.101562 455.480469 539.089844 455.730469 539.089844 455.980469 C 539.089844 456.523438 539.144531 457.058594 539.25 457.585938 C 539.355469 458.117188 539.511719 458.632812 539.71875 459.128906 C 539.925781 459.628906 540.175781 460.105469 540.476562 460.554688 C 540.777344 461.003906 541.117188 461.417969 541.5 461.800781 C 541.882812 462.183594 542.296875 462.523438 542.746094 462.824219 C 543.195312 463.125 543.667969 463.375 544.167969 463.582031 C 544.667969 463.789062 545.183594 463.945312 545.710938 464.050781 C 546.242188 464.15625 546.777344 464.210938 547.316406 464.210938 C 547.855469 464.210938 548.390625 464.15625 548.921875 464.050781 C 549.449219 463.945312 549.964844 463.789062 550.464844 463.582031 C 550.960938 463.375 551.4375 463.125 551.886719 462.824219 C 552.335938 462.523438 552.75 462.183594 553.132812 461.800781 C 553.515625 461.417969 553.855469 461.003906 554.15625 460.554688 C 554.457031 460.105469 554.707031 459.628906 554.914062 459.128906 C 555.121094 458.632812 555.277344 458.117188 555.382812 457.585938 C 555.488281 457.058594 555.542969 456.523438 555.542969 455.980469 C 555.542969 455.441406 555.488281 454.90625 555.382812 454.378906 C 555.277344 453.847656 555.121094 453.332031 554.914062 452.832031 C 554.707031 452.335938 554.457031 451.859375 554.15625 451.410156 C 553.855469 450.960938 553.515625 450.546875 553.132812 450.164062 C 552.75 449.78125 552.335938 449.441406 551.886719 449.140625 C 551.4375 448.839844 550.960938 448.585938 550.464844 448.382812 C 549.964844 448.175781 549.449219 448.019531 548.921875 447.914062 C 548.390625 447.808594 547.855469 447.753906 547.316406 447.753906 C 546.054688 447.757812 544.804688 447.648438 543.5625 447.429688 C 542.316406 447.210938 541.105469 446.882812 539.921875 446.445312 C 538.738281 446.011719 537.601562 445.476562 536.511719 444.839844 C 535.421875 444.203125 534.398438 443.472656 533.4375 442.65625 C 532.476562 441.835938 531.597656 440.941406 530.796875 439.964844 C 529.996094 438.988281 529.285156 437.953125 528.667969 436.851562 C 528.054688 435.75 527.539062 434.605469 527.125 433.410156 C 526.710938 432.21875 526.40625 431 526.210938 429.753906 C 526.011719 428.507812 525.925781 427.253906 525.953125 425.992188 C 525.976562 424.730469 526.113281 423.480469 526.359375 422.242188 C 526.609375 421.003906 526.960938 419.796875 527.421875 418.625 C 527.882812 417.449219 528.445312 416.324219 529.105469 415.25 C 529.765625 414.175781 530.515625 413.167969 531.355469 412.222656 C 532.195312 411.28125 533.113281 410.421875 534.105469 409.644531 C 535.097656 408.863281 536.148438 408.175781 537.265625 407.585938 C 538.378906 406.992188 539.535156 406.503906 540.738281 406.117188 L 540.738281 392.550781 C 540.738281 392.117188 540.777344 391.691406 540.863281 391.265625 C 540.945312 390.84375 541.070312 390.429688 541.238281 390.03125 C 541.402344 389.632812 541.605469 389.253906 541.84375 388.894531 C 542.085938 388.535156 542.359375 388.203125 542.664062 387.898438 C 542.96875 387.589844 543.300781 387.320312 543.660156 387.078125 C 544.019531 386.839844 544.398438 386.636719 544.796875 386.46875 C 545.199219 386.304688 545.609375 386.179688 546.03125 386.09375 C 546.457031 386.011719 546.882812 385.96875 547.316406 385.96875 C 547.75 385.96875 548.175781 386.011719 548.601562 386.09375 C 549.023438 386.179688 549.433594 386.304688 549.835938 386.46875 C 550.234375 386.636719 550.613281 386.839844 550.972656 387.078125 C 551.332031 387.320312 551.664062 387.589844 551.96875 387.898438 C 552.273438 388.203125 552.546875 388.535156 552.789062 388.894531 C 553.027344 389.253906 553.230469 389.632812 553.394531 390.03125 C 553.5625 390.429688 553.683594 390.84375 553.769531 391.265625 C 553.855469 391.691406 553.894531 392.117188 553.894531 392.550781 L 553.894531 406.117188 C 554.960938 406.460938 555.992188 406.882812 556.992188 407.390625 C 557.992188 407.894531 558.945312 408.472656 559.851562 409.128906 C 560.757812 409.785156 561.609375 410.507812 562.402344 411.296875 C 563.199219 412.085938 563.925781 412.929688 564.585938 413.835938 C 565.246094 414.738281 565.832031 415.6875 566.34375 416.683594 C 566.855469 417.679688 567.285156 418.710938 567.632812 419.773438 C 567.984375 420.835938 568.246094 421.921875 568.425781 423.027344 C 568.605469 424.132812 568.695312 425.242188 568.699219 426.363281 C 568.699219 426.796875 568.660156 427.222656 568.574219 427.648438 C 568.492188 428.070312 568.367188 428.484375 568.199219 428.882812 C 568.035156 429.28125 567.832031 429.660156 567.59375 430.019531 C 567.351562 430.378906 567.078125 430.710938 566.773438 431.015625 C 566.46875 431.324219 566.136719 431.59375 565.777344 431.835938 C 565.417969 432.074219 565.039062 432.277344 564.640625 432.445312 C 564.238281 432.609375 563.828125 432.734375 563.40625 432.820312 C 562.980469 432.902344 562.554688 432.945312 562.121094 432.945312 C 561.6875 432.945312 561.261719 432.902344 560.835938 432.820312 C 560.414062 432.734375 560.003906 432.609375 559.601562 432.445312 C 559.203125 432.277344 558.824219 432.074219 558.464844 431.835938 C 558.105469 431.59375 557.773438 431.324219 557.46875 431.015625 C 557.164062 430.710938 556.890625 430.378906 556.648438 430.019531 C 556.410156 429.660156 556.207031 429.28125 556.042969 428.882812 C 555.875 428.484375 555.75 428.070312 555.667969 427.648438 C 555.582031 427.222656 555.542969 426.796875 555.542969 426.363281 C 555.542969 425.824219 555.488281 425.289062 555.382812 424.757812 C 555.277344 424.226562 555.121094 423.714844 554.914062 423.214844 C 554.707031 422.714844 554.457031 422.242188 554.15625 421.792969 C 553.855469 421.34375 553.515625 420.925781 553.132812 420.546875 C 552.75 420.164062 552.335938 419.820312 551.886719 419.523438 C 551.4375 419.222656 550.960938 418.96875 550.464844 418.761719 C 549.964844 418.554688 549.449219 418.398438 548.921875 418.292969 C 548.390625 418.1875 547.855469 418.136719 547.316406 418.136719 C 546.777344 418.136719 546.242188 418.1875 545.710938 418.292969 C 545.183594 418.398438 544.667969 418.554688 544.167969 418.761719 C 543.667969 418.96875 543.195312 419.222656 542.746094 419.523438 C 542.296875 419.820312 541.882812 420.164062 541.5 420.546875 C 541.117188 420.925781 540.777344 421.34375 540.476562 421.792969 C 540.175781 422.242188 539.925781 422.714844 539.71875 423.214844 C 539.511719 423.714844 539.355469 424.226562 539.25 424.757812 C 539.144531 425.289062 539.089844 425.824219 539.089844 426.363281 Z M 532.859375 535.546875 C 531.679688 536.734375 530.398438 537.792969 529.007812 538.722656 C 527.621094 539.65625 526.152344 540.441406 524.605469 541.082031 C 523.0625 541.722656 521.46875 542.207031 519.828125 542.53125 C 518.1875 542.855469 516.53125 543.015625 514.859375 543.011719 L 111.445312 543.011719 C 110.609375 543.007812 109.777344 542.96875 108.949219 542.886719 C 108.121094 542.800781 107.296875 542.679688 106.476562 542.515625 C 105.660156 542.351562 104.851562 542.148438 104.054688 541.90625 C 103.257812 541.664062 102.472656 541.382812 101.703125 541.0625 C 100.933594 540.746094 100.179688 540.386719 99.445312 539.996094 C 98.710938 539.601562 97.996094 539.171875 97.304688 538.710938 C 96.609375 538.246094 95.941406 537.75 95.296875 537.21875 C 94.652344 536.691406 94.035156 536.132812 93.445312 535.542969 C 92.855469 534.953125 92.296875 534.335938 91.769531 533.691406 C 91.238281 533.046875 90.742188 532.375 90.28125 531.683594 C 89.816406 530.988281 89.386719 530.277344 88.996094 529.539062 C 88.601562 528.804688 88.246094 528.050781 87.925781 527.28125 C 87.605469 526.511719 87.324219 525.726562 87.082031 524.929688 C 86.839844 524.132812 86.636719 523.324219 86.472656 522.503906 C 86.308594 521.6875 86.1875 520.863281 86.105469 520.035156 C 86.023438 519.203125 85.980469 518.371094 85.980469 517.539062 L 85.980469 439.574219 L 196.238281 439.574219 C 196.671875 439.574219 197.097656 439.53125 197.523438 439.445312 C 197.945312 439.363281 198.359375 439.238281 198.757812 439.070312 C 199.15625 438.90625 199.535156 438.703125 199.894531 438.464844 C 200.253906 438.222656 200.585938 437.949219 200.890625 437.644531 C 201.199219 437.339844 201.46875 437.007812 201.710938 436.648438 C 201.949219 436.289062 202.152344 435.910156 202.320312 435.511719 C 202.484375 435.109375 202.609375 434.699219 202.691406 434.273438 C 202.777344 433.851562 202.820312 433.421875 202.820312 432.992188 L 202.820312 305.339844 C 202.820312 304.90625 202.777344 304.480469 202.691406 304.054688 C 202.609375 303.632812 202.484375 303.21875 202.320312 302.820312 C 202.152344 302.421875 201.949219 302.042969 201.710938 301.683594 C 201.46875 301.324219 201.199219 300.992188 200.890625 300.683594 C 200.585938 300.378906 200.253906 300.105469 199.894531 299.867188 C 199.535156 299.625 199.15625 299.421875 198.757812 299.257812 C 198.359375 299.09375 197.945312 298.96875 197.523438 298.882812 C 197.097656 298.800781 196.671875 298.757812 196.238281 298.757812 L 85.980469 298.757812 L 85.980469 220.792969 C 85.980469 219.957031 86.023438 219.125 86.105469 218.296875 C 86.1875 217.464844 86.308594 216.644531 86.472656 215.824219 C 86.636719 215.007812 86.839844 214.199219 87.082031 213.402344 C 87.324219 212.601562 87.605469 211.820312 87.925781 211.046875 C 88.246094 210.277344 88.601562 209.527344 88.996094 208.789062 C 89.386719 208.054688 89.816406 207.339844 90.28125 206.648438 C 90.742188 205.953125 91.238281 205.285156 91.769531 204.640625 C 92.296875 203.996094 92.855469 203.378906 93.445312 202.789062 C 94.035156 202.199219 94.652344 201.640625 95.296875 201.109375 C 95.941406 200.582031 96.609375 200.085938 97.304688 199.621094 C 97.996094 199.15625 98.710938 198.730469 99.445312 198.335938 C 100.179688 197.941406 100.933594 197.585938 101.703125 197.265625 C 102.472656 196.945312 103.257812 196.664062 104.054688 196.421875 C 104.851562 196.179688 105.660156 195.976562 106.476562 195.8125 C 107.296875 195.652344 108.121094 195.527344 108.949219 195.445312 C 109.777344 195.363281 110.609375 195.320312 111.445312 195.320312 L 514.859375 195.320312 C 517.179688 195.328125 519.484375 195.125 521.773438 194.714844 C 524.058594 194.304688 526.289062 193.691406 528.464844 192.875 C 530.636719 192.054688 532.722656 191.050781 534.710938 189.855469 C 536.703125 188.65625 538.570312 187.292969 540.316406 185.757812 L 540.316406 337.109375 C 540.316406 337.542969 540.359375 337.972656 540.441406 338.394531 C 540.527344 338.820312 540.652344 339.230469 540.816406 339.628906 C 540.980469 340.027344 541.183594 340.40625 541.425781 340.765625 C 541.664062 341.125 541.9375 341.460938 542.242188 341.765625 C 542.546875 342.070312 542.878906 342.34375 543.238281 342.582031 C 543.597656 342.824219 543.976562 343.027344 544.378906 343.191406 C 544.777344 343.355469 545.1875 343.480469 545.613281 343.566406 C 546.035156 343.648438 546.464844 343.691406 546.894531 343.691406 C 547.328125 343.691406 547.753906 343.652344 548.179688 343.566406 C 548.601562 343.480469 549.015625 343.355469 549.414062 343.191406 C 549.8125 343.027344 550.191406 342.824219 550.550781 342.582031 C 550.910156 342.34375 551.242188 342.070312 551.546875 341.765625 C 551.851562 341.460938 552.125 341.125 552.367188 340.765625 C 552.605469 340.40625 552.808594 340.027344 552.972656 339.628906 C 553.140625 339.230469 553.265625 338.820312 553.347656 338.394531 C 553.433594 337.972656 553.476562 337.542969 553.476562 337.109375 L 553.476562 156.683594 C 553.472656 155.417969 553.410156 154.15625 553.285156 152.898438 C 553.160156 151.640625 552.972656 150.390625 552.726562 149.148438 C 552.476562 147.910156 552.171875 146.683594 551.800781 145.472656 C 551.433594 144.265625 551.007812 143.074219 550.523438 141.90625 C 550.039062 140.738281 549.5 139.597656 548.902344 138.480469 C 548.304688 137.367188 547.65625 136.28125 546.953125 135.230469 C 546.25 134.179688 545.496094 133.164062 544.695312 132.1875 C 543.894531 131.210938 543.046875 130.273438 542.152344 129.378906 C 541.257812 128.484375 540.320312 127.636719 539.34375 126.832031 C 538.367188 126.03125 537.351562 125.277344 536.300781 124.574219 C 535.25 123.871094 534.167969 123.222656 533.054688 122.625 C 531.9375 122.027344 530.796875 121.488281 529.628906 121.003906 C 528.460938 120.515625 527.273438 120.089844 526.0625 119.722656 C 524.851562 119.355469 523.628906 119.046875 522.390625 118.796875 C 521.148438 118.550781 519.898438 118.363281 518.640625 118.238281 C 517.382812 118.113281 516.121094 118.046875 514.859375 118.046875 L 164.195312 118.046875 C 162.929688 118.046875 161.667969 118.113281 160.410156 118.238281 C 159.152344 118.363281 157.902344 118.550781 156.664062 118.796875 C 155.421875 119.042969 154.199219 119.351562 152.988281 119.722656 C 151.777344 120.089844 150.589844 120.515625 149.421875 121 C 148.253906 121.484375 147.113281 122.027344 145.996094 122.621094 C 144.882812 123.21875 143.800781 123.871094 142.746094 124.574219 C 141.695312 125.277344 140.683594 126.027344 139.703125 126.832031 C 138.726562 127.632812 137.792969 128.480469 136.898438 129.375 C 136.003906 130.269531 135.15625 131.207031 134.351562 132.183594 C 133.550781 133.164062 132.796875 134.175781 132.09375 135.230469 C 131.390625 136.28125 130.742188 137.363281 130.144531 138.480469 C 129.550781 139.59375 129.007812 140.738281 128.523438 141.90625 C 128.039062 143.074219 127.613281 144.261719 127.246094 145.472656 C 126.875 146.683594 126.570312 147.910156 126.320312 149.148438 C 126.074219 150.390625 125.886719 151.640625 125.761719 152.898438 C 125.636719 154.15625 125.574219 155.417969 125.570312 156.683594 L 125.570312 182.15625 L 111.445312 182.15625 C 110.179688 182.15625 108.917969 182.21875 107.660156 182.34375 C 106.402344 182.46875 105.152344 182.65625 103.910156 182.90625 C 102.671875 183.152344 101.445312 183.460938 100.238281 183.828125 C 99.027344 184.195312 97.835938 184.621094 96.667969 185.109375 C 95.5 185.59375 94.359375 186.132812 93.246094 186.730469 C 92.128906 187.328125 91.046875 187.976562 89.996094 188.679688 C 88.945312 189.382812 87.929688 190.136719 86.953125 190.9375 C 85.976562 191.742188 85.039062 192.589844 84.144531 193.484375 C 83.25 194.378906 82.402344 195.316406 81.601562 196.292969 C 80.796875 197.269531 80.042969 198.285156 79.339844 199.335938 C 78.640625 200.386719 77.988281 201.472656 77.394531 202.585938 C 76.796875 203.703125 76.253906 204.84375 75.769531 206.011719 C 75.285156 207.179688 74.859375 208.371094 74.492188 209.582031 C 74.125 210.792969 73.816406 212.015625 73.570312 213.257812 C 73.320312 214.5 73.136719 215.746094 73.011719 217.007812 C 72.886719 218.265625 72.820312 219.527344 72.820312 220.792969 L 72.820312 299.054688 C 71.789062 299.140625 70.769531 299.277344 69.75 299.460938 C 68.734375 299.644531 67.726562 299.875 66.734375 300.152344 C 65.738281 300.429688 64.757812 300.75 63.792969 301.117188 C 62.824219 301.484375 61.878906 301.898438 60.953125 302.351562 C 60.023438 302.808594 59.121094 303.304688 58.238281 303.84375 C 57.355469 304.382812 56.503906 304.964844 55.675781 305.582031 C 54.847656 306.199219 54.050781 306.855469 53.28125 307.546875 C 52.515625 308.238281 51.78125 308.964844 51.082031 309.726562 C 50.382812 310.488281 49.71875 311.277344 49.09375 312.101562 C 48.464844 312.921875 47.878906 313.769531 47.332031 314.648438 C 46.785156 315.523438 46.277344 316.421875 45.8125 317.347656 C 45.347656 318.269531 44.929688 319.210938 44.550781 320.175781 C 44.171875 321.136719 43.84375 322.113281 43.554688 323.109375 C 43.269531 324.101562 43.027344 325.105469 42.835938 326.121094 C 42.640625 327.136719 42.496094 328.15625 42.398438 329.1875 C 42.296875 330.214844 42.246094 331.246094 42.242188 332.277344 L 42.242188 406.050781 C 42.246094 407.085938 42.296875 408.117188 42.398438 409.144531 C 42.496094 410.171875 42.640625 411.195312 42.835938 412.210938 C 43.027344 413.226562 43.269531 414.230469 43.554688 415.222656 C 43.84375 416.214844 44.171875 417.191406 44.550781 418.15625 C 44.929688 419.117188 45.347656 420.058594 45.8125 420.984375 C 46.277344 421.90625 46.785156 422.804688 47.332031 423.683594 C 47.878906 424.558594 48.464844 425.40625 49.09375 426.230469 C 49.71875 427.050781 50.382812 427.84375 51.082031 428.601562 C 51.78125 429.363281 52.515625 430.089844 53.28125 430.78125 C 54.050781 431.476562 54.847656 432.128906 55.675781 432.75 C 56.503906 433.367188 57.355469 433.945312 58.238281 434.484375 C 59.121094 435.023438 60.023438 435.523438 60.953125 435.976562 C 61.878906 436.433594 62.824219 436.84375 63.792969 437.210938 C 64.757812 437.578125 65.738281 437.902344 66.734375 438.179688 C 67.726562 438.457031 68.734375 438.683594 69.75 438.867188 C 70.769531 439.050781 71.789062 439.1875 72.820312 439.277344 L 72.820312 517.539062 C 72.820312 518.800781 72.886719 520.0625 73.011719 521.324219 C 73.136719 522.582031 73.324219 523.832031 73.570312 525.070312 C 73.816406 526.3125 74.125 527.539062 74.492188 528.746094 C 74.863281 529.957031 75.289062 531.148438 75.773438 532.316406 C 76.257812 533.484375 76.796875 534.625 77.394531 535.742188 C 77.992188 536.855469 78.640625 537.941406 79.34375 538.992188 C 80.046875 540.042969 80.800781 541.058594 81.601562 542.035156 C 82.402344 543.011719 83.253906 543.949219 84.148438 544.84375 C 85.039062 545.738281 85.976562 546.585938 86.953125 547.390625 C 87.929688 548.191406 88.945312 548.945312 89.996094 549.648438 C 91.046875 550.351562 92.132812 551 93.246094 551.597656 C 94.359375 552.195312 95.503906 552.734375 96.671875 553.222656 C 97.839844 553.707031 99.027344 554.132812 100.238281 554.5 C 101.449219 554.867188 102.671875 555.175781 103.914062 555.425781 C 105.152344 555.671875 106.402344 555.859375 107.660156 555.984375 C 108.917969 556.109375 110.179688 556.171875 111.445312 556.175781 L 514.859375 556.175781 C 517.394531 556.179688 519.910156 555.9375 522.398438 555.445312 C 524.886719 554.953125 527.304688 554.222656 529.648438 553.25 C 531.992188 552.277344 534.21875 551.085938 536.324219 549.671875 C 538.433594 548.257812 540.382812 546.652344 542.171875 544.851562 C 542.476562 544.546875 542.75 544.214844 542.988281 543.855469 C 543.230469 543.496094 543.429688 543.117188 543.597656 542.714844 C 543.761719 542.316406 543.886719 541.90625 543.972656 541.480469 C 544.054688 541.058594 544.097656 540.628906 544.097656 540.195312 C 544.097656 539.765625 544.054688 539.335938 543.96875 538.914062 C 543.886719 538.488281 543.761719 538.078125 543.59375 537.679688 C 543.429688 537.277344 543.226562 536.898438 542.988281 536.539062 C 542.746094 536.179688 542.472656 535.847656 542.167969 535.542969 C 541.863281 535.238281 541.53125 534.964844 541.171875 534.722656 C 540.8125 534.484375 540.429688 534.28125 540.03125 534.117188 C 539.632812 533.949219 539.222656 533.828125 538.796875 533.742188 C 538.375 533.65625 537.945312 533.617188 537.511719 533.617188 C 537.082031 533.617188 536.652344 533.660156 536.230469 533.742188 C 535.804688 533.828125 535.394531 533.953125 534.996094 534.117188 C 534.597656 534.285156 534.214844 534.488281 533.855469 534.726562 C 533.5 534.96875 533.164062 535.242188 532.859375 535.546875 Z M 138.722656 156.683594 C 138.726562 155.847656 138.769531 155.019531 138.851562 154.1875 C 138.933594 153.359375 139.058594 152.535156 139.21875 151.714844 C 139.382812 150.898438 139.585938 150.089844 139.828125 149.292969 C 140.074219 148.496094 140.355469 147.710938 140.671875 146.941406 C 140.992188 146.171875 141.347656 145.417969 141.742188 144.683594 C 142.136719 143.949219 142.566406 143.234375 143.027344 142.542969 C 143.492188 141.847656 143.988281 141.179688 144.515625 140.535156 C 145.046875 139.890625 145.605469 139.273438 146.195312 138.683594 C 146.785156 138.09375 147.402344 137.535156 148.046875 137.003906 C 148.6875 136.476562 149.359375 135.980469 150.050781 135.515625 C 150.742188 135.050781 151.457031 134.625 152.191406 134.230469 C 152.929688 133.835938 153.679688 133.480469 154.449219 133.160156 C 155.21875 132.839844 156.003906 132.558594 156.800781 132.316406 C 157.597656 132.074219 158.40625 131.871094 159.222656 131.707031 C 160.042969 131.542969 160.863281 131.421875 161.695312 131.335938 C 162.523438 131.253906 163.355469 131.210938 164.1875 131.210938 L 514.859375 131.210938 C 515.691406 131.210938 516.523438 131.25 517.355469 131.332031 C 518.183594 131.414062 519.007812 131.539062 519.824219 131.699219 C 520.644531 131.863281 521.453125 132.066406 522.25 132.308594 C 523.046875 132.550781 523.832031 132.832031 524.601562 133.148438 C 525.371094 133.46875 526.125 133.824219 526.863281 134.21875 C 527.597656 134.613281 528.3125 135.039062 529.003906 135.503906 C 529.699219 135.96875 530.367188 136.464844 531.011719 136.992188 C 531.65625 137.523438 532.273438 138.082031 532.863281 138.671875 C 533.453125 139.261719 534.011719 139.878906 534.542969 140.523438 C 535.070312 141.167969 535.566406 141.839844 536.03125 142.53125 C 536.492188 143.226562 536.921875 143.941406 537.316406 144.675781 C 537.707031 145.410156 538.066406 146.164062 538.382812 146.9375 C 538.703125 147.707031 538.984375 148.492188 539.226562 149.289062 C 539.46875 150.085938 539.671875 150.894531 539.832031 151.714844 C 539.996094 152.53125 540.117188 153.355469 540.199219 154.1875 C 540.28125 155.015625 540.320312 155.847656 540.320312 156.683594 C 540.320312 157.519531 540.28125 158.351562 540.199219 159.179688 C 540.117188 160.011719 539.996094 160.835938 539.832031 161.652344 C 539.671875 162.472656 539.46875 163.28125 539.226562 164.078125 C 538.984375 164.875 538.703125 165.660156 538.382812 166.429688 C 538.0625 167.203125 537.707031 167.957031 537.316406 168.691406 C 536.921875 169.425781 536.492188 170.140625 536.03125 170.835938 C 535.566406 171.527344 535.070312 172.199219 534.542969 172.84375 C 534.011719 173.488281 533.453125 174.105469 532.863281 174.695312 C 532.273438 175.285156 531.65625 175.84375 531.011719 176.375 C 530.367188 176.902344 529.699219 177.398438 529.003906 177.863281 C 528.3125 178.328125 527.597656 178.753906 526.863281 179.148438 C 526.125 179.542969 525.371094 179.898438 524.601562 180.21875 C 523.832031 180.535156 523.046875 180.816406 522.25 181.058594 C 521.453125 181.300781 520.644531 181.503906 519.824219 181.667969 C 519.007812 181.828125 518.183594 181.953125 517.355469 182.035156 C 516.523438 182.113281 515.691406 182.15625 514.859375 182.15625 L 138.730469 182.15625 Z M 55.402344 406.050781 L 55.402344 332.277344 C 55.40625 331.613281 55.4375 330.949219 55.503906 330.285156 C 55.570312 329.621094 55.671875 328.964844 55.800781 328.308594 C 55.933594 327.65625 56.097656 327.011719 56.289062 326.375 C 56.484375 325.734375 56.710938 325.109375 56.964844 324.492188 C 57.222656 323.878906 57.507812 323.277344 57.820312 322.691406 C 58.136719 322.101562 58.476562 321.53125 58.847656 320.976562 C 59.21875 320.421875 59.617188 319.890625 60.039062 319.375 C 60.460938 318.859375 60.910156 318.367188 61.378906 317.894531 C 61.851562 317.421875 62.34375 316.976562 62.859375 316.554688 C 63.375 316.132812 63.910156 315.734375 64.460938 315.363281 C 65.015625 314.992188 65.585938 314.652344 66.175781 314.335938 C 66.761719 314.023438 67.363281 313.738281 67.976562 313.480469 C 68.59375 313.226562 69.21875 313 69.859375 312.804688 C 70.496094 312.613281 71.140625 312.449219 71.792969 312.320312 C 72.445312 312.1875 73.105469 312.089844 73.769531 312.023438 C 74.429688 311.957031 75.09375 311.921875 75.761719 311.921875 L 189.660156 311.921875 L 189.660156 426.410156 L 75.761719 426.410156 C 75.09375 426.40625 74.429688 426.375 73.769531 426.308594 C 73.105469 426.242188 72.445312 426.140625 71.792969 426.011719 C 71.140625 425.878906 70.496094 425.71875 69.859375 425.523438 C 69.21875 425.328125 68.59375 425.105469 67.976562 424.847656 C 67.363281 424.59375 66.761719 424.308594 66.175781 423.992188 C 65.585938 423.679688 65.015625 423.335938 64.460938 422.964844 C 63.910156 422.597656 63.375 422.199219 62.859375 421.777344 C 62.34375 421.351562 61.851562 420.90625 61.378906 420.433594 C 60.910156 419.964844 60.460938 419.472656 60.039062 418.957031 C 59.617188 418.441406 59.21875 417.90625 58.847656 417.351562 C 58.476562 416.796875 58.136719 416.226562 57.820312 415.640625 C 57.507812 415.054688 57.222656 414.453125 56.964844 413.835938 C 56.710938 413.21875 56.484375 412.59375 56.289062 411.957031 C 56.097656 411.320312 55.933594 410.671875 55.800781 410.019531 C 55.671875 409.367188 55.570312 408.707031 55.503906 408.046875 C 55.4375 407.382812 55.40625 406.71875 55.402344 406.050781 Z M 272.347656 516.683594 C 272.78125 516.683594 273.210938 516.722656 273.632812 516.808594 C 274.054688 516.894531 274.46875 517.015625 274.867188 517.183594 C 275.265625 517.347656 275.644531 517.550781 276.003906 517.792969 C 276.363281 518.03125 276.695312 518.304688 277 518.609375 C 277.308594 518.914062 277.578125 519.246094 277.820312 519.605469 C 278.058594 519.964844 278.261719 520.347656 278.429688 520.746094 C 278.59375 521.144531 278.71875 521.554688 278.800781 521.980469 C 278.886719 522.402344 278.929688 522.832031 278.929688 523.265625 C 278.929688 523.695312 278.886719 524.125 278.800781 524.546875 C 278.71875 524.972656 278.59375 525.382812 278.429688 525.78125 C 278.261719 526.183594 278.058594 526.5625 277.820312 526.921875 C 277.578125 527.28125 277.308594 527.613281 277 527.917969 C 276.695312 528.222656 276.363281 528.496094 276.003906 528.738281 C 275.644531 528.976562 275.265625 529.179688 274.867188 529.34375 C 274.46875 529.511719 274.054688 529.636719 273.632812 529.71875 C 273.210938 529.804688 272.78125 529.847656 272.347656 529.847656 L 226.558594 529.847656 C 226.128906 529.847656 225.699219 529.804688 225.277344 529.71875 C 224.851562 529.636719 224.441406 529.511719 224.042969 529.34375 C 223.640625 529.179688 223.261719 528.976562 222.902344 528.738281 C 222.542969 528.496094 222.210938 528.222656 221.90625 527.917969 C 221.601562 527.613281 221.328125 527.28125 221.089844 526.921875 C 220.847656 526.5625 220.644531 526.183594 220.480469 525.78125 C 220.316406 525.382812 220.191406 524.972656 220.105469 524.546875 C 220.023438 524.125 219.980469 523.695312 219.980469 523.265625 C 219.980469 522.832031 220.023438 522.402344 220.105469 521.980469 C 220.191406 521.554688 220.316406 521.144531 220.480469 520.746094 C 220.644531 520.347656 220.847656 519.964844 221.089844 519.605469 C 221.328125 519.246094 221.601562 518.914062 221.90625 518.609375 C 222.210938 518.304688 222.542969 518.03125 222.902344 517.792969 C 223.261719 517.550781 223.640625 517.347656 224.042969 517.183594 C 224.441406 517.015625 224.851562 516.894531 225.277344 516.808594 C 225.699219 516.722656 226.128906 516.683594 226.558594 516.683594 Z M 201.675781 516.683594 C 202.105469 516.683594 202.535156 516.722656 202.957031 516.808594 C 203.382812 516.894531 203.792969 517.015625 204.191406 517.183594 C 204.589844 517.347656 204.972656 517.550781 205.328125 517.792969 C 205.6875 518.03125 206.023438 518.304688 206.328125 518.609375 C 206.632812 518.914062 206.90625 519.246094 207.144531 519.605469 C 207.386719 519.964844 207.589844 520.347656 207.753906 520.746094 C 207.917969 521.144531 208.042969 521.554688 208.128906 521.980469 C 208.210938 522.402344 208.253906 522.832031 208.253906 523.265625 C 208.253906 523.695312 208.210938 524.125 208.128906 524.546875 C 208.042969 524.972656 207.917969 525.382812 207.753906 525.78125 C 207.589844 526.183594 207.386719 526.5625 207.144531 526.921875 C 206.90625 527.28125 206.632812 527.613281 206.328125 527.917969 C 206.023438 528.222656 205.6875 528.496094 205.328125 528.738281 C 204.972656 528.976562 204.589844 529.179688 204.191406 529.34375 C 203.792969 529.511719 203.382812 529.636719 202.957031 529.71875 C 202.535156 529.804688 202.105469 529.847656 201.675781 529.847656 L 111.445312 529.847656 C 111.011719 529.847656 110.585938 529.804688 110.160156 529.71875 C 109.738281 529.636719 109.324219 529.511719 108.925781 529.34375 C 108.527344 529.179688 108.148438 528.976562 107.789062 528.738281 C 107.429688 528.496094 107.097656 528.222656 106.792969 527.917969 C 106.484375 527.613281 106.214844 527.28125 105.972656 526.921875 C 105.734375 526.5625 105.53125 526.183594 105.367188 525.78125 C 105.199219 525.382812 105.074219 524.972656 104.992188 524.546875 C 104.90625 524.125 104.863281 523.695312 104.863281 523.265625 C 104.863281 522.832031 104.90625 522.402344 104.992188 521.980469 C 105.074219 521.554688 105.199219 521.144531 105.367188 520.746094 C 105.53125 520.347656 105.734375 519.964844 105.972656 519.605469 C 106.214844 519.246094 106.484375 518.914062 106.792969 518.609375 C 107.097656 518.304688 107.429688 518.03125 107.789062 517.792969 C 108.148438 517.550781 108.527344 517.347656 108.925781 517.183594 C 109.324219 517.015625 109.738281 516.894531 110.160156 516.808594 C 110.585938 516.722656 111.011719 516.683594 111.445312 516.683594 Z M 117.121094 401.128906 C 118.167969 401.128906 119.214844 401.078125 120.253906 400.972656 C 121.296875 400.871094 122.332031 400.71875 123.359375 400.515625 C 124.382812 400.308594 125.398438 400.054688 126.398438 399.75 C 127.402344 399.449219 128.386719 399.097656 129.351562 398.695312 C 130.320312 398.292969 131.265625 397.847656 132.1875 397.355469 C 133.109375 396.859375 134.007812 396.324219 134.878906 395.742188 C 135.75 395.160156 136.585938 394.539062 137.398438 393.875 C 138.207031 393.210938 138.980469 392.507812 139.722656 391.765625 C 140.460938 391.027344 141.164062 390.25 141.828125 389.441406 C 142.492188 388.632812 143.113281 387.792969 143.695312 386.921875 C 144.277344 386.050781 144.8125 385.15625 145.308594 384.234375 C 145.800781 383.308594 146.246094 382.363281 146.648438 381.398438 C 147.050781 380.429688 147.402344 379.445312 147.707031 378.445312 C 148.007812 377.441406 148.261719 376.425781 148.46875 375.402344 C 148.671875 374.375 148.824219 373.339844 148.925781 372.296875 C 149.03125 371.257812 149.082031 370.210938 149.082031 369.164062 C 149.082031 368.117188 149.03125 367.074219 148.925781 366.03125 C 148.824219 364.992188 148.671875 363.957031 148.46875 362.929688 C 148.265625 361.902344 148.007812 360.890625 147.707031 359.886719 C 147.402344 358.886719 147.050781 357.902344 146.648438 356.933594 C 146.25 355.964844 145.800781 355.023438 145.308594 354.097656 C 144.816406 353.175781 144.277344 352.277344 143.695312 351.40625 C 143.117188 350.539062 142.492188 349.699219 141.828125 348.886719 C 141.164062 348.078125 140.464844 347.304688 139.722656 346.5625 C 138.984375 345.824219 138.210938 345.121094 137.398438 344.457031 C 136.589844 343.792969 135.75 343.171875 134.882812 342.589844 C 134.011719 342.007812 133.113281 341.46875 132.191406 340.976562 C 131.269531 340.484375 130.324219 340.035156 129.355469 339.636719 C 128.390625 339.234375 127.40625 338.882812 126.40625 338.578125 C 125.402344 338.273438 124.390625 338.019531 123.363281 337.816406 C 122.335938 337.613281 121.304688 337.460938 120.261719 337.355469 C 119.21875 337.253906 118.175781 337.203125 117.128906 337.203125 C 116.082031 337.203125 115.039062 337.253906 113.996094 337.355469 C 112.957031 337.457031 111.921875 337.613281 110.894531 337.816406 C 109.871094 338.019531 108.855469 338.273438 107.855469 338.578125 C 106.851562 338.882812 105.867188 339.234375 104.902344 339.636719 C 103.933594 340.035156 102.992188 340.484375 102.066406 340.976562 C 101.144531 341.46875 100.25 342.007812 99.378906 342.589844 C 98.507812 343.171875 97.667969 343.792969 96.859375 344.457031 C 96.050781 345.121094 95.277344 345.824219 94.535156 346.5625 C 93.796875 347.304688 93.09375 348.078125 92.429688 348.886719 C 91.765625 349.695312 91.144531 350.535156 90.5625 351.40625 C 89.980469 352.277344 89.445312 353.175781 88.949219 354.097656 C 88.457031 355.019531 88.011719 355.964844 87.609375 356.933594 C 87.210938 357.898438 86.855469 358.882812 86.554688 359.886719 C 86.25 360.886719 85.996094 361.902344 85.792969 362.929688 C 85.585938 363.957031 85.433594 364.992188 85.332031 366.03125 C 85.230469 367.074219 85.175781 368.117188 85.175781 369.164062 C 85.179688 370.210938 85.230469 371.253906 85.335938 372.296875 C 85.4375 373.335938 85.59375 374.371094 85.796875 375.398438 C 86.003906 376.421875 86.257812 377.4375 86.5625 378.4375 C 86.867188 379.4375 87.21875 380.421875 87.621094 381.390625 C 88.019531 382.355469 88.46875 383.300781 88.960938 384.222656 C 89.453125 385.144531 89.992188 386.042969 90.574219 386.910156 C 91.15625 387.78125 91.777344 388.621094 92.441406 389.429688 C 93.105469 390.238281 93.804688 391.011719 94.546875 391.753906 C 95.285156 392.492188 96.058594 393.195312 96.867188 393.859375 C 97.675781 394.523438 98.515625 395.144531 99.382812 395.726562 C 100.253906 396.308594 101.148438 396.847656 102.070312 397.339844 C 102.992188 397.832031 103.9375 398.28125 104.902344 398.683594 C 105.871094 399.082031 106.851562 399.4375 107.851562 399.742188 C 108.855469 400.046875 109.867188 400.300781 110.894531 400.503906 C 111.917969 400.710938 112.953125 400.867188 113.992188 400.96875 C 115.035156 401.074219 116.078125 401.125 117.121094 401.128906 Z M 117.121094 350.367188 C 117.738281 350.367188 118.351562 350.398438 118.964844 350.457031 C 119.578125 350.515625 120.1875 350.609375 120.789062 350.726562 C 121.394531 350.847656 121.992188 350.996094 122.578125 351.175781 C 123.167969 351.355469 123.746094 351.5625 124.316406 351.796875 C 124.886719 352.03125 125.441406 352.296875 125.984375 352.585938 C 126.527344 352.875 127.054688 353.191406 127.566406 353.535156 C 128.078125 353.875 128.574219 354.242188 129.046875 354.632812 C 129.523438 355.023438 129.980469 355.4375 130.414062 355.871094 C 130.851562 356.308594 131.265625 356.761719 131.65625 357.238281 C 132.042969 357.714844 132.410156 358.207031 132.753906 358.71875 C 133.09375 359.234375 133.410156 359.761719 133.703125 360.304688 C 133.992188 360.847656 134.253906 361.402344 134.492188 361.972656 C 134.726562 362.539062 134.933594 363.117188 135.113281 363.707031 C 135.289062 364.296875 135.441406 364.894531 135.558594 365.496094 C 135.679688 366.101562 135.769531 366.710938 135.832031 367.324219 C 135.890625 367.933594 135.921875 368.550781 135.921875 369.164062 C 135.921875 369.78125 135.890625 370.394531 135.832031 371.007812 C 135.769531 371.621094 135.679688 372.226562 135.5625 372.832031 C 135.441406 373.4375 135.292969 374.03125 135.113281 374.621094 C 134.933594 375.210938 134.726562 375.789062 134.492188 376.359375 C 134.257812 376.925781 133.992188 377.484375 133.703125 378.027344 C 133.414062 378.570312 133.097656 379.097656 132.753906 379.609375 C 132.414062 380.121094 132.046875 380.613281 131.65625 381.089844 C 131.265625 381.566406 130.851562 382.023438 130.417969 382.457031 C 129.984375 382.894531 129.527344 383.304688 129.050781 383.695312 C 128.574219 384.085938 128.082031 384.453125 127.570312 384.796875 C 127.058594 385.136719 126.53125 385.453125 125.988281 385.742188 C 125.445312 386.035156 124.890625 386.296875 124.320312 386.53125 C 123.753906 386.769531 123.175781 386.976562 122.585938 387.152344 C 121.996094 387.332031 121.398438 387.480469 120.796875 387.601562 C 120.191406 387.722656 119.585938 387.8125 118.972656 387.871094 C 118.359375 387.933594 117.746094 387.964844 117.128906 387.964844 C 116.515625 387.964844 115.898438 387.933594 115.289062 387.875 C 114.675781 387.8125 114.066406 387.722656 113.464844 387.601562 C 112.859375 387.484375 112.261719 387.332031 111.675781 387.15625 C 111.085938 386.976562 110.507812 386.769531 109.9375 386.53125 C 109.371094 386.296875 108.8125 386.035156 108.269531 385.746094 C 107.726562 385.453125 107.199219 385.136719 106.6875 384.796875 C 106.175781 384.453125 105.683594 384.085938 105.207031 383.695312 C 104.730469 383.304688 104.277344 382.894531 103.839844 382.457031 C 103.40625 382.023438 102.992188 381.566406 102.601562 381.089844 C 102.210938 380.617188 101.847656 380.121094 101.503906 379.609375 C 101.164062 379.097656 100.847656 378.570312 100.554688 378.027344 C 100.265625 377.484375 100.003906 376.929688 99.769531 376.359375 C 99.53125 375.789062 99.324219 375.210938 99.144531 374.621094 C 98.96875 374.03125 98.816406 373.4375 98.699219 372.832031 C 98.578125 372.230469 98.488281 371.621094 98.425781 371.007812 C 98.367188 370.394531 98.335938 369.78125 98.335938 369.164062 C 98.335938 368.550781 98.367188 367.9375 98.429688 367.324219 C 98.492188 366.710938 98.582031 366.101562 98.703125 365.5 C 98.820312 364.894531 98.972656 364.300781 99.152344 363.710938 C 99.328125 363.121094 99.535156 362.542969 99.773438 361.976562 C 100.007812 361.40625 100.269531 360.851562 100.5625 360.308594 C 100.851562 359.765625 101.167969 359.238281 101.507812 358.726562 C 101.851562 358.214844 102.214844 357.722656 102.605469 357.246094 C 102.996094 356.769531 103.410156 356.316406 103.84375 355.878906 C 104.28125 355.445312 104.734375 355.03125 105.210938 354.640625 C 105.683594 354.25 106.179688 353.886719 106.691406 353.542969 C 107.203125 353.199219 107.726562 352.882812 108.269531 352.59375 C 108.8125 352.304688 109.367188 352.039062 109.9375 351.804688 C 110.503906 351.570312 111.082031 351.363281 111.671875 351.183594 C 112.261719 351.003906 112.855469 350.851562 113.457031 350.730469 C 114.0625 350.613281 114.667969 350.519531 115.28125 350.460938 C 115.894531 350.398438 116.507812 350.367188 117.121094 350.367188 Z M 164.023438 383.640625 L 164.023438 354.679688 C 164.023438 354.246094 164.066406 353.816406 164.152344 353.394531 C 164.234375 352.96875 164.359375 352.558594 164.523438 352.160156 C 164.691406 351.761719 164.894531 351.378906 165.132812 351.019531 C 165.375 350.660156 165.644531 350.328125 165.953125 350.023438 C 166.257812 349.71875 166.589844 349.445312 166.949219 349.207031 C 167.308594 348.964844 167.6875 348.761719 168.085938 348.597656 C 168.484375 348.429688 168.898438 348.308594 169.320312 348.222656 C 169.746094 348.136719 170.171875 348.097656 170.605469 348.097656 C 171.035156 348.097656 171.464844 348.136719 171.886719 348.222656 C 172.3125 348.308594 172.722656 348.429688 173.121094 348.597656 C 173.519531 348.761719 173.902344 348.964844 174.257812 349.207031 C 174.617188 349.445312 174.953125 349.71875 175.257812 350.023438 C 175.5625 350.328125 175.835938 350.660156 176.074219 351.019531 C 176.316406 351.378906 176.519531 351.761719 176.683594 352.160156 C 176.847656 352.558594 176.972656 352.96875 177.058594 353.394531 C 177.140625 353.816406 177.183594 354.246094 177.183594 354.679688 L 177.183594 383.640625 C 177.183594 384.070312 177.140625 384.5 177.058594 384.921875 C 176.972656 385.347656 176.847656 385.757812 176.683594 386.15625 C 176.519531 386.558594 176.316406 386.9375 176.074219 387.296875 C 175.835938 387.65625 175.5625 387.988281 175.257812 388.292969 C 174.953125 388.597656 174.617188 388.871094 174.257812 389.113281 C 173.902344 389.351562 173.519531 389.554688 173.121094 389.71875 C 172.722656 389.886719 172.3125 390.011719 171.886719 390.09375 C 171.464844 390.179688 171.035156 390.222656 170.605469 390.222656 C 170.171875 390.222656 169.746094 390.179688 169.320312 390.09375 C 168.898438 390.011719 168.484375 389.886719 168.085938 389.71875 C 167.6875 389.554688 167.308594 389.351562 166.949219 389.113281 C 166.589844 388.871094 166.257812 388.597656 165.953125 388.292969 C 165.644531 387.988281 165.375 387.65625 165.132812 387.296875 C 164.894531 386.9375 164.691406 386.558594 164.523438 386.15625 C 164.359375 385.757812 164.234375 385.347656 164.152344 384.921875 C 164.066406 384.5 164.023438 384.070312 164.023438 383.640625 Z M 338.65625 245.996094 C 338.652344 244.996094 338.601562 244 338.503906 243.007812 C 338.40625 242.015625 338.257812 241.03125 338.0625 240.050781 C 337.867188 239.074219 337.625 238.105469 337.332031 237.152344 C 337.042969 236.195312 336.707031 235.257812 336.324219 234.335938 C 335.941406 233.414062 335.515625 232.515625 335.046875 231.632812 C 334.574219 230.753906 334.0625 229.898438 333.507812 229.070312 C 332.953125 228.242188 332.359375 227.441406 331.726562 226.667969 C 331.09375 225.898438 330.421875 225.160156 329.71875 224.453125 C 329.011719 223.746094 328.273438 223.078125 327.503906 222.445312 C 326.734375 221.8125 325.933594 221.21875 325.101562 220.664062 C 324.273438 220.109375 323.417969 219.59375 322.539062 219.125 C 321.660156 218.652344 320.757812 218.226562 319.839844 217.84375 C 318.917969 217.460938 317.980469 217.125 317.023438 216.835938 C 316.070312 216.542969 315.101562 216.300781 314.125 216.105469 C 313.148438 215.910156 312.160156 215.761719 311.167969 215.664062 C 310.175781 215.566406 309.179688 215.515625 308.183594 215.515625 L 156.042969 215.515625 C 155.042969 215.515625 154.050781 215.5625 153.054688 215.660156 C 152.0625 215.757812 151.078125 215.90625 150.097656 216.097656 C 149.121094 216.292969 148.152344 216.535156 147.199219 216.828125 C 146.242188 217.117188 145.304688 217.453125 144.382812 217.835938 C 143.460938 218.214844 142.558594 218.640625 141.679688 219.113281 C 140.796875 219.582031 139.945312 220.097656 139.113281 220.652344 C 138.285156 221.207031 137.484375 221.800781 136.710938 222.433594 C 135.941406 223.066406 135.203125 223.734375 134.496094 224.441406 C 133.789062 225.148438 133.121094 225.886719 132.488281 226.65625 C 131.855469 227.429688 131.261719 228.230469 130.707031 229.0625 C 130.152344 229.890625 129.640625 230.746094 129.167969 231.625 C 128.699219 232.507812 128.273438 233.40625 127.890625 234.332031 C 127.507812 235.253906 127.171875 236.191406 126.882812 237.148438 C 126.59375 238.101562 126.351562 239.070312 126.15625 240.046875 C 125.960938 241.027344 125.816406 242.015625 125.71875 243.007812 C 125.621094 244 125.570312 244.996094 125.570312 245.996094 C 125.570312 246.992188 125.621094 247.988281 125.71875 248.984375 C 125.816406 249.976562 125.960938 250.960938 126.15625 251.941406 C 126.351562 252.921875 126.59375 253.886719 126.882812 254.84375 C 127.171875 255.796875 127.507812 256.738281 127.890625 257.660156 C 128.273438 258.582031 128.699219 259.484375 129.167969 260.363281 C 129.640625 261.246094 130.152344 262.101562 130.707031 262.929688 C 131.261719 263.761719 131.855469 264.5625 132.488281 265.332031 C 133.121094 266.105469 133.789062 266.84375 134.496094 267.550781 C 135.203125 268.253906 135.941406 268.925781 136.710938 269.558594 C 137.484375 270.191406 138.285156 270.785156 139.113281 271.339844 C 139.945312 271.894531 140.796875 272.40625 141.679688 272.878906 C 142.558594 273.347656 143.460938 273.773438 144.382812 274.15625 C 145.304688 274.539062 146.242188 274.875 147.199219 275.164062 C 148.152344 275.453125 149.121094 275.695312 150.097656 275.890625 C 151.078125 276.085938 152.0625 276.230469 153.054688 276.328125 C 154.050781 276.429688 155.042969 276.476562 156.042969 276.476562 L 308.183594 276.476562 C 309.179688 276.476562 310.175781 276.425781 311.167969 276.328125 C 312.160156 276.226562 313.148438 276.082031 314.125 275.882812 C 315.101562 275.6875 316.070312 275.445312 317.023438 275.15625 C 317.980469 274.863281 318.917969 274.527344 319.839844 274.144531 C 320.757812 273.761719 321.660156 273.335938 322.539062 272.867188 C 323.417969 272.394531 324.273438 271.882812 325.101562 271.328125 C 325.933594 270.773438 326.734375 270.179688 327.503906 269.546875 C 328.273438 268.914062 329.011719 268.242188 329.71875 267.539062 C 330.421875 266.832031 331.09375 266.09375 331.726562 265.320312 C 332.359375 264.550781 332.953125 263.75 333.507812 262.921875 C 334.0625 262.089844 334.574219 261.234375 335.046875 260.355469 C 335.515625 259.476562 335.941406 258.574219 336.324219 257.652344 C 336.707031 256.730469 337.042969 255.792969 337.332031 254.839844 C 337.625 253.882812 337.867188 252.917969 338.0625 251.9375 C 338.257812 250.960938 338.40625 249.976562 338.503906 248.980469 C 338.601562 247.988281 338.652344 246.992188 338.65625 245.996094 Z M 138.730469 245.996094 C 138.730469 245.429688 138.761719 244.863281 138.816406 244.296875 C 138.871094 243.734375 138.957031 243.175781 139.066406 242.617188 C 139.179688 242.0625 139.316406 241.511719 139.480469 240.96875 C 139.644531 240.429688 139.835938 239.894531 140.054688 239.371094 C 140.269531 238.847656 140.515625 238.335938 140.78125 237.835938 C 141.046875 237.335938 141.339844 236.851562 141.65625 236.378906 C 141.96875 235.90625 142.308594 235.453125 142.667969 235.015625 C 143.027344 234.578125 143.40625 234.15625 143.808594 233.753906 C 144.207031 233.355469 144.628906 232.972656 145.066406 232.613281 C 145.503906 232.253906 145.957031 231.917969 146.429688 231.601562 C 146.902344 231.289062 147.386719 230.996094 147.886719 230.726562 C 148.386719 230.460938 148.898438 230.21875 149.421875 230 C 149.945312 229.785156 150.476562 229.59375 151.019531 229.429688 C 151.5625 229.261719 152.109375 229.125 152.667969 229.015625 C 153.222656 228.902344 153.78125 228.820312 154.347656 228.761719 C 154.910156 228.707031 155.476562 228.679688 156.042969 228.679688 L 308.183594 228.679688 C 308.75 228.679688 309.316406 228.707031 309.878906 228.761719 C 310.445312 228.816406 311.003906 228.898438 311.5625 229.011719 C 312.117188 229.121094 312.664062 229.257812 313.207031 229.421875 C 313.75 229.589844 314.285156 229.777344 314.808594 229.996094 C 315.332031 230.214844 315.84375 230.457031 316.34375 230.722656 C 316.84375 230.988281 317.328125 231.28125 317.800781 231.597656 C 318.273438 231.910156 318.726562 232.25 319.164062 232.609375 C 319.605469 232.96875 320.023438 233.347656 320.425781 233.75 C 320.824219 234.152344 321.207031 234.570312 321.566406 235.007812 C 321.925781 235.449219 322.261719 235.902344 322.578125 236.375 C 322.890625 236.847656 323.183594 237.332031 323.449219 237.832031 C 323.71875 238.332031 323.960938 238.84375 324.175781 239.367188 C 324.394531 239.890625 324.585938 240.425781 324.75 240.96875 C 324.914062 241.511719 325.050781 242.058594 325.164062 242.617188 C 325.273438 243.171875 325.355469 243.734375 325.410156 244.296875 C 325.46875 244.863281 325.496094 245.429688 325.496094 245.996094 C 325.496094 246.5625 325.46875 247.128906 325.410156 247.691406 C 325.355469 248.257812 325.273438 248.816406 325.164062 249.375 C 325.050781 249.929688 324.914062 250.480469 324.75 251.023438 C 324.585938 251.566406 324.394531 252.097656 324.175781 252.621094 C 323.960938 253.144531 323.71875 253.660156 323.449219 254.160156 C 323.183594 254.660156 322.890625 255.144531 322.578125 255.617188 C 322.261719 256.085938 321.925781 256.542969 321.566406 256.980469 C 321.207031 257.417969 320.824219 257.839844 320.425781 258.242188 C 320.023438 258.640625 319.605469 259.023438 319.164062 259.382812 C 318.726562 259.742188 318.273438 260.078125 317.800781 260.394531 C 317.328125 260.710938 316.84375 261 316.34375 261.269531 C 315.84375 261.535156 315.332031 261.777344 314.808594 261.996094 C 314.285156 262.210938 313.75 262.402344 313.207031 262.566406 C 312.664062 262.730469 312.117188 262.871094 311.5625 262.980469 C 311.003906 263.089844 310.445312 263.171875 309.878906 263.230469 C 309.316406 263.285156 308.75 263.3125 308.183594 263.3125 L 156.042969 263.3125 C 155.476562 263.3125 154.910156 263.285156 154.347656 263.226562 C 153.78125 263.171875 153.222656 263.085938 152.667969 262.976562 C 152.109375 262.867188 151.5625 262.726562 151.019531 262.5625 C 150.476562 262.398438 149.945312 262.207031 149.421875 261.988281 C 148.898438 261.773438 148.386719 261.53125 147.886719 261.261719 C 147.386719 260.996094 146.902344 260.703125 146.429688 260.386719 C 145.957031 260.074219 145.503906 259.734375 145.066406 259.375 C 144.628906 259.015625 144.207031 258.636719 143.808594 258.234375 C 143.40625 257.832031 143.027344 257.414062 142.667969 256.976562 C 142.308594 256.539062 141.96875 256.082031 141.65625 255.613281 C 141.339844 255.140625 141.046875 254.65625 140.78125 254.15625 C 140.515625 253.65625 140.269531 253.144531 140.054688 252.621094 C 139.835938 252.09375 139.644531 251.5625 139.480469 251.019531 C 139.316406 250.476562 139.179688 249.929688 139.066406 249.371094 C 138.957031 248.816406 138.871094 248.257812 138.816406 247.691406 C 138.761719 247.128906 138.730469 246.5625 138.730469 245.996094 Z M 138.730469 245.996094 " fill-opacity="1" fill-rule="nonzero"/></g></svg>