<svg xmlns="http://www.w3.org/2000/svg" xmlns:xlink="http://www.w3.org/1999/xlink" width="900" zoomAndPan="magnify" viewBox="0 0 675 675.000002" height="900" preserveAspectRatio="xMidYMid meet" version="1.0"><defs><filter x="0%" y="0%" width="100%" height="100%" id="id1"><feColorMatrix values="0 0 0 0 1 0 0 0 0 1 0 0 0 0 1 0 0 0 1 0" color-interpolation-filters="sRGB"/></filter><mask id="id2"><g filter="url(#id1)"><rect x="-67.5" width="810" fill="#000000" y="-67.5" height="810.000002" fill-opacity="0.1176"/></g></mask><clipPath id="id3"><path d="M 2 0.355469 L 462 0.355469 L 462 462 L 2 462 Z M 2 0.355469 " clip-rule="nonzero"/></clipPath><clipPath id="id4"><rect x="0" width="463" y="0" height="463"/></clipPath><clipPath id="id5"><path d="M 152.71875 136.90625 L 634.257812 136.90625 L 634.257812 161 L 152.71875 161 Z M 152.71875 136.90625 " clip-rule="nonzero"/></clipPath><clipPath id="id6"><path d="M 152.71875 163 L 634.257812 163 L 634.257812 187 L 152.71875 187 Z M 152.71875 163 " clip-rule="nonzero"/></clipPath><clipPath id="id7"><path d="M 152.71875 189 L 634.257812 189 L 634.257812 214 L 152.71875 214 Z M 152.71875 189 " clip-rule="nonzero"/></clipPath><clipPath id="id8"><path d="M 152.71875 215 L 634.257812 215 L 634.257812 240 L 152.71875 240 Z M 152.71875 215 " clip-rule="nonzero"/></clipPath><clipPath id="id9"><path d="M 152.71875 241 L 634.257812 241 L 634.257812 266 L 152.71875 266 Z M 152.71875 241 " clip-rule="nonzero"/></clipPath><clipPath id="id10"><path d="M 152.71875 268 L 634.257812 268 L 634.257812 292 L 152.71875 292 Z M 152.71875 268 " clip-rule="nonzero"/></clipPath><clipPath id="id11"><path d="M 152.71875 294 L 634.257812 294 L 634.257812 319 L 152.71875 319 Z M 152.71875 294 " clip-rule="nonzero"/></clipPath><clipPath id="id12"><path d="M 152.71875 320 L 634.257812 320 L 634.257812 345 L 152.71875 345 Z M 152.71875 320 " clip-rule="nonzero"/></clipPath><clipPath id="id13"><path d="M 152.71875 346 L 634.257812 346 L 634.257812 371 L 152.71875 371 Z M 152.71875 346 " clip-rule="nonzero"/></clipPath><clipPath id="id14"><path d="M 152.71875 372 L 634.257812 372 L 634.257812 397 L 152.71875 397 Z M 152.71875 372 " clip-rule="nonzero"/></clipPath><clipPath id="id15"><path d="M 152.71875 399 L 634.257812 399 L 634.257812 423 L 152.71875 423 Z M 152.71875 399 " clip-rule="nonzero"/></clipPath><clipPath id="id16"><path d="M 152.71875 425 L 634.257812 425 L 634.257812 450 L 152.71875 450 Z M 152.71875 425 " clip-rule="nonzero"/></clipPath><clipPath id="id17"><path d="M 152.71875 451 L 634.257812 451 L 634.257812 476 L 152.71875 476 Z M 152.71875 451 " clip-rule="nonzero"/></clipPath><clipPath id="id18"><path d="M 152.71875 477 L 634.257812 477 L 634.257812 502 L 152.71875 502 Z M 152.71875 477 " clip-rule="nonzero"/></clipPath><clipPath id="id19"><path d="M 152.71875 503 L 634.257812 503 L 634.257812 528 L 152.71875 528 Z M 152.71875 503 " clip-rule="nonzero"/></clipPath><clipPath id="id20"><path d="M 152.71875 530 L 634.257812 530 L 634.257812 555 L 152.71875 555 Z M 152.71875 530 " clip-rule="nonzero"/></clipPath><clipPath id="id21"><path d="M 152.71875 556 L 634.257812 556 L 634.257812 581 L 152.71875 581 Z M 152.71875 556 " clip-rule="nonzero"/></clipPath><clipPath id="id22"><path d="M 152.71875 582 L 634.257812 582 L 634.257812 606.460938 L 152.71875 606.460938 Z M 152.71875 582 " clip-rule="nonzero"/></clipPath><clipPath id="id23"><path d="M 67.898438 68 L 636 68 L 636 635.808594 L 67.898438 635.808594 Z M 67.898438 68 " clip-rule="nonzero"/></clipPath></defs><g mask="url(#id2)"><g transform="matrix(1, 0, 0, 1, 149, 165)"><g clip-path="url(#id4)"><g clip-path="url(#id3)"><path fill="#000000" d="M 62.867188 225.101562 C -17.636719 186.101562 -18.046875 71.945312 61.929688 31.902344 C 161.699219 -18.015625 299.828125 -28.128906 437.378906 153.066406 C 437.378906 153.066406 525.515625 270.851562 363.855469 430.398438 C 294.949219 498.414062 178.289062 448.550781 180.367188 351.765625 C 181.261719 309.71875 157.566406 270.980469 119.6875 252.640625 Z M 62.867188 225.101562 " fill-opacity="1" fill-rule="nonzero"/></g></g></g></g><g clip-path="url(#id5)"><path fill="#ffffff" d="M 585.460938 160.71875 L 537.472656 140.550781 L 489.480469 160.71875 L 441.488281 140.550781 L 393.496094 160.71875 L 345.503906 140.550781 L 297.511719 160.71875 L 249.519531 140.550781 L 201.535156 160.71875 L 152.890625 140.28125 L 154.195312 137.183594 L 201.535156 157.078125 L 249.519531 136.90625 L 297.511719 157.078125 L 345.503906 136.90625 L 393.496094 157.078125 L 441.488281 136.90625 L 489.480469 157.078125 L 537.472656 136.90625 L 585.460938 157.078125 L 632.808594 137.183594 L 634.113281 140.28125 Z M 585.460938 160.71875 " fill-opacity="1" fill-rule="nonzero"/></g><g clip-path="url(#id6)"><path fill="#ffffff" d="M 585.460938 186.941406 L 537.472656 166.769531 L 489.480469 186.941406 L 441.488281 166.769531 L 393.496094 186.941406 L 345.503906 166.769531 L 297.511719 186.941406 L 249.519531 166.769531 L 201.535156 186.941406 L 152.890625 166.503906 L 154.195312 163.402344 L 201.535156 183.296875 L 249.519531 163.128906 L 297.511719 183.296875 L 345.503906 163.128906 L 393.496094 183.296875 L 441.488281 163.128906 L 489.480469 183.296875 L 537.472656 163.128906 L 585.460938 183.296875 L 632.808594 163.402344 L 634.113281 166.503906 Z M 585.460938 186.941406 " fill-opacity="1" fill-rule="nonzero"/></g><g clip-path="url(#id7)"><path fill="#ffffff" d="M 585.460938 213.160156 L 537.472656 192.992188 L 489.480469 213.160156 L 441.488281 192.992188 L 393.496094 213.160156 L 345.503906 192.992188 L 297.511719 213.160156 L 249.519531 192.992188 L 201.535156 213.160156 L 152.890625 192.722656 L 154.195312 189.625 L 201.535156 209.519531 L 249.519531 189.347656 L 297.511719 209.519531 L 345.503906 189.347656 L 393.496094 209.519531 L 441.488281 189.347656 L 489.480469 209.519531 L 537.472656 189.347656 L 585.460938 209.519531 L 632.808594 189.625 L 634.113281 192.722656 Z M 585.460938 213.160156 " fill-opacity="1" fill-rule="nonzero"/></g><g clip-path="url(#id8)"><path fill="#ffffff" d="M 585.460938 239.382812 L 537.472656 219.214844 L 489.480469 239.382812 L 441.488281 219.214844 L 393.496094 239.382812 L 345.503906 219.214844 L 297.511719 239.382812 L 249.519531 219.214844 L 201.535156 239.382812 L 152.890625 218.945312 L 154.195312 215.84375 L 201.535156 235.738281 L 249.519531 215.570312 L 297.511719 235.738281 L 345.503906 215.570312 L 393.496094 235.738281 L 441.488281 215.570312 L 489.480469 235.738281 L 537.472656 215.570312 L 585.460938 235.738281 L 632.808594 215.84375 L 634.113281 218.945312 Z M 585.460938 239.382812 " fill-opacity="1" fill-rule="nonzero"/></g><g clip-path="url(#id9)"><path fill="#ffffff" d="M 585.460938 265.605469 L 537.472656 245.433594 L 489.480469 265.605469 L 441.488281 245.433594 L 393.496094 265.605469 L 345.503906 245.433594 L 297.511719 265.605469 L 249.519531 245.433594 L 201.535156 265.605469 L 152.890625 245.164062 L 154.195312 242.066406 L 201.535156 261.960938 L 249.519531 241.789062 L 297.511719 261.960938 L 345.503906 241.789062 L 393.496094 261.960938 L 441.488281 241.789062 L 489.480469 261.960938 L 537.472656 241.789062 L 585.460938 261.960938 L 632.808594 242.066406 L 634.113281 245.164062 Z M 585.460938 265.605469 " fill-opacity="1" fill-rule="nonzero"/></g><g clip-path="url(#id10)"><path fill="#ffffff" d="M 585.460938 291.824219 L 537.472656 271.65625 L 489.480469 291.824219 L 441.488281 271.65625 L 393.496094 291.824219 L 345.503906 271.65625 L 297.511719 291.824219 L 249.519531 271.65625 L 201.535156 291.824219 L 152.890625 271.386719 L 154.195312 268.285156 L 201.535156 288.179688 L 249.519531 268.011719 L 297.511719 288.179688 L 345.503906 268.011719 L 393.496094 288.179688 L 441.488281 268.011719 L 489.480469 288.179688 L 537.472656 268.011719 L 585.460938 288.179688 L 632.808594 268.285156 L 634.113281 271.386719 Z M 585.460938 291.824219 " fill-opacity="1" fill-rule="nonzero"/></g><g clip-path="url(#id11)"><path fill="#ffffff" d="M 585.460938 318.046875 L 537.472656 297.875 L 489.480469 318.046875 L 441.488281 297.875 L 393.496094 318.046875 L 345.503906 297.875 L 297.511719 318.046875 L 249.519531 297.875 L 201.535156 318.046875 L 152.890625 297.605469 L 154.195312 294.507812 L 201.535156 314.402344 L 249.519531 294.230469 L 297.511719 314.402344 L 345.503906 294.230469 L 393.496094 314.402344 L 441.488281 294.230469 L 489.480469 314.402344 L 537.472656 294.230469 L 585.460938 314.402344 L 632.808594 294.507812 L 634.113281 297.605469 Z M 585.460938 318.046875 " fill-opacity="1" fill-rule="nonzero"/></g><g clip-path="url(#id12)"><path fill="#ffffff" d="M 585.460938 344.265625 L 537.472656 324.097656 L 489.480469 344.265625 L 441.488281 324.097656 L 393.496094 344.265625 L 345.503906 324.097656 L 297.511719 344.265625 L 249.519531 324.097656 L 201.535156 344.265625 L 152.890625 323.828125 L 154.195312 320.726562 L 201.535156 340.621094 L 249.519531 320.453125 L 297.511719 340.621094 L 345.503906 320.453125 L 393.496094 340.621094 L 441.488281 320.453125 L 489.480469 340.621094 L 537.472656 320.453125 L 585.460938 340.621094 L 632.808594 320.726562 L 634.113281 323.828125 Z M 585.460938 344.265625 " fill-opacity="1" fill-rule="nonzero"/></g><g clip-path="url(#id13)"><path fill="#ffffff" d="M 585.460938 370.488281 L 537.472656 350.316406 L 489.480469 370.488281 L 441.488281 350.316406 L 393.496094 370.488281 L 345.503906 350.316406 L 297.511719 370.488281 L 249.519531 350.316406 L 201.535156 370.488281 L 152.890625 350.046875 L 154.195312 346.949219 L 201.535156 366.84375 L 249.519531 346.671875 L 297.511719 366.84375 L 345.503906 346.671875 L 393.496094 366.84375 L 441.488281 346.671875 L 489.480469 366.84375 L 537.472656 346.671875 L 585.460938 366.84375 L 632.808594 346.949219 L 634.113281 350.046875 Z M 585.460938 370.488281 " fill-opacity="1" fill-rule="nonzero"/></g><g clip-path="url(#id14)"><path fill="#ffffff" d="M 585.460938 396.707031 L 537.472656 376.539062 L 489.480469 396.707031 L 441.488281 376.539062 L 393.496094 396.707031 L 345.503906 376.539062 L 297.511719 396.707031 L 249.519531 376.539062 L 201.535156 396.707031 L 152.890625 376.269531 L 154.195312 373.167969 L 201.535156 393.0625 L 249.519531 372.894531 L 297.511719 393.0625 L 345.503906 372.894531 L 393.496094 393.0625 L 441.488281 372.894531 L 489.480469 393.0625 L 537.472656 372.894531 L 585.460938 393.0625 L 632.808594 373.167969 L 634.113281 376.269531 Z M 585.460938 396.707031 " fill-opacity="1" fill-rule="nonzero"/></g><g clip-path="url(#id15)"><path fill="#ffffff" d="M 585.460938 422.929688 L 537.472656 402.757812 L 489.480469 422.929688 L 441.488281 402.757812 L 393.496094 422.929688 L 345.503906 402.757812 L 297.511719 422.929688 L 249.519531 402.757812 L 201.535156 422.929688 L 152.890625 402.488281 L 154.195312 399.390625 L 201.535156 419.285156 L 249.519531 399.113281 L 297.511719 419.285156 L 345.503906 399.113281 L 393.496094 419.285156 L 441.488281 399.113281 L 489.480469 419.285156 L 537.472656 399.113281 L 585.460938 419.285156 L 632.808594 399.390625 L 634.113281 402.488281 Z M 585.460938 422.929688 " fill-opacity="1" fill-rule="nonzero"/></g><g clip-path="url(#id16)"><path fill="#ffffff" d="M 585.460938 449.148438 L 537.472656 428.980469 L 489.480469 449.148438 L 441.488281 428.980469 L 393.496094 449.148438 L 345.503906 428.980469 L 297.511719 449.148438 L 249.519531 428.980469 L 201.535156 449.148438 L 152.890625 428.710938 L 154.195312 425.609375 L 201.535156 445.503906 L 249.519531 425.335938 L 297.511719 445.503906 L 345.503906 425.335938 L 393.496094 445.503906 L 441.488281 425.335938 L 489.480469 445.503906 L 537.472656 425.335938 L 585.460938 445.503906 L 632.808594 425.609375 L 634.113281 428.710938 Z M 585.460938 449.148438 " fill-opacity="1" fill-rule="nonzero"/></g><g clip-path="url(#id17)"><path fill="#ffffff" d="M 585.460938 475.371094 L 537.472656 455.199219 L 489.480469 475.371094 L 441.488281 455.199219 L 393.496094 475.371094 L 345.503906 455.199219 L 297.511719 475.371094 L 249.519531 455.199219 L 201.535156 475.371094 L 152.890625 454.929688 L 154.195312 451.832031 L 201.535156 471.726562 L 249.519531 451.554688 L 297.511719 471.726562 L 345.503906 451.554688 L 393.496094 471.726562 L 441.488281 451.554688 L 489.480469 471.726562 L 537.472656 451.554688 L 585.460938 471.726562 L 632.808594 451.832031 L 634.113281 454.929688 Z M 585.460938 475.371094 " fill-opacity="1" fill-rule="nonzero"/></g><g clip-path="url(#id18)"><path fill="#ffffff" d="M 585.460938 501.589844 L 537.472656 481.421875 L 489.480469 501.589844 L 441.488281 481.421875 L 393.496094 501.589844 L 345.503906 481.421875 L 297.511719 501.589844 L 249.519531 481.421875 L 201.535156 501.589844 L 152.890625 481.152344 L 154.195312 478.054688 L 201.535156 497.945312 L 249.519531 477.777344 L 297.511719 497.945312 L 345.503906 477.777344 L 393.496094 497.945312 L 441.488281 477.777344 L 489.480469 497.945312 L 537.472656 477.777344 L 585.460938 497.945312 L 632.808594 478.054688 L 634.113281 481.152344 Z M 585.460938 501.589844 " fill-opacity="1" fill-rule="nonzero"/></g><g clip-path="url(#id19)"><path fill="#ffffff" d="M 585.460938 527.8125 L 537.472656 507.640625 L 489.480469 527.8125 L 441.488281 507.640625 L 393.496094 527.8125 L 345.503906 507.640625 L 297.511719 527.8125 L 249.519531 507.640625 L 201.535156 527.8125 L 152.890625 507.375 L 154.195312 504.273438 L 201.535156 524.167969 L 249.519531 503.996094 L 297.511719 524.167969 L 345.503906 503.996094 L 393.496094 524.167969 L 441.488281 503.996094 L 489.480469 524.167969 L 537.472656 503.996094 L 585.460938 524.167969 L 632.808594 504.273438 L 634.113281 507.375 Z M 585.460938 527.8125 " fill-opacity="1" fill-rule="nonzero"/></g><g clip-path="url(#id20)"><path fill="#ffffff" d="M 585.460938 554.03125 L 537.472656 533.863281 L 489.480469 554.03125 L 441.488281 533.863281 L 393.496094 554.03125 L 345.503906 533.863281 L 297.511719 554.03125 L 249.519531 533.863281 L 201.535156 554.03125 L 152.890625 533.59375 L 154.195312 530.496094 L 201.535156 550.390625 L 249.519531 530.21875 L 297.511719 550.390625 L 345.503906 530.21875 L 393.496094 550.390625 L 441.488281 530.21875 L 489.480469 550.390625 L 537.472656 530.21875 L 585.460938 550.390625 L 632.808594 530.496094 L 634.113281 533.59375 Z M 585.460938 554.03125 " fill-opacity="1" fill-rule="nonzero"/></g><g clip-path="url(#id21)"><path fill="#ffffff" d="M 585.460938 580.253906 L 537.472656 560.082031 L 489.480469 580.253906 L 441.488281 560.082031 L 393.496094 580.253906 L 345.503906 560.082031 L 297.511719 580.253906 L 249.519531 560.082031 L 201.535156 580.253906 L 152.890625 559.816406 L 154.195312 556.714844 L 201.535156 576.609375 L 249.519531 556.441406 L 297.511719 576.609375 L 345.503906 556.441406 L 393.496094 576.609375 L 441.488281 556.441406 L 489.480469 576.609375 L 537.472656 556.441406 L 585.460938 576.609375 L 632.808594 556.714844 L 634.113281 559.816406 Z M 585.460938 580.253906 " fill-opacity="1" fill-rule="nonzero"/></g><g clip-path="url(#id22)"><path fill="#ffffff" d="M 585.460938 606.472656 L 537.472656 586.304688 L 489.480469 606.472656 L 441.488281 586.304688 L 393.496094 606.472656 L 345.503906 586.304688 L 297.511719 606.472656 L 249.519531 586.304688 L 201.535156 606.472656 L 152.890625 586.035156 L 154.195312 582.9375 L 201.535156 602.832031 L 249.519531 582.660156 L 297.511719 602.832031 L 345.503906 582.660156 L 393.496094 602.832031 L 441.488281 582.660156 L 489.480469 602.832031 L 537.472656 582.660156 L 585.460938 602.832031 L 632.808594 582.9375 L 634.113281 586.035156 Z M 585.460938 606.472656 " fill-opacity="1" fill-rule="nonzero"/></g><g clip-path="url(#id23)"><path fill="#000000" d="M 626.078125 616.890625 L 86.878906 616.890625 L 86.878906 77.6875 C 86.878906 77.066406 86.816406 76.453125 86.695312 75.84375 C 86.574219 75.234375 86.394531 74.640625 86.15625 74.066406 C 85.921875 73.492188 85.628906 72.949219 85.285156 72.433594 C 84.9375 71.914062 84.546875 71.4375 84.105469 71 C 83.667969 70.558594 83.191406 70.167969 82.671875 69.820312 C 82.15625 69.476562 81.613281 69.1875 81.039062 68.949219 C 80.464844 68.710938 79.871094 68.53125 79.265625 68.410156 C 78.65625 68.289062 78.039062 68.226562 77.417969 68.226562 C 76.796875 68.226562 76.183594 68.289062 75.574219 68.410156 C 74.964844 68.53125 74.371094 68.710938 73.796875 68.949219 C 73.222656 69.1875 72.679688 69.476562 72.164062 69.820312 C 71.644531 70.167969 71.167969 70.558594 70.730469 71 C 70.289062 71.4375 69.898438 71.914062 69.554688 72.433594 C 69.207031 72.949219 68.917969 73.492188 68.679688 74.066406 C 68.441406 74.640625 68.261719 75.234375 68.140625 75.84375 C 68.019531 76.453125 67.957031 77.066406 67.957031 77.6875 L 67.957031 626.347656 C 67.957031 626.96875 68.019531 627.585938 68.140625 628.195312 C 68.261719 628.804688 68.441406 629.394531 68.679688 629.96875 C 68.917969 630.542969 69.207031 631.085938 69.554688 631.605469 C 69.898438 632.121094 70.289062 632.597656 70.730469 633.039062 C 71.167969 633.476562 71.644531 633.867188 72.164062 634.214844 C 72.679688 634.558594 73.222656 634.851562 73.796875 635.085938 C 74.371094 635.324219 74.964844 635.503906 75.574219 635.625 C 76.183594 635.746094 76.796875 635.808594 77.417969 635.808594 L 626.078125 635.808594 C 626.699219 635.808594 627.316406 635.746094 627.925781 635.625 C 628.535156 635.503906 629.125 635.324219 629.699219 635.089844 C 630.273438 634.851562 630.816406 634.558594 631.335938 634.214844 C 631.851562 633.867188 632.328125 633.476562 632.769531 633.039062 C 633.207031 632.597656 633.597656 632.121094 633.945312 631.605469 C 634.289062 631.085938 634.582031 630.542969 634.820312 629.96875 C 635.054688 629.394531 635.234375 628.804688 635.355469 628.195312 C 635.476562 627.585938 635.539062 626.96875 635.539062 626.347656 C 635.539062 625.726562 635.476562 625.113281 635.355469 624.503906 C 635.234375 623.894531 635.054688 623.300781 634.820312 622.726562 C 634.582031 622.15625 634.289062 621.609375 633.945312 621.09375 C 633.597656 620.578125 633.207031 620.097656 632.769531 619.660156 C 632.328125 619.21875 631.851562 618.828125 631.335938 618.484375 C 630.816406 618.136719 630.273438 617.847656 629.699219 617.609375 C 629.125 617.371094 628.535156 617.191406 627.925781 617.070312 C 627.316406 616.949219 626.699219 616.890625 626.078125 616.890625 Z M 626.078125 616.890625 " fill-opacity="1" fill-rule="nonzero"/></g><path fill="#000000" d="M 506.191406 210.121094 C 506.191406 210.742188 506.128906 211.359375 506.007812 211.96875 C 505.886719 212.578125 505.707031 213.167969 505.46875 213.742188 C 505.230469 214.316406 504.941406 214.863281 504.59375 215.378906 C 504.25 215.894531 503.859375 216.371094 503.417969 216.8125 C 502.980469 217.25 502.5 217.644531 501.984375 217.988281 C 501.46875 218.332031 500.921875 218.625 500.351562 218.863281 C 499.777344 219.101562 499.183594 219.28125 498.574219 219.402344 C 497.964844 219.523438 497.351562 219.582031 496.730469 219.582031 C 496.109375 219.582031 495.492188 219.523438 494.882812 219.402344 C 494.273438 219.28125 493.683594 219.101562 493.109375 218.863281 C 492.535156 218.625 491.992188 218.332031 491.472656 217.988281 C 490.957031 217.644531 490.480469 217.25 490.039062 216.8125 C 489.601562 216.371094 489.210938 215.894531 488.863281 215.378906 C 488.519531 214.863281 488.226562 214.316406 487.988281 213.742188 C 487.753906 213.167969 487.574219 212.578125 487.453125 211.96875 C 487.332031 211.359375 487.269531 210.742188 487.269531 210.121094 C 487.269531 209.5 487.332031 208.886719 487.453125 208.277344 C 487.574219 207.667969 487.753906 207.078125 487.988281 206.503906 C 488.226562 205.929688 488.519531 205.382812 488.863281 204.867188 C 489.210938 204.351562 489.601562 203.875 490.039062 203.433594 C 490.480469 202.996094 490.957031 202.601562 491.472656 202.257812 C 491.992188 201.914062 492.535156 201.621094 493.109375 201.382812 C 493.683594 201.144531 494.273438 200.964844 494.882812 200.84375 C 495.492188 200.722656 496.109375 200.664062 496.730469 200.664062 C 497.351562 200.664062 497.964844 200.722656 498.574219 200.84375 C 499.183594 200.964844 499.777344 201.144531 500.351562 201.382812 C 500.921875 201.621094 501.46875 201.914062 501.984375 202.257812 C 502.5 202.601562 502.980469 202.996094 503.417969 203.433594 C 503.859375 203.875 504.25 204.351562 504.59375 204.867188 C 504.941406 205.382812 505.230469 205.929688 505.46875 206.503906 C 505.707031 207.078125 505.886719 207.667969 506.007812 208.277344 C 506.128906 208.886719 506.191406 209.5 506.191406 210.121094 Z M 506.191406 210.121094 " fill-opacity="1" fill-rule="nonzero"/><path fill="#000000" d="M 626.078125 153.363281 C 627.027344 153.363281 627.957031 153.222656 628.863281 152.945312 C 629.769531 152.664062 630.617188 152.257812 631.398438 151.722656 C 632.183594 151.1875 632.871094 150.546875 633.464844 149.804688 C 634.054688 149.066406 634.527344 148.253906 634.875 147.367188 C 635.222656 146.484375 635.429688 145.570312 635.503906 144.625 C 635.574219 143.679688 635.507812 142.742188 635.296875 141.816406 C 635.085938 140.890625 634.746094 140.015625 634.273438 139.195312 C 633.800781 138.371094 633.21875 137.636719 632.523438 136.988281 L 561.574219 70.769531 C 561.140625 70.363281 560.671875 70.003906 560.171875 69.6875 C 559.667969 69.371094 559.140625 69.101562 558.589844 68.882812 C 558.039062 68.664062 557.46875 68.5 556.886719 68.390625 C 556.300781 68.28125 555.714844 68.222656 555.121094 68.222656 C 554.527344 68.222656 553.9375 68.28125 553.355469 68.390625 C 552.769531 68.5 552.203125 68.664062 551.648438 68.882812 C 551.097656 69.101562 550.570312 69.371094 550.066406 69.6875 C 549.566406 70.003906 549.097656 70.363281 548.664062 70.769531 L 477.714844 136.988281 C 477.019531 137.636719 476.4375 138.371094 475.964844 139.195312 C 475.492188 140.019531 475.148438 140.894531 474.941406 141.824219 C 474.730469 142.75 474.664062 143.6875 474.738281 144.632812 C 474.808594 145.582031 475.019531 146.496094 475.371094 147.378906 C 475.71875 148.265625 476.191406 149.078125 476.785156 149.816406 C 477.378906 150.558594 478.070312 151.199219 478.855469 151.730469 C 479.640625 152.265625 480.488281 152.671875 481.394531 152.949219 C 482.304688 153.226562 483.234375 153.367188 484.183594 153.363281 L 509.359375 153.363281 C 507.078125 160.613281 504.570312 167.777344 501.875 174.792969 C 501.660156 175.367188 501.5 175.960938 501.402344 176.570312 C 501.304688 177.179688 501.265625 177.792969 501.285156 178.40625 C 501.304688 179.023438 501.386719 179.632812 501.523438 180.234375 C 501.664062 180.835938 501.863281 181.414062 502.113281 181.976562 C 502.367188 182.539062 502.671875 183.070312 503.03125 183.574219 C 503.386719 184.078125 503.792969 184.539062 504.238281 184.964844 C 504.6875 185.386719 505.171875 185.761719 505.695312 186.09375 C 506.214844 186.421875 506.765625 186.695312 507.339844 186.917969 C 507.914062 187.140625 508.507812 187.304688 509.113281 187.410156 C 509.722656 187.515625 510.332031 187.5625 510.949219 187.546875 C 511.566406 187.535156 512.175781 187.460938 512.777344 187.328125 C 513.378906 187.195312 513.964844 187.003906 514.527344 186.757812 C 515.09375 186.511719 515.628906 186.210938 516.136719 185.859375 C 516.640625 185.507812 517.109375 185.109375 517.539062 184.667969 C 517.96875 184.226562 518.347656 183.742188 518.683594 183.226562 C 519.019531 182.707031 519.300781 182.164062 519.527344 181.589844 C 523.925781 170.15625 527.804688 158.332031 531.140625 146.4375 C 531.234375 146.085938 531.308594 145.730469 531.359375 145.375 C 531.414062 145.015625 531.449219 144.65625 531.460938 144.292969 C 531.472656 143.929688 531.464844 143.566406 531.4375 143.207031 C 531.40625 142.847656 531.359375 142.488281 531.289062 142.132812 C 531.21875 141.777344 531.128906 141.425781 531.019531 141.082031 C 530.910156 140.734375 530.78125 140.398438 530.632812 140.066406 C 530.484375 139.734375 530.316406 139.414062 530.132812 139.101562 C 529.945312 138.792969 529.742188 138.492188 529.523438 138.203125 C 529.304688 137.914062 529.070312 137.640625 528.820312 137.378906 C 528.570312 137.117188 528.304688 136.871094 528.023438 136.636719 C 527.746094 136.40625 527.453125 136.191406 527.152344 135.992188 C 526.847656 135.796875 526.535156 135.617188 526.210938 135.453125 C 525.886719 135.289062 525.554688 135.148438 525.214844 135.023438 C 524.871094 134.898438 524.527344 134.792969 524.175781 134.710938 C 523.820312 134.625 523.464844 134.558594 523.105469 134.515625 C 522.746094 134.472656 522.386719 134.449219 522.023438 134.445312 L 508.175781 134.445312 L 555.132812 90.695312 L 602.050781 134.445312 L 586.539062 134.445312 C 586.007812 134.445312 585.484375 134.488281 584.964844 134.578125 C 584.445312 134.664062 583.933594 134.796875 583.4375 134.96875 C 582.9375 135.140625 582.457031 135.355469 581.992188 135.609375 C 581.53125 135.863281 581.09375 136.152344 580.679688 136.480469 C 580.265625 136.804688 579.878906 137.164062 579.523438 137.558594 C 579.171875 137.949219 578.851562 138.367188 578.566406 138.8125 C 578.285156 139.257812 578.039062 139.722656 577.832031 140.207031 C 577.625 140.691406 577.460938 141.191406 577.339844 141.707031 C 534.496094 321.273438 375.609375 446.613281 190.933594 446.613281 L 124.714844 446.613281 L 124.714844 408.777344 L 190.933594 408.777344 C 313.449219 408.777344 421.171875 349.890625 486.550781 247.226562 C 486.882812 246.703125 487.160156 246.152344 487.382812 245.574219 C 487.609375 244.996094 487.773438 244.398438 487.882812 243.789062 C 487.988281 243.175781 488.035156 242.5625 488.023438 241.941406 C 488.007812 241.320312 487.933594 240.707031 487.796875 240.101562 C 487.664062 239.492188 487.472656 238.90625 487.21875 238.339844 C 486.96875 237.769531 486.667969 237.230469 486.3125 236.722656 C 485.953125 236.214844 485.550781 235.746094 485.101562 235.316406 C 484.65625 234.886719 484.167969 234.507812 483.644531 234.171875 C 483.121094 233.839844 482.570312 233.558594 481.992188 233.335938 C 481.414062 233.109375 480.816406 232.941406 480.207031 232.835938 C 479.59375 232.726562 478.980469 232.679688 478.359375 232.691406 C 477.738281 232.707031 477.125 232.78125 476.519531 232.914062 C 475.910156 233.046875 475.324219 233.238281 474.757812 233.488281 C 474.1875 233.738281 473.648438 234.042969 473.140625 234.398438 C 472.632812 234.753906 472.160156 235.15625 471.730469 235.601562 C 471.300781 236.050781 470.921875 236.535156 470.585938 237.058594 C 408.753906 334.175781 306.816406 389.855469 190.933594 389.855469 L 115.257812 389.855469 C 114.636719 389.855469 114.019531 389.917969 113.410156 390.039062 C 112.800781 390.160156 112.210938 390.339844 111.636719 390.578125 C 111.0625 390.8125 110.519531 391.105469 110 391.449219 C 109.484375 391.796875 109.007812 392.1875 108.566406 392.628906 C 108.128906 393.066406 107.738281 393.542969 107.390625 394.0625 C 107.046875 394.578125 106.753906 395.121094 106.515625 395.695312 C 106.28125 396.269531 106.101562 396.863281 105.980469 397.472656 C 105.859375 398.078125 105.796875 398.695312 105.796875 399.316406 L 105.796875 456.074219 C 105.796875 456.695312 105.859375 457.3125 105.980469 457.917969 C 106.101562 458.527344 106.28125 459.121094 106.515625 459.695312 C 106.753906 460.269531 107.046875 460.8125 107.390625 461.328125 C 107.738281 461.847656 108.128906 462.324219 108.566406 462.761719 C 109.007812 463.203125 109.484375 463.59375 110 463.941406 C 110.519531 464.285156 111.0625 464.578125 111.636719 464.8125 C 112.210938 465.050781 112.800781 465.230469 113.410156 465.351562 C 114.019531 465.472656 114.636719 465.535156 115.257812 465.535156 L 190.933594 465.535156 C 381.902344 465.535156 546.546875 337.554688 593.941406 153.363281 Z M 626.078125 153.363281 " fill-opacity="1" fill-rule="nonzero"/><path fill="#000000" d="M 115.257812 597.96875 L 172.015625 597.96875 C 172.636719 597.96875 173.25 597.910156 173.859375 597.789062 C 174.46875 597.667969 175.0625 597.488281 175.636719 597.25 C 176.207031 597.011719 176.753906 596.71875 177.269531 596.375 C 177.785156 596.03125 178.265625 595.636719 178.703125 595.199219 C 179.144531 594.757812 179.535156 594.28125 179.878906 593.765625 C 180.226562 593.25 180.515625 592.703125 180.753906 592.128906 C 180.992188 591.554688 181.171875 590.964844 181.292969 590.355469 C 181.414062 589.746094 181.472656 589.128906 181.472656 588.507812 L 181.472656 491.9375 C 181.472656 491.316406 181.414062 490.703125 181.292969 490.09375 C 181.171875 489.484375 180.992188 488.890625 180.753906 488.316406 C 180.515625 487.746094 180.226562 487.199219 179.878906 486.683594 C 179.535156 486.167969 179.144531 485.6875 178.703125 485.25 C 178.265625 484.808594 177.785156 484.417969 177.269531 484.074219 C 176.753906 483.726562 176.207031 483.4375 175.636719 483.199219 C 175.0625 482.960938 174.46875 482.78125 173.859375 482.660156 C 173.25 482.539062 172.636719 482.480469 172.015625 482.480469 L 115.257812 482.480469 C 114.636719 482.480469 114.019531 482.539062 113.410156 482.660156 C 112.800781 482.78125 112.210938 482.960938 111.636719 483.199219 C 111.0625 483.4375 110.519531 483.726562 110 484.074219 C 109.484375 484.417969 109.007812 484.808594 108.566406 485.25 C 108.128906 485.6875 107.738281 486.167969 107.390625 486.683594 C 107.046875 487.199219 106.753906 487.746094 106.515625 488.316406 C 106.28125 488.890625 106.101562 489.484375 105.980469 490.09375 C 105.859375 490.703125 105.796875 491.316406 105.796875 491.9375 L 105.796875 588.507812 C 105.796875 589.128906 105.859375 589.746094 105.980469 590.355469 C 106.101562 590.964844 106.28125 591.554688 106.515625 592.128906 C 106.753906 592.703125 107.046875 593.25 107.390625 593.765625 C 107.738281 594.28125 108.128906 594.757812 108.566406 595.199219 C 109.007812 595.636719 109.484375 596.03125 110 596.375 C 110.519531 596.71875 111.0625 597.011719 111.636719 597.25 C 112.210938 597.488281 112.800781 597.667969 113.410156 597.789062 C 114.019531 597.910156 114.636719 597.96875 115.257812 597.96875 Z M 124.714844 501.398438 L 162.554688 501.398438 L 162.554688 579.050781 L 124.714844 579.050781 Z M 124.714844 501.398438 " fill-opacity="1" fill-rule="nonzero"/><path fill="#000000" d="M 227.992188 481.09375 C 227.40625 481.144531 226.828125 481.246094 226.257812 481.402344 C 225.691406 481.558594 225.140625 481.769531 224.613281 482.027344 C 224.082031 482.285156 223.582031 482.59375 223.109375 482.945312 C 222.636719 483.300781 222.199219 483.691406 221.800781 484.128906 C 221.402344 484.5625 221.050781 485.03125 220.738281 485.53125 C 220.425781 486.03125 220.164062 486.554688 219.953125 487.105469 C 219.738281 487.65625 219.578125 488.222656 219.472656 488.800781 C 219.363281 489.378906 219.3125 489.964844 219.3125 490.554688 L 219.3125 588.507812 C 219.3125 589.128906 219.375 589.746094 219.496094 590.355469 C 219.617188 590.964844 219.796875 591.554688 220.035156 592.128906 C 220.269531 592.703125 220.5625 593.25 220.90625 593.765625 C 221.253906 594.28125 221.644531 594.757812 222.082031 595.199219 C 222.523438 595.636719 223 596.03125 223.515625 596.375 C 224.035156 596.71875 224.578125 597.011719 225.152344 597.25 C 225.726562 597.488281 226.316406 597.667969 226.925781 597.789062 C 227.535156 597.910156 228.152344 597.96875 228.773438 597.96875 L 285.53125 597.96875 C 286.152344 597.96875 286.765625 597.910156 287.375 597.789062 C 287.984375 597.667969 288.578125 597.488281 289.152344 597.25 C 289.726562 597.011719 290.269531 596.71875 290.785156 596.375 C 291.304688 596.03125 291.78125 595.636719 292.21875 595.199219 C 292.660156 594.757812 293.050781 594.28125 293.394531 593.765625 C 293.742188 593.25 294.03125 592.703125 294.269531 592.128906 C 294.507812 591.554688 294.6875 590.964844 294.808594 590.355469 C 294.929688 589.746094 294.992188 589.128906 294.992188 588.507812 L 294.992188 482.089844 C 294.988281 481.738281 294.964844 481.386719 294.921875 481.039062 C 294.882812 480.6875 294.820312 480.34375 294.742188 480 C 294.660156 479.660156 294.5625 479.320312 294.445312 478.992188 C 294.328125 478.660156 294.191406 478.335938 294.039062 478.019531 C 293.886719 477.703125 293.714844 477.394531 293.527344 477.097656 C 293.34375 476.800781 293.140625 476.515625 292.921875 476.238281 C 292.703125 475.964844 292.46875 475.703125 292.21875 475.453125 C 291.972656 475.203125 291.710938 474.96875 291.4375 474.746094 C 291.164062 474.527344 290.878906 474.324219 290.582031 474.132812 C 290.285156 473.945312 289.980469 473.773438 289.664062 473.617188 C 289.351562 473.460938 289.027344 473.324219 288.695312 473.207031 C 288.367188 473.085938 288.03125 472.984375 287.6875 472.902344 C 287.347656 472.820312 287 472.757812 286.652344 472.714844 C 286.304688 472.671875 285.953125 472.644531 285.601562 472.640625 C 285.25 472.636719 284.898438 472.648438 284.550781 472.683594 C 284.199219 472.71875 283.851562 472.769531 283.507812 472.839844 C 265.183594 476.808594 246.679688 479.558594 227.992188 481.09375 Z M 276.070312 579.050781 L 238.234375 579.050781 L 238.234375 499.152344 C 250.992188 497.839844 263.65625 496.007812 276.070312 493.640625 Z M 276.070312 579.050781 " fill-opacity="1" fill-rule="nonzero"/><path fill="#000000" d="M 394.648438 432.683594 C 376.742188 442.128906 358.242188 450.21875 339.15625 456.960938 C 338.230469 457.285156 337.378906 457.742188 336.59375 458.332031 C 335.8125 458.921875 335.136719 459.617188 334.570312 460.417969 C 334.003906 461.214844 333.574219 462.082031 333.273438 463.015625 C 332.976562 463.953125 332.828125 464.910156 332.828125 465.890625 L 332.828125 588.507812 C 332.828125 589.128906 332.890625 589.746094 333.011719 590.355469 C 333.132812 590.964844 333.3125 591.554688 333.550781 592.128906 C 333.785156 592.703125 334.078125 593.25 334.421875 593.765625 C 334.769531 594.28125 335.160156 594.757812 335.601562 595.199219 C 336.039062 595.636719 336.515625 596.03125 337.035156 596.375 C 337.550781 596.71875 338.09375 597.011719 338.667969 597.25 C 339.242188 597.488281 339.835938 597.667969 340.445312 597.789062 C 341.050781 597.910156 341.667969 597.96875 342.289062 597.96875 L 399.046875 597.96875 C 399.667969 597.96875 400.285156 597.910156 400.890625 597.789062 C 401.5 597.667969 402.09375 597.488281 402.667969 597.25 C 403.242188 597.011719 403.785156 596.71875 404.300781 596.375 C 404.820312 596.03125 405.296875 595.636719 405.734375 595.199219 C 406.175781 594.757812 406.566406 594.28125 406.914062 593.765625 C 407.257812 593.25 407.546875 592.703125 407.785156 592.128906 C 408.023438 591.554688 408.203125 590.964844 408.324219 590.355469 C 408.445312 589.746094 408.507812 589.128906 408.507812 588.507812 L 408.507812 441.058594 C 408.71875 434.164062 400.65625 429.304688 394.648438 432.683594 Z M 389.585938 579.050781 L 351.75 579.050781 L 351.75 472.535156 C 364.378906 467.875 377.042969 462.472656 389.585938 456.417969 Z M 389.585938 579.050781 " fill-opacity="1" fill-rule="nonzero"/><path fill="#000000" d="M 505.714844 349.238281 C 488.632812 367.105469 470.125 383.359375 450.199219 397.992188 C 449.601562 398.429688 449.066406 398.933594 448.585938 399.5 C 448.105469 400.066406 447.699219 400.679688 447.363281 401.339844 C 447.03125 402 446.777344 402.691406 446.605469 403.414062 C 446.433594 404.132812 446.34375 404.867188 446.34375 405.605469 L 446.34375 588.507812 C 446.34375 589.128906 446.40625 589.746094 446.527344 590.355469 C 446.648438 590.964844 446.828125 591.554688 447.066406 592.128906 C 447.304688 592.703125 447.59375 593.25 447.941406 593.765625 C 448.285156 594.28125 448.675781 594.757812 449.117188 595.199219 C 449.554688 595.636719 450.03125 596.03125 450.550781 596.375 C 451.066406 596.71875 451.609375 597.011719 452.183594 597.25 C 452.757812 597.488281 453.351562 597.667969 453.960938 597.789062 C 454.570312 597.910156 455.183594 597.96875 455.804688 597.96875 L 512.5625 597.96875 C 513.183594 597.96875 513.800781 597.910156 514.410156 597.789062 C 515.015625 597.667969 515.609375 597.488281 516.183594 597.25 C 516.757812 597.011719 517.300781 596.71875 517.820312 596.375 C 518.335938 596.03125 518.8125 595.636719 519.25 595.199219 C 519.691406 594.757812 520.082031 594.28125 520.429688 593.765625 C 520.773438 593.25 521.066406 592.703125 521.300781 592.128906 C 521.539062 591.554688 521.71875 590.964844 521.839844 590.355469 C 521.960938 589.746094 522.023438 589.128906 522.023438 588.507812 L 522.023438 355.765625 C 522.304688 347.476562 511.238281 343.066406 505.714844 349.238281 Z M 503.101562 579.050781 L 465.265625 579.050781 L 465.265625 410.359375 C 478.46875 400.4375 491.082031 389.816406 503.101562 378.492188 Z M 503.101562 579.050781 " fill-opacity="1" fill-rule="nonzero"/><path fill="#000000" d="M 626.078125 181.742188 L 615.4375 181.742188 C 614.433594 181.742188 613.457031 181.898438 612.503906 182.210938 C 611.550781 182.519531 610.667969 182.972656 609.859375 183.5625 C 609.050781 184.152344 608.351562 184.855469 607.765625 185.667969 C 607.179688 186.480469 606.730469 187.363281 606.425781 188.320312 C 595.570312 222.386719 580.558594 254.507812 561.386719 284.6875 C 560.398438 286.238281 559.90625 287.933594 559.910156 289.773438 L 559.910156 588.507812 C 559.910156 589.128906 559.96875 589.746094 560.089844 590.355469 C 560.210938 590.964844 560.390625 591.554688 560.628906 592.128906 C 560.867188 592.703125 561.15625 593.25 561.503906 593.765625 C 561.847656 594.28125 562.238281 594.757812 562.679688 595.199219 C 563.117188 595.636719 563.597656 596.03125 564.113281 596.375 C 564.628906 596.71875 565.175781 597.011719 565.75 597.25 C 566.320312 597.488281 566.914062 597.667969 567.523438 597.789062 C 568.132812 597.910156 568.746094 597.96875 569.367188 597.96875 L 626.125 597.96875 C 626.746094 597.96875 627.363281 597.910156 627.972656 597.789062 C 628.582031 597.667969 629.171875 597.488281 629.746094 597.25 C 630.320312 597.011719 630.867188 596.71875 631.382812 596.375 C 631.898438 596.03125 632.375 595.636719 632.816406 595.199219 C 633.253906 594.757812 633.648438 594.28125 633.992188 593.765625 C 634.335938 593.25 634.628906 592.703125 634.867188 592.128906 C 635.105469 591.554688 635.28125 590.964844 635.402344 590.355469 C 635.523438 589.746094 635.585938 589.128906 635.585938 588.507812 L 635.585938 191.203125 C 635.585938 190.582031 635.523438 189.964844 635.402344 189.351562 C 635.28125 188.742188 635.101562 188.148438 634.863281 187.574219 C 634.621094 186.996094 634.328125 186.449219 633.980469 185.933594 C 633.636719 185.414062 633.242188 184.9375 632.796875 184.496094 C 632.355469 184.058594 631.875 183.667969 631.355469 183.320312 C 630.839844 182.976562 630.289062 182.6875 629.714844 182.449219 C 629.136719 182.214844 628.542969 182.035156 627.929688 181.917969 C 627.320312 181.796875 626.703125 181.742188 626.078125 181.742188 Z M 616.621094 579.050781 L 578.78125 579.050781 L 578.78125 292.503906 C 593.90625 268.367188 606.519531 242.980469 616.621094 216.34375 Z M 616.621094 579.050781 " fill-opacity="1" fill-rule="nonzero"/></svg>