<svg xmlns="http://www.w3.org/2000/svg" xmlns:xlink="http://www.w3.org/1999/xlink" width="900" zoomAndPan="magnify" viewBox="0 0 675 675.000002" height="900" preserveAspectRatio="xMidYMid meet" version="1.0"><defs><filter x="0%" y="0%" width="100%" height="100%" id="id1"><feColorMatrix values="0 0 0 0 1 0 0 0 0 1 0 0 0 0 1 0 0 0 1 0" color-interpolation-filters="sRGB"/></filter><mask id="id2"><g filter="url(#id1)"><rect x="-67.5" width="810" fill="#000000" y="-67.5" height="810.000002" fill-opacity="0.1176"/></g></mask><clipPath id="id3"><path d="M 2 0.355469 L 462 0.355469 L 462 462 L 2 462 Z M 2 0.355469 " clip-rule="nonzero"/></clipPath><clipPath id="id4"><rect x="0" width="463" y="0" height="463"/></clipPath><clipPath id="id5"><path d="M 152.71875 136.90625 L 634.257812 136.90625 L 634.257812 161 L 152.71875 161 Z M 152.71875 136.90625 " clip-rule="nonzero"/></clipPath><clipPath id="id6"><path d="M 152.71875 163 L 634.257812 163 L 634.257812 187 L 152.71875 187 Z M 152.71875 163 " clip-rule="nonzero"/></clipPath><clipPath id="id7"><path d="M 152.71875 189 L 634.257812 189 L 634.257812 214 L 152.71875 214 Z M 152.71875 189 " clip-rule="nonzero"/></clipPath><clipPath id="id8"><path d="M 152.71875 215 L 634.257812 215 L 634.257812 240 L 152.71875 240 Z M 152.71875 215 " clip-rule="nonzero"/></clipPath><clipPath id="id9"><path d="M 152.71875 241 L 634.257812 241 L 634.257812 266 L 152.71875 266 Z M 152.71875 241 " clip-rule="nonzero"/></clipPath><clipPath id="id10"><path d="M 152.71875 268 L 634.257812 268 L 634.257812 292 L 152.71875 292 Z M 152.71875 268 " clip-rule="nonzero"/></clipPath><clipPath id="id11"><path d="M 152.71875 294 L 634.257812 294 L 634.257812 319 L 152.71875 319 Z M 152.71875 294 " clip-rule="nonzero"/></clipPath><clipPath id="id12"><path d="M 152.71875 320 L 634.257812 320 L 634.257812 345 L 152.71875 345 Z M 152.71875 320 " clip-rule="nonzero"/></clipPath><clipPath id="id13"><path d="M 152.71875 346 L 634.257812 346 L 634.257812 371 L 152.71875 371 Z M 152.71875 346 " clip-rule="nonzero"/></clipPath><clipPath id="id14"><path d="M 152.71875 372 L 634.257812 372 L 634.257812 397 L 152.71875 397 Z M 152.71875 372 " clip-rule="nonzero"/></clipPath><clipPath id="id15"><path d="M 152.71875 399 L 634.257812 399 L 634.257812 423 L 152.71875 423 Z M 152.71875 399 " clip-rule="nonzero"/></clipPath><clipPath id="id16"><path d="M 152.71875 425 L 634.257812 425 L 634.257812 450 L 152.71875 450 Z M 152.71875 425 " clip-rule="nonzero"/></clipPath><clipPath id="id17"><path d="M 152.71875 451 L 634.257812 451 L 634.257812 476 L 152.71875 476 Z M 152.71875 451 " clip-rule="nonzero"/></clipPath><clipPath id="id18"><path d="M 152.71875 477 L 634.257812 477 L 634.257812 502 L 152.71875 502 Z M 152.71875 477 " clip-rule="nonzero"/></clipPath><clipPath id="id19"><path d="M 152.71875 503 L 634.257812 503 L 634.257812 528 L 152.71875 528 Z M 152.71875 503 " clip-rule="nonzero"/></clipPath><clipPath id="id20"><path d="M 152.71875 530 L 634.257812 530 L 634.257812 555 L 152.71875 555 Z M 152.71875 530 " clip-rule="nonzero"/></clipPath><clipPath id="id21"><path d="M 152.71875 556 L 634.257812 556 L 634.257812 581 L 152.71875 581 Z M 152.71875 556 " clip-rule="nonzero"/></clipPath><clipPath id="id22"><path d="M 152.71875 582 L 634.257812 582 L 634.257812 606.460938 L 152.71875 606.460938 Z M 152.71875 582 " clip-rule="nonzero"/></clipPath><clipPath id="id23"><path d="M 24 82.398438 L 652 82.398438 L 652 591.640625 L 24 591.640625 Z M 24 82.398438 " clip-rule="nonzero"/></clipPath></defs><g mask="url(#id2)"><g transform="matrix(1, 0, 0, 1, 149, 165)"><g clip-path="url(#id4)"><g clip-path="url(#id3)"><path fill="#16ff96" d="M 62.867188 225.101562 C -17.636719 186.101562 -18.046875 71.945312 61.929688 31.902344 C 161.699219 -18.015625 299.828125 -28.128906 437.378906 153.066406 C 437.378906 153.066406 525.515625 270.851562 363.855469 430.398438 C 294.949219 498.414062 178.289062 448.550781 180.367188 351.765625 C 181.261719 309.71875 157.566406 270.980469 119.6875 252.640625 Z M 62.867188 225.101562 " fill-opacity="1" fill-rule="nonzero"/></g></g></g></g><g clip-path="url(#id5)"><path fill="#ffffff" d="M 585.460938 160.71875 L 537.472656 140.550781 L 489.480469 160.71875 L 441.488281 140.550781 L 393.496094 160.71875 L 345.503906 140.550781 L 297.511719 160.71875 L 249.519531 140.550781 L 201.535156 160.71875 L 152.890625 140.28125 L 154.195312 137.183594 L 201.535156 157.078125 L 249.519531 136.90625 L 297.511719 157.078125 L 345.503906 136.90625 L 393.496094 157.078125 L 441.488281 136.90625 L 489.480469 157.078125 L 537.472656 136.90625 L 585.460938 157.078125 L 632.808594 137.183594 L 634.113281 140.28125 Z M 585.460938 160.71875 " fill-opacity="1" fill-rule="nonzero"/></g><g clip-path="url(#id6)"><path fill="#ffffff" d="M 585.460938 186.941406 L 537.472656 166.769531 L 489.480469 186.941406 L 441.488281 166.769531 L 393.496094 186.941406 L 345.503906 166.769531 L 297.511719 186.941406 L 249.519531 166.769531 L 201.535156 186.941406 L 152.890625 166.503906 L 154.195312 163.402344 L 201.535156 183.296875 L 249.519531 163.128906 L 297.511719 183.296875 L 345.503906 163.128906 L 393.496094 183.296875 L 441.488281 163.128906 L 489.480469 183.296875 L 537.472656 163.128906 L 585.460938 183.296875 L 632.808594 163.402344 L 634.113281 166.503906 Z M 585.460938 186.941406 " fill-opacity="1" fill-rule="nonzero"/></g><g clip-path="url(#id7)"><path fill="#ffffff" d="M 585.460938 213.160156 L 537.472656 192.992188 L 489.480469 213.160156 L 441.488281 192.992188 L 393.496094 213.160156 L 345.503906 192.992188 L 297.511719 213.160156 L 249.519531 192.992188 L 201.535156 213.160156 L 152.890625 192.722656 L 154.195312 189.625 L 201.535156 209.519531 L 249.519531 189.347656 L 297.511719 209.519531 L 345.503906 189.347656 L 393.496094 209.519531 L 441.488281 189.347656 L 489.480469 209.519531 L 537.472656 189.347656 L 585.460938 209.519531 L 632.808594 189.625 L 634.113281 192.722656 Z M 585.460938 213.160156 " fill-opacity="1" fill-rule="nonzero"/></g><g clip-path="url(#id8)"><path fill="#ffffff" d="M 585.460938 239.382812 L 537.472656 219.214844 L 489.480469 239.382812 L 441.488281 219.214844 L 393.496094 239.382812 L 345.503906 219.214844 L 297.511719 239.382812 L 249.519531 219.214844 L 201.535156 239.382812 L 152.890625 218.945312 L 154.195312 215.84375 L 201.535156 235.738281 L 249.519531 215.570312 L 297.511719 235.738281 L 345.503906 215.570312 L 393.496094 235.738281 L 441.488281 215.570312 L 489.480469 235.738281 L 537.472656 215.570312 L 585.460938 235.738281 L 632.808594 215.84375 L 634.113281 218.945312 Z M 585.460938 239.382812 " fill-opacity="1" fill-rule="nonzero"/></g><g clip-path="url(#id9)"><path fill="#ffffff" d="M 585.460938 265.605469 L 537.472656 245.433594 L 489.480469 265.605469 L 441.488281 245.433594 L 393.496094 265.605469 L 345.503906 245.433594 L 297.511719 265.605469 L 249.519531 245.433594 L 201.535156 265.605469 L 152.890625 245.164062 L 154.195312 242.066406 L 201.535156 261.960938 L 249.519531 241.789062 L 297.511719 261.960938 L 345.503906 241.789062 L 393.496094 261.960938 L 441.488281 241.789062 L 489.480469 261.960938 L 537.472656 241.789062 L 585.460938 261.960938 L 632.808594 242.066406 L 634.113281 245.164062 Z M 585.460938 265.605469 " fill-opacity="1" fill-rule="nonzero"/></g><g clip-path="url(#id10)"><path fill="#ffffff" d="M 585.460938 291.824219 L 537.472656 271.65625 L 489.480469 291.824219 L 441.488281 271.65625 L 393.496094 291.824219 L 345.503906 271.65625 L 297.511719 291.824219 L 249.519531 271.65625 L 201.535156 291.824219 L 152.890625 271.386719 L 154.195312 268.285156 L 201.535156 288.179688 L 249.519531 268.011719 L 297.511719 288.179688 L 345.503906 268.011719 L 393.496094 288.179688 L 441.488281 268.011719 L 489.480469 288.179688 L 537.472656 268.011719 L 585.460938 288.179688 L 632.808594 268.285156 L 634.113281 271.386719 Z M 585.460938 291.824219 " fill-opacity="1" fill-rule="nonzero"/></g><g clip-path="url(#id11)"><path fill="#ffffff" d="M 585.460938 318.046875 L 537.472656 297.875 L 489.480469 318.046875 L 441.488281 297.875 L 393.496094 318.046875 L 345.503906 297.875 L 297.511719 318.046875 L 249.519531 297.875 L 201.535156 318.046875 L 152.890625 297.605469 L 154.195312 294.507812 L 201.535156 314.402344 L 249.519531 294.230469 L 297.511719 314.402344 L 345.503906 294.230469 L 393.496094 314.402344 L 441.488281 294.230469 L 489.480469 314.402344 L 537.472656 294.230469 L 585.460938 314.402344 L 632.808594 294.507812 L 634.113281 297.605469 Z M 585.460938 318.046875 " fill-opacity="1" fill-rule="nonzero"/></g><g clip-path="url(#id12)"><path fill="#ffffff" d="M 585.460938 344.265625 L 537.472656 324.097656 L 489.480469 344.265625 L 441.488281 324.097656 L 393.496094 344.265625 L 345.503906 324.097656 L 297.511719 344.265625 L 249.519531 324.097656 L 201.535156 344.265625 L 152.890625 323.828125 L 154.195312 320.726562 L 201.535156 340.621094 L 249.519531 320.453125 L 297.511719 340.621094 L 345.503906 320.453125 L 393.496094 340.621094 L 441.488281 320.453125 L 489.480469 340.621094 L 537.472656 320.453125 L 585.460938 340.621094 L 632.808594 320.726562 L 634.113281 323.828125 Z M 585.460938 344.265625 " fill-opacity="1" fill-rule="nonzero"/></g><g clip-path="url(#id13)"><path fill="#ffffff" d="M 585.460938 370.488281 L 537.472656 350.316406 L 489.480469 370.488281 L 441.488281 350.316406 L 393.496094 370.488281 L 345.503906 350.316406 L 297.511719 370.488281 L 249.519531 350.316406 L 201.535156 370.488281 L 152.890625 350.046875 L 154.195312 346.949219 L 201.535156 366.84375 L 249.519531 346.671875 L 297.511719 366.84375 L 345.503906 346.671875 L 393.496094 366.84375 L 441.488281 346.671875 L 489.480469 366.84375 L 537.472656 346.671875 L 585.460938 366.84375 L 632.808594 346.949219 L 634.113281 350.046875 Z M 585.460938 370.488281 " fill-opacity="1" fill-rule="nonzero"/></g><g clip-path="url(#id14)"><path fill="#ffffff" d="M 585.460938 396.707031 L 537.472656 376.539062 L 489.480469 396.707031 L 441.488281 376.539062 L 393.496094 396.707031 L 345.503906 376.539062 L 297.511719 396.707031 L 249.519531 376.539062 L 201.535156 396.707031 L 152.890625 376.269531 L 154.195312 373.167969 L 201.535156 393.0625 L 249.519531 372.894531 L 297.511719 393.0625 L 345.503906 372.894531 L 393.496094 393.0625 L 441.488281 372.894531 L 489.480469 393.0625 L 537.472656 372.894531 L 585.460938 393.0625 L 632.808594 373.167969 L 634.113281 376.269531 Z M 585.460938 396.707031 " fill-opacity="1" fill-rule="nonzero"/></g><g clip-path="url(#id15)"><path fill="#ffffff" d="M 585.460938 422.929688 L 537.472656 402.757812 L 489.480469 422.929688 L 441.488281 402.757812 L 393.496094 422.929688 L 345.503906 402.757812 L 297.511719 422.929688 L 249.519531 402.757812 L 201.535156 422.929688 L 152.890625 402.488281 L 154.195312 399.390625 L 201.535156 419.285156 L 249.519531 399.113281 L 297.511719 419.285156 L 345.503906 399.113281 L 393.496094 419.285156 L 441.488281 399.113281 L 489.480469 419.285156 L 537.472656 399.113281 L 585.460938 419.285156 L 632.808594 399.390625 L 634.113281 402.488281 Z M 585.460938 422.929688 " fill-opacity="1" fill-rule="nonzero"/></g><g clip-path="url(#id16)"><path fill="#ffffff" d="M 585.460938 449.148438 L 537.472656 428.980469 L 489.480469 449.148438 L 441.488281 428.980469 L 393.496094 449.148438 L 345.503906 428.980469 L 297.511719 449.148438 L 249.519531 428.980469 L 201.535156 449.148438 L 152.890625 428.710938 L 154.195312 425.609375 L 201.535156 445.503906 L 249.519531 425.335938 L 297.511719 445.503906 L 345.503906 425.335938 L 393.496094 445.503906 L 441.488281 425.335938 L 489.480469 445.503906 L 537.472656 425.335938 L 585.460938 445.503906 L 632.808594 425.609375 L 634.113281 428.710938 Z M 585.460938 449.148438 " fill-opacity="1" fill-rule="nonzero"/></g><g clip-path="url(#id17)"><path fill="#ffffff" d="M 585.460938 475.371094 L 537.472656 455.199219 L 489.480469 475.371094 L 441.488281 455.199219 L 393.496094 475.371094 L 345.503906 455.199219 L 297.511719 475.371094 L 249.519531 455.199219 L 201.535156 475.371094 L 152.890625 454.929688 L 154.195312 451.832031 L 201.535156 471.726562 L 249.519531 451.554688 L 297.511719 471.726562 L 345.503906 451.554688 L 393.496094 471.726562 L 441.488281 451.554688 L 489.480469 471.726562 L 537.472656 451.554688 L 585.460938 471.726562 L 632.808594 451.832031 L 634.113281 454.929688 Z M 585.460938 475.371094 " fill-opacity="1" fill-rule="nonzero"/></g><g clip-path="url(#id18)"><path fill="#ffffff" d="M 585.460938 501.589844 L 537.472656 481.421875 L 489.480469 501.589844 L 441.488281 481.421875 L 393.496094 501.589844 L 345.503906 481.421875 L 297.511719 501.589844 L 249.519531 481.421875 L 201.535156 501.589844 L 152.890625 481.152344 L 154.195312 478.054688 L 201.535156 497.945312 L 249.519531 477.777344 L 297.511719 497.945312 L 345.503906 477.777344 L 393.496094 497.945312 L 441.488281 477.777344 L 489.480469 497.945312 L 537.472656 477.777344 L 585.460938 497.945312 L 632.808594 478.054688 L 634.113281 481.152344 Z M 585.460938 501.589844 " fill-opacity="1" fill-rule="nonzero"/></g><g clip-path="url(#id19)"><path fill="#ffffff" d="M 585.460938 527.8125 L 537.472656 507.640625 L 489.480469 527.8125 L 441.488281 507.640625 L 393.496094 527.8125 L 345.503906 507.640625 L 297.511719 527.8125 L 249.519531 507.640625 L 201.535156 527.8125 L 152.890625 507.375 L 154.195312 504.273438 L 201.535156 524.167969 L 249.519531 503.996094 L 297.511719 524.167969 L 345.503906 503.996094 L 393.496094 524.167969 L 441.488281 503.996094 L 489.480469 524.167969 L 537.472656 503.996094 L 585.460938 524.167969 L 632.808594 504.273438 L 634.113281 507.375 Z M 585.460938 527.8125 " fill-opacity="1" fill-rule="nonzero"/></g><g clip-path="url(#id20)"><path fill="#ffffff" d="M 585.460938 554.03125 L 537.472656 533.863281 L 489.480469 554.03125 L 441.488281 533.863281 L 393.496094 554.03125 L 345.503906 533.863281 L 297.511719 554.03125 L 249.519531 533.863281 L 201.535156 554.03125 L 152.890625 533.59375 L 154.195312 530.496094 L 201.535156 550.390625 L 249.519531 530.21875 L 297.511719 550.390625 L 345.503906 530.21875 L 393.496094 550.390625 L 441.488281 530.21875 L 489.480469 550.390625 L 537.472656 530.21875 L 585.460938 550.390625 L 632.808594 530.496094 L 634.113281 533.59375 Z M 585.460938 554.03125 " fill-opacity="1" fill-rule="nonzero"/></g><g clip-path="url(#id21)"><path fill="#ffffff" d="M 585.460938 580.253906 L 537.472656 560.082031 L 489.480469 580.253906 L 441.488281 560.082031 L 393.496094 580.253906 L 345.503906 560.082031 L 297.511719 580.253906 L 249.519531 560.082031 L 201.535156 580.253906 L 152.890625 559.816406 L 154.195312 556.714844 L 201.535156 576.609375 L 249.519531 556.441406 L 297.511719 576.609375 L 345.503906 556.441406 L 393.496094 576.609375 L 441.488281 556.441406 L 489.480469 576.609375 L 537.472656 556.441406 L 585.460938 576.609375 L 632.808594 556.714844 L 634.113281 559.816406 Z M 585.460938 580.253906 " fill-opacity="1" fill-rule="nonzero"/></g><g clip-path="url(#id22)"><path fill="#ffffff" d="M 585.460938 606.472656 L 537.472656 586.304688 L 489.480469 606.472656 L 441.488281 586.304688 L 393.496094 606.472656 L 345.503906 586.304688 L 297.511719 606.472656 L 249.519531 586.304688 L 201.535156 606.472656 L 152.890625 586.035156 L 154.195312 582.9375 L 201.535156 602.832031 L 249.519531 582.660156 L 297.511719 602.832031 L 345.503906 582.660156 L 393.496094 602.832031 L 441.488281 582.660156 L 489.480469 602.832031 L 537.472656 582.660156 L 585.460938 602.832031 L 632.808594 582.9375 L 634.113281 586.035156 Z M 585.460938 606.472656 " fill-opacity="1" fill-rule="nonzero"/></g><g clip-path="url(#id23)"><path fill="#000000" d="M 644.054688 557.332031 L 584.730469 508.320312 C 583.75 507.828125 583.261719 507.339844 582.28125 506.851562 C 582.28125 505.871094 582.769531 504.890625 582.769531 503.910156 L 582.769531 258.84375 C 582.769531 248.0625 573.945312 239.238281 563.160156 239.238281 L 543.546875 239.238281 L 543.546875 111.804688 C 543.546875 95.628906 530.308594 82.398438 514.128906 82.398438 L 161.125 82.398438 C 144.945312 82.398438 131.707031 95.628906 131.707031 111.804688 L 131.707031 239.238281 L 112.097656 239.238281 C 101.3125 239.238281 92.484375 248.0625 92.484375 258.84375 L 92.484375 503.910156 C 92.484375 504.890625 92.484375 505.871094 92.976562 506.851562 C 91.996094 507.339844 91.503906 507.828125 90.523438 508.320312 L 31.199219 557.332031 C 24.824219 562.722656 22.375 571.058594 25.316406 578.898438 C 28.257812 586.742188 35.613281 591.640625 43.945312 591.640625 L 632.289062 591.640625 C 640.625 591.640625 647.976562 586.25 650.921875 578.898438 C 652.882812 571.546875 650.429688 562.722656 644.054688 557.332031 Z M 151.320312 111.804688 C 151.320312 106.414062 155.730469 102 161.125 102 L 514.128906 102 C 519.523438 102 523.9375 106.414062 523.9375 111.804688 L 523.9375 160.816406 L 151.320312 160.816406 Z M 112.097656 258.84375 L 131.707031 258.84375 L 131.707031 474.5 C 131.707031 479.890625 136.121094 484.304688 141.515625 484.304688 C 146.90625 484.304688 151.320312 479.890625 151.320312 474.5 L 151.320312 180.421875 L 523.9375 180.421875 L 523.9375 474.5 C 523.9375 479.890625 528.347656 484.304688 533.742188 484.304688 C 539.136719 484.304688 543.546875 479.890625 543.546875 474.5 L 543.546875 258.84375 L 563.160156 258.84375 L 563.160156 503.910156 L 112.097656 503.910156 Z M 43.457031 572.527344 L 102.78125 523.515625 L 572.472656 523.515625 L 631.796875 572.527344 Z M 43.457031 572.527344 " fill-opacity="1" fill-rule="nonzero"/></g><path fill="#000000" d="M 494.519531 121.605469 L 474.90625 121.605469 C 469.515625 121.605469 465.101562 126.019531 465.101562 131.410156 C 465.101562 136.800781 469.515625 141.210938 474.90625 141.210938 L 494.519531 141.210938 C 499.914062 141.210938 504.324219 136.800781 504.324219 131.410156 C 504.324219 126.019531 499.914062 121.605469 494.519531 121.605469 Z M 494.519531 121.605469 " fill-opacity="1" fill-rule="nonzero"/><path fill="#000000" d="M 435.683594 121.605469 L 416.074219 121.605469 C 410.679688 121.605469 406.269531 126.019531 406.269531 131.410156 C 406.269531 136.800781 410.679688 141.210938 416.074219 141.210938 L 435.683594 141.210938 C 441.078125 141.210938 445.492188 136.800781 445.492188 131.410156 C 445.492188 126.019531 441.078125 121.605469 435.683594 121.605469 Z M 435.683594 121.605469 " fill-opacity="1" fill-rule="nonzero"/><path fill="#000000" d="M 494.519531 209.832031 L 308.210938 209.832031 C 302.816406 209.832031 298.40625 214.242188 298.40625 219.632812 C 298.40625 225.023438 302.816406 229.4375 308.210938 229.4375 L 494.519531 229.4375 C 499.914062 229.4375 504.324219 225.023438 504.324219 219.632812 C 504.324219 214.242188 499.914062 209.832031 494.519531 209.832031 Z M 494.519531 209.832031 " fill-opacity="1" fill-rule="nonzero"/><path fill="#000000" d="M 308.210938 268.644531 L 381.753906 268.644531 C 387.148438 268.644531 391.558594 264.234375 391.558594 258.84375 C 391.558594 253.453125 387.148438 249.042969 381.753906 249.042969 L 308.210938 249.042969 C 302.816406 249.042969 298.40625 253.453125 298.40625 258.84375 C 298.40625 264.234375 302.816406 268.644531 308.210938 268.644531 Z M 308.210938 268.644531 " fill-opacity="1" fill-rule="nonzero"/><path fill="#000000" d="M 445.492188 249.042969 L 420.976562 249.042969 C 415.582031 249.042969 411.171875 253.453125 411.171875 258.84375 C 411.171875 264.234375 415.582031 268.644531 420.976562 268.644531 L 445.492188 268.644531 C 450.882812 268.644531 455.296875 264.234375 455.296875 258.84375 C 455.296875 253.453125 450.882812 249.042969 445.492188 249.042969 Z M 445.492188 249.042969 " fill-opacity="1" fill-rule="nonzero"/><path fill="#000000" d="M 425.878906 317.660156 C 425.878906 323.050781 430.292969 327.460938 435.683594 327.460938 L 460.199219 327.460938 C 465.59375 327.460938 470.003906 323.050781 470.003906 317.660156 C 470.003906 312.269531 465.59375 307.855469 460.199219 307.855469 L 435.683594 307.855469 C 430.292969 307.855469 425.878906 312.269531 425.878906 317.660156 Z M 425.878906 317.660156 " fill-opacity="1" fill-rule="nonzero"/><path fill="#000000" d="M 180.738281 278.449219 C 186.128906 278.449219 190.542969 274.039062 190.542969 268.644531 L 190.542969 219.632812 L 249.375 219.632812 C 254.769531 219.632812 259.183594 215.222656 259.183594 209.832031 C 259.183594 204.4375 254.769531 200.027344 249.375 200.027344 L 180.738281 200.027344 C 175.34375 200.027344 170.929688 204.4375 170.929688 209.832031 L 170.929688 268.644531 C 170.929688 274.039062 175.34375 278.449219 180.738281 278.449219 Z M 180.738281 278.449219 " fill-opacity="1" fill-rule="nonzero"/><path fill="#000000" d="M 308.210938 327.460938 L 396.460938 327.460938 C 401.855469 327.460938 406.269531 323.050781 406.269531 317.660156 C 406.269531 312.269531 401.855469 307.855469 396.460938 307.855469 L 308.210938 307.855469 C 302.816406 307.855469 298.40625 312.269531 298.40625 317.660156 C 298.40625 323.050781 302.816406 327.460938 308.210938 327.460938 Z M 308.210938 327.460938 " fill-opacity="1" fill-rule="nonzero"/><path fill="#000000" d="M 308.210938 366.671875 L 489.617188 366.671875 C 495.007812 366.671875 499.421875 362.261719 499.421875 356.871094 C 499.421875 351.476562 495.007812 347.066406 489.617188 347.066406 L 308.210938 347.066406 C 302.816406 347.066406 298.40625 351.476562 298.40625 356.871094 C 298.40625 362.261719 302.816406 366.671875 308.210938 366.671875 Z M 308.210938 366.671875 " fill-opacity="1" fill-rule="nonzero"/><path fill="#000000" d="M 180.738281 376.476562 C 186.128906 376.476562 190.542969 372.0625 190.542969 366.671875 L 190.542969 317.660156 L 249.375 317.660156 C 254.769531 317.660156 259.183594 313.25 259.183594 307.855469 C 259.183594 302.464844 254.769531 298.054688 249.375 298.054688 L 180.738281 298.054688 C 175.34375 298.054688 170.929688 302.464844 170.929688 307.855469 L 170.929688 366.671875 C 170.929688 372.0625 175.34375 376.476562 180.738281 376.476562 Z M 180.738281 376.476562 " fill-opacity="1" fill-rule="nonzero"/><path fill="#000000" d="M 494.519531 405.882812 L 308.210938 405.882812 C 302.816406 405.882812 298.40625 410.292969 298.40625 415.683594 C 298.40625 421.078125 302.816406 425.488281 308.210938 425.488281 L 494.519531 425.488281 C 499.914062 425.488281 504.324219 421.078125 504.324219 415.683594 C 504.324219 410.292969 499.914062 405.882812 494.519531 405.882812 Z M 494.519531 405.882812 " fill-opacity="1" fill-rule="nonzero"/><path fill="#000000" d="M 445.492188 445.09375 L 308.210938 445.09375 C 302.816406 445.09375 298.40625 449.503906 298.40625 454.894531 C 298.40625 460.289062 302.816406 464.699219 308.210938 464.699219 L 445.492188 464.699219 C 450.882812 464.699219 455.296875 460.289062 455.296875 454.894531 C 455.296875 449.503906 450.882812 445.09375 445.492188 445.09375 Z M 445.492188 445.09375 " fill-opacity="1" fill-rule="nonzero"/><path fill="#000000" d="M 259.183594 405.882812 C 259.183594 400.492188 254.769531 396.082031 249.375 396.082031 L 180.738281 396.082031 C 175.34375 396.082031 170.929688 400.492188 170.929688 405.882812 L 170.929688 464.699219 C 170.929688 470.089844 175.34375 474.5 180.738281 474.5 C 186.128906 474.5 190.542969 470.089844 190.542969 464.699219 L 190.542969 415.683594 L 249.375 415.683594 C 254.769531 415.683594 259.183594 411.273438 259.183594 405.882812 Z M 259.183594 405.882812 " fill-opacity="1" fill-rule="nonzero"/><path fill="#000000" d="M 262.125 217.671875 L 229.765625 250.019531 L 217.019531 237.277344 C 213.09375 233.355469 207.210938 233.355469 203.289062 237.277344 C 199.367188 241.199219 199.367188 247.082031 203.289062 251 L 222.902344 270.605469 C 224.863281 272.566406 227.3125 273.546875 229.765625 273.546875 C 232.214844 273.546875 234.667969 272.566406 236.628906 270.605469 L 275.851562 231.394531 C 279.773438 227.476562 279.773438 221.59375 275.851562 217.671875 C 271.929688 213.75 266.046875 213.75 262.125 217.671875 Z M 262.125 217.671875 " fill-opacity="1" fill-rule="nonzero"/><path fill="#000000" d="M 262.125 315.699219 L 229.765625 348.046875 L 217.019531 335.304688 C 213.09375 331.382812 207.210938 331.382812 203.289062 335.304688 C 199.367188 339.226562 199.367188 345.105469 203.289062 349.027344 L 222.902344 368.632812 C 224.863281 370.59375 227.3125 371.574219 229.765625 371.574219 C 232.214844 371.574219 234.667969 370.59375 236.628906 368.632812 L 275.851562 329.421875 C 279.773438 325.5 279.773438 319.621094 275.851562 315.699219 C 271.929688 311.777344 266.046875 311.777344 262.125 315.699219 Z M 262.125 315.699219 " fill-opacity="1" fill-rule="nonzero"/><path fill="#000000" d="M 262.125 413.726562 L 229.765625 446.074219 L 217.019531 433.332031 C 213.09375 429.410156 207.210938 429.410156 203.289062 433.332031 C 199.367188 437.25 199.367188 443.132812 203.289062 447.054688 L 222.902344 466.660156 C 224.863281 468.621094 227.3125 469.601562 229.765625 469.601562 C 232.214844 469.601562 234.667969 468.621094 236.628906 466.660156 L 275.851562 427.449219 C 279.773438 423.527344 279.773438 417.644531 275.851562 413.726562 C 271.929688 409.804688 266.046875 409.804688 262.125 413.726562 Z M 262.125 413.726562 " fill-opacity="1" fill-rule="nonzero"/></svg>