<svg xmlns="http://www.w3.org/2000/svg" xmlns:xlink="http://www.w3.org/1999/xlink" width="900" zoomAndPan="magnify" viewBox="0 0 675 675.000002" height="900" preserveAspectRatio="xMidYMid meet" version="1.0"><defs><filter x="0%" y="0%" width="100%" height="100%" id="id1"><feColorMatrix values="0 0 0 0 1 0 0 0 0 1 0 0 0 0 1 0 0 0 1 0" color-interpolation-filters="sRGB"/></filter><mask id="id2"><g filter="url(#id1)"><rect x="-67.5" width="810" fill="#000000" y="-67.5" height="810.000002" fill-opacity="0.1176"/></g></mask><clipPath id="id3"><path d="M 2 0.355469 L 462 0.355469 L 462 462 L 2 462 Z M 2 0.355469 " clip-rule="nonzero"/></clipPath><clipPath id="id4"><rect x="0" width="463" y="0" height="463"/></clipPath><clipPath id="id5"><path d="M 152.71875 136.90625 L 674.5 136.90625 L 674.5 163 L 152.71875 163 Z M 152.71875 136.90625 " clip-rule="nonzero"/></clipPath><clipPath id="id6"><path d="M 152.71875 165 L 674.5 165 L 674.5 192 L 152.71875 192 Z M 152.71875 165 " clip-rule="nonzero"/></clipPath><clipPath id="id7"><path d="M 152.71875 193 L 674.5 193 L 674.5 220 L 152.71875 220 Z M 152.71875 193 " clip-rule="nonzero"/></clipPath><clipPath id="id8"><path d="M 152.71875 222 L 674.5 222 L 674.5 248 L 152.71875 248 Z M 152.71875 222 " clip-rule="nonzero"/></clipPath><clipPath id="id9"><path d="M 152.71875 250 L 674.5 250 L 674.5 277 L 152.71875 277 Z M 152.71875 250 " clip-rule="nonzero"/></clipPath><clipPath id="id10"><path d="M 152.71875 278 L 674.5 278 L 674.5 305 L 152.71875 305 Z M 152.71875 278 " clip-rule="nonzero"/></clipPath><clipPath id="id11"><path d="M 152.71875 307 L 674.5 307 L 674.5 334 L 152.71875 334 Z M 152.71875 307 " clip-rule="nonzero"/></clipPath><clipPath id="id12"><path d="M 152.71875 335 L 674.5 335 L 674.5 362 L 152.71875 362 Z M 152.71875 335 " clip-rule="nonzero"/></clipPath><clipPath id="id13"><path d="M 152.71875 364 L 674.5 364 L 674.5 390 L 152.71875 390 Z M 152.71875 364 " clip-rule="nonzero"/></clipPath><clipPath id="id14"><path d="M 152.71875 392 L 674.5 392 L 674.5 419 L 152.71875 419 Z M 152.71875 392 " clip-rule="nonzero"/></clipPath><clipPath id="id15"><path d="M 152.71875 420 L 674.5 420 L 674.5 447 L 152.71875 447 Z M 152.71875 420 " clip-rule="nonzero"/></clipPath><clipPath id="id16"><path d="M 152.71875 449 L 674.5 449 L 674.5 476 L 152.71875 476 Z M 152.71875 449 " clip-rule="nonzero"/></clipPath><clipPath id="id17"><path d="M 152.71875 477 L 674.5 477 L 674.5 504 L 152.71875 504 Z M 152.71875 477 " clip-rule="nonzero"/></clipPath><clipPath id="id18"><path d="M 152.71875 506 L 674.5 506 L 674.5 532 L 152.71875 532 Z M 152.71875 506 " clip-rule="nonzero"/></clipPath><clipPath id="id19"><path d="M 152.71875 534 L 674.5 534 L 674.5 561 L 152.71875 561 Z M 152.71875 534 " clip-rule="nonzero"/></clipPath><clipPath id="id20"><path d="M 152.71875 562 L 674.5 562 L 674.5 589 L 152.71875 589 Z M 152.71875 562 " clip-rule="nonzero"/></clipPath><clipPath id="id21"><path d="M 152.71875 591 L 674.5 591 L 674.5 618 L 152.71875 618 Z M 152.71875 591 " clip-rule="nonzero"/></clipPath><clipPath id="id22"><path d="M 152.71875 619 L 674.5 619 L 674.5 645.402344 L 152.71875 645.402344 Z M 152.71875 619 " clip-rule="nonzero"/></clipPath><clipPath id="id23"><path d="M 208 417 L 525 417 L 525 645.617188 L 208 645.617188 Z M 208 417 " clip-rule="nonzero"/></clipPath><clipPath id="id24"><path d="M 208 49.5 L 526 49.5 L 526 288 L 208 288 Z M 208 49.5 " clip-rule="nonzero"/></clipPath></defs><g mask="url(#id2)"><g transform="matrix(1, 0, 0, 1, 149, 165)"><g clip-path="url(#id4)"><g clip-path="url(#id3)"><path fill="#dc02ff" d="M 62.867188 225.101562 C -17.636719 186.101562 -18.046875 71.945312 61.929688 31.902344 C 161.699219 -18.015625 299.828125 -28.128906 437.378906 153.066406 C 437.378906 153.066406 525.515625 270.851562 363.855469 430.398438 C 294.949219 498.414062 178.289062 448.550781 180.367188 351.765625 C 181.261719 309.71875 157.566406 270.980469 119.6875 252.640625 Z M 62.867188 225.101562 " fill-opacity="1" fill-rule="nonzero"/></g></g></g></g><g clip-path="url(#id5)"><path fill="#ffffff" d="M 621.804688 162.695312 L 569.78125 140.851562 L 517.761719 162.695312 L 465.738281 140.851562 L 413.714844 162.695312 L 361.695312 140.851562 L 309.671875 162.695312 L 257.648438 140.851562 L 205.636719 162.695312 L 152.90625 140.5625 L 154.320312 137.207031 L 205.636719 158.75 L 257.648438 136.90625 L 309.671875 158.75 L 361.695312 136.90625 L 413.714844 158.75 L 465.738281 136.90625 L 517.761719 158.75 L 569.78125 136.90625 L 621.804688 158.75 L 673.128906 137.207031 L 674.539062 140.5625 Z M 621.804688 162.695312 " fill-opacity="1" fill-rule="nonzero"/></g><g clip-path="url(#id6)"><path fill="#ffffff" d="M 621.804688 191.089844 L 569.78125 169.25 L 517.761719 191.089844 L 465.738281 169.25 L 413.714844 191.089844 L 361.695312 169.25 L 309.671875 191.089844 L 257.648438 169.25 L 205.636719 191.089844 L 152.90625 168.957031 L 154.320312 165.601562 L 205.636719 187.144531 L 257.648438 165.300781 L 309.671875 187.144531 L 361.695312 165.300781 L 413.714844 187.144531 L 465.738281 165.300781 L 517.761719 187.144531 L 569.78125 165.300781 L 621.804688 187.144531 L 673.128906 165.601562 L 674.539062 168.957031 Z M 621.804688 191.089844 " fill-opacity="1" fill-rule="nonzero"/></g><g clip-path="url(#id7)"><path fill="#ffffff" d="M 621.804688 219.484375 L 569.78125 197.644531 L 517.761719 219.484375 L 465.738281 197.644531 L 413.714844 219.484375 L 361.695312 197.644531 L 309.671875 219.484375 L 257.648438 197.644531 L 205.636719 219.484375 L 152.90625 197.351562 L 154.320312 193.996094 L 205.636719 215.539062 L 257.648438 193.699219 L 309.671875 215.539062 L 361.695312 193.699219 L 413.714844 215.539062 L 465.738281 193.699219 L 517.761719 215.539062 L 569.78125 193.699219 L 621.804688 215.539062 L 673.128906 193.996094 L 674.539062 197.351562 Z M 621.804688 219.484375 " fill-opacity="1" fill-rule="nonzero"/></g><g clip-path="url(#id8)"><path fill="#ffffff" d="M 621.804688 247.882812 L 569.78125 226.039062 L 517.761719 247.882812 L 465.738281 226.039062 L 413.714844 247.882812 L 361.695312 226.039062 L 309.671875 247.882812 L 257.648438 226.039062 L 205.636719 247.882812 L 152.90625 225.746094 L 154.320312 222.390625 L 205.636719 243.933594 L 257.648438 222.09375 L 309.671875 243.933594 L 361.695312 222.09375 L 413.714844 243.933594 L 465.738281 222.09375 L 517.761719 243.933594 L 569.78125 222.09375 L 621.804688 243.933594 L 673.128906 222.390625 L 674.539062 225.746094 Z M 621.804688 247.882812 " fill-opacity="1" fill-rule="nonzero"/></g><g clip-path="url(#id9)"><path fill="#ffffff" d="M 621.804688 276.277344 L 569.78125 254.433594 L 517.761719 276.277344 L 465.738281 254.433594 L 413.714844 276.277344 L 361.695312 254.433594 L 309.671875 276.277344 L 257.648438 254.433594 L 205.636719 276.277344 L 152.90625 254.144531 L 154.320312 250.785156 L 205.636719 272.332031 L 257.648438 250.488281 L 309.671875 272.332031 L 361.695312 250.488281 L 413.714844 272.332031 L 465.738281 250.488281 L 517.761719 272.332031 L 569.78125 250.488281 L 621.804688 272.332031 L 673.128906 250.785156 L 674.539062 254.144531 Z M 621.804688 276.277344 " fill-opacity="1" fill-rule="nonzero"/></g><g clip-path="url(#id10)"><path fill="#ffffff" d="M 621.804688 304.671875 L 569.78125 282.828125 L 517.761719 304.671875 L 465.738281 282.828125 L 413.714844 304.671875 L 361.695312 282.828125 L 309.671875 304.671875 L 257.648438 282.828125 L 205.636719 304.671875 L 152.90625 282.539062 L 154.320312 279.183594 L 205.636719 300.726562 L 257.648438 278.882812 L 309.671875 300.726562 L 361.695312 278.882812 L 413.714844 300.726562 L 465.738281 278.882812 L 517.761719 300.726562 L 569.78125 278.882812 L 621.804688 300.726562 L 673.128906 279.183594 L 674.539062 282.539062 Z M 621.804688 304.671875 " fill-opacity="1" fill-rule="nonzero"/></g><g clip-path="url(#id11)"><path fill="#ffffff" d="M 621.804688 333.066406 L 569.78125 311.226562 L 517.761719 333.066406 L 465.738281 311.226562 L 413.714844 333.066406 L 361.695312 311.226562 L 309.671875 333.066406 L 257.648438 311.226562 L 205.636719 333.066406 L 152.90625 310.933594 L 154.320312 307.578125 L 205.636719 329.121094 L 257.648438 307.277344 L 309.671875 329.121094 L 361.695312 307.277344 L 413.714844 329.121094 L 465.738281 307.277344 L 517.761719 329.121094 L 569.78125 307.277344 L 621.804688 329.121094 L 673.128906 307.578125 L 674.539062 310.933594 Z M 621.804688 333.066406 " fill-opacity="1" fill-rule="nonzero"/></g><g clip-path="url(#id12)"><path fill="#ffffff" d="M 621.804688 361.464844 L 569.78125 339.621094 L 517.761719 361.464844 L 465.738281 339.621094 L 413.714844 361.464844 L 361.695312 339.621094 L 309.671875 361.464844 L 257.648438 339.621094 L 205.636719 361.464844 L 152.90625 339.328125 L 154.320312 335.972656 L 205.636719 357.515625 L 257.648438 335.675781 L 309.671875 357.515625 L 361.695312 335.675781 L 413.714844 357.515625 L 465.738281 335.675781 L 517.761719 357.515625 L 569.78125 335.675781 L 621.804688 357.515625 L 673.128906 335.972656 L 674.539062 339.328125 Z M 621.804688 361.464844 " fill-opacity="1" fill-rule="nonzero"/></g><g clip-path="url(#id13)"><path fill="#ffffff" d="M 621.804688 389.859375 L 569.78125 368.015625 L 517.761719 389.859375 L 465.738281 368.015625 L 413.714844 389.859375 L 361.695312 368.015625 L 309.671875 389.859375 L 257.648438 368.015625 L 205.636719 389.859375 L 152.90625 367.726562 L 154.320312 364.367188 L 205.636719 385.914062 L 257.648438 364.070312 L 309.671875 385.914062 L 361.695312 364.070312 L 413.714844 385.914062 L 465.738281 364.070312 L 517.761719 385.914062 L 569.78125 364.070312 L 621.804688 385.914062 L 673.128906 364.367188 L 674.539062 367.726562 Z M 621.804688 389.859375 " fill-opacity="1" fill-rule="nonzero"/></g><g clip-path="url(#id14)"><path fill="#ffffff" d="M 621.804688 418.253906 L 569.78125 396.410156 L 517.761719 418.253906 L 465.738281 396.410156 L 413.714844 418.253906 L 361.695312 396.410156 L 309.671875 418.253906 L 257.648438 396.410156 L 205.636719 418.253906 L 152.90625 396.121094 L 154.320312 392.765625 L 205.636719 414.308594 L 257.648438 392.464844 L 309.671875 414.308594 L 361.695312 392.464844 L 413.714844 414.308594 L 465.738281 392.464844 L 517.761719 414.308594 L 569.78125 392.464844 L 621.804688 414.308594 L 673.128906 392.765625 L 674.539062 396.121094 Z M 621.804688 418.253906 " fill-opacity="1" fill-rule="nonzero"/></g><g clip-path="url(#id15)"><path fill="#ffffff" d="M 621.804688 446.648438 L 569.78125 424.808594 L 517.761719 446.648438 L 465.738281 424.808594 L 413.714844 446.648438 L 361.695312 424.808594 L 309.671875 446.648438 L 257.648438 424.808594 L 205.636719 446.648438 L 152.90625 424.515625 L 154.320312 421.160156 L 205.636719 442.703125 L 257.648438 420.859375 L 309.671875 442.703125 L 361.695312 420.859375 L 413.714844 442.703125 L 465.738281 420.859375 L 517.761719 442.703125 L 569.78125 420.859375 L 621.804688 442.703125 L 673.128906 421.160156 L 674.539062 424.515625 Z M 621.804688 446.648438 " fill-opacity="1" fill-rule="nonzero"/></g><g clip-path="url(#id16)"><path fill="#ffffff" d="M 621.804688 475.046875 L 569.78125 453.203125 L 517.761719 475.046875 L 465.738281 453.203125 L 413.714844 475.046875 L 361.695312 453.203125 L 309.671875 475.046875 L 257.648438 453.203125 L 205.636719 475.046875 L 152.90625 452.910156 L 154.320312 449.554688 L 205.636719 471.097656 L 257.648438 449.257812 L 309.671875 471.097656 L 361.695312 449.257812 L 413.714844 471.097656 L 465.738281 449.257812 L 517.761719 471.097656 L 569.78125 449.257812 L 621.804688 471.097656 L 673.128906 449.554688 L 674.539062 452.910156 Z M 621.804688 475.046875 " fill-opacity="1" fill-rule="nonzero"/></g><g clip-path="url(#id17)"><path fill="#ffffff" d="M 621.804688 503.441406 L 569.78125 481.597656 L 517.761719 503.441406 L 465.738281 481.597656 L 413.714844 503.441406 L 361.695312 481.597656 L 309.671875 503.441406 L 257.648438 481.597656 L 205.636719 503.441406 L 152.90625 481.308594 L 154.320312 477.949219 L 205.636719 499.496094 L 257.648438 477.652344 L 309.671875 499.496094 L 361.695312 477.652344 L 413.714844 499.496094 L 465.738281 477.652344 L 517.761719 499.496094 L 569.78125 477.652344 L 621.804688 499.496094 L 673.128906 477.949219 L 674.539062 481.308594 Z M 621.804688 503.441406 " fill-opacity="1" fill-rule="nonzero"/></g><g clip-path="url(#id18)"><path fill="#ffffff" d="M 621.804688 531.835938 L 569.78125 509.992188 L 517.761719 531.835938 L 465.738281 509.992188 L 413.714844 531.835938 L 361.695312 509.992188 L 309.671875 531.835938 L 257.648438 509.992188 L 205.636719 531.835938 L 152.90625 509.703125 L 154.320312 506.34375 L 205.636719 527.890625 L 257.648438 506.046875 L 309.671875 527.890625 L 361.695312 506.046875 L 413.714844 527.890625 L 465.738281 506.046875 L 517.761719 527.890625 L 569.78125 506.046875 L 621.804688 527.890625 L 673.128906 506.34375 L 674.539062 509.703125 Z M 621.804688 531.835938 " fill-opacity="1" fill-rule="nonzero"/></g><g clip-path="url(#id19)"><path fill="#ffffff" d="M 621.804688 560.230469 L 569.78125 538.390625 L 517.761719 560.230469 L 465.738281 538.390625 L 413.714844 560.230469 L 361.695312 538.390625 L 309.671875 560.230469 L 257.648438 538.390625 L 205.636719 560.230469 L 152.90625 538.097656 L 154.320312 534.742188 L 205.636719 556.285156 L 257.648438 534.441406 L 309.671875 556.285156 L 361.695312 534.441406 L 413.714844 556.285156 L 465.738281 534.441406 L 517.761719 556.285156 L 569.78125 534.441406 L 621.804688 556.285156 L 673.128906 534.742188 L 674.539062 538.097656 Z M 621.804688 560.230469 " fill-opacity="1" fill-rule="nonzero"/></g><g clip-path="url(#id20)"><path fill="#ffffff" d="M 621.804688 588.625 L 569.78125 566.785156 L 517.761719 588.625 L 465.738281 566.785156 L 413.714844 588.625 L 361.695312 566.785156 L 309.671875 588.625 L 257.648438 566.785156 L 205.636719 588.625 L 152.90625 566.492188 L 154.320312 563.136719 L 205.636719 584.679688 L 257.648438 562.839844 L 309.671875 584.679688 L 361.695312 562.839844 L 413.714844 584.679688 L 465.738281 562.839844 L 517.761719 584.679688 L 569.78125 562.839844 L 621.804688 584.679688 L 673.128906 563.136719 L 674.539062 566.492188 Z M 621.804688 588.625 " fill-opacity="1" fill-rule="nonzero"/></g><g clip-path="url(#id21)"><path fill="#ffffff" d="M 621.804688 617.023438 L 569.78125 595.179688 L 517.761719 617.023438 L 465.738281 595.179688 L 413.714844 617.023438 L 361.695312 595.179688 L 309.671875 617.023438 L 257.648438 595.179688 L 205.636719 617.023438 L 152.90625 594.886719 L 154.320312 591.53125 L 205.636719 613.074219 L 257.648438 591.234375 L 309.671875 613.074219 L 361.695312 591.234375 L 413.714844 613.074219 L 465.738281 591.234375 L 517.761719 613.074219 L 569.78125 591.234375 L 621.804688 613.074219 L 673.128906 591.53125 L 674.539062 594.886719 Z M 621.804688 617.023438 " fill-opacity="1" fill-rule="nonzero"/></g><g clip-path="url(#id22)"><path fill="#ffffff" d="M 621.804688 645.417969 L 569.78125 623.574219 L 517.761719 645.417969 L 465.738281 623.574219 L 413.714844 645.417969 L 361.695312 623.574219 L 309.671875 645.417969 L 257.648438 623.574219 L 205.636719 645.417969 L 152.90625 623.285156 L 154.320312 619.925781 L 205.636719 641.472656 L 257.648438 619.628906 L 309.671875 641.472656 L 361.695312 619.628906 L 413.714844 641.472656 L 465.738281 619.628906 L 517.761719 641.472656 L 569.78125 619.628906 L 621.804688 641.472656 L 673.128906 619.925781 L 674.539062 623.285156 Z M 621.804688 645.417969 " fill-opacity="1" fill-rule="nonzero"/></g><path fill="#000000" d="M 308.246094 589.730469 C 303.121094 589.730469 298.929688 593.921875 298.929688 599.042969 C 298.929688 604.167969 303.121094 608.359375 308.246094 608.359375 L 420.050781 608.359375 C 425.171875 608.359375 429.367188 604.167969 429.367188 599.042969 C 429.367188 593.921875 425.171875 589.730469 420.050781 589.730469 Z M 308.246094 589.730469 " fill-opacity="1" fill-rule="nonzero"/><path fill="#000000" d="M 583.558594 318.21875 C 588.683594 308.4375 586.820312 295.863281 578.433594 287.480469 L 572.84375 281.890625 C 567.722656 276.769531 560.734375 273.972656 553.746094 273.972656 C 549.554688 273.972656 545.359375 274.90625 542.097656 276.769531 C 538.839844 266.523438 528.589844 258.605469 516.945312 258.605469 L 509.023438 258.605469 C 496.914062 258.605469 487.128906 266.058594 483.871094 276.769531 C 480.144531 274.90625 476.414062 273.972656 472.222656 273.972656 C 465.234375 273.972656 458.25 276.769531 453.125 281.890625 L 447.535156 287.480469 C 442.875 292.136719 440.082031 298.191406 439.613281 304.710938 C 439.148438 309.367188 440.546875 314.027344 442.410156 318.21875 C 431.695312 321.476562 424.242188 331.722656 424.242188 343.367188 L 424.242188 351.285156 C 424.242188 363.390625 431.695312 373.171875 442.410156 376.433594 C 437.285156 386.210938 439.148438 398.785156 447.535156 407.167969 L 453.125 412.757812 C 458.25 417.878906 465.234375 420.675781 472.222656 420.675781 C 476.414062 420.675781 480.609375 419.742188 483.871094 417.878906 C 487.128906 428.125 497.378906 436.042969 509.023438 436.042969 L 516.945312 436.042969 C 529.054688 436.042969 538.839844 428.59375 542.097656 417.878906 C 545.828125 419.742188 549.554688 420.675781 553.746094 420.675781 C 560.734375 420.675781 567.722656 417.878906 572.84375 412.757812 L 578.433594 407.167969 C 586.820312 398.785156 588.683594 386.210938 583.558594 376.433594 C 594.273438 373.171875 601.726562 362.925781 601.726562 351.285156 L 601.726562 343.367188 C 601.726562 331.722656 594.273438 321.476562 583.558594 318.21875 Z M 583.09375 351.285156 C 583.09375 355.476562 579.832031 359.199219 576.105469 359.199219 L 566.324219 359.199219 C 564.925781 365.71875 562.597656 371.308594 558.871094 376.898438 L 565.859375 383.882812 C 568.652344 386.679688 568.1875 391.335938 565.390625 394.128906 L 559.800781 399.71875 C 557.9375 401.582031 556.074219 402.046875 554.210938 402.046875 C 552.347656 402.046875 550.949219 401.582031 549.554688 400.183594 L 542.566406 393.199219 C 537.441406 396.457031 531.386719 399.253906 524.863281 400.648438 L 524.863281 410.429688 C 524.863281 414.15625 521.601562 417.414062 516.945312 417.414062 L 509.023438 417.414062 C 504.832031 417.414062 501.105469 414.15625 501.105469 410.429688 L 501.105469 400.648438 C 494.582031 399.253906 488.992188 396.921875 483.402344 393.199219 L 476.414062 400.183594 C 475.019531 401.582031 473.621094 402.046875 471.757812 402.046875 C 469.894531 402.046875 467.566406 401.113281 466.167969 399.71875 L 461.042969 394.128906 C 457.78125 390.871094 457.78125 386.679688 460.578125 383.882812 L 467.566406 376.898438 C 464.304688 371.773438 461.507812 365.71875 460.113281 359.199219 L 450.328125 359.199219 C 446.601562 359.199219 443.339844 355.941406 443.339844 351.285156 L 443.339844 343.367188 C 443.339844 339.175781 446.601562 335.449219 450.328125 335.449219 L 460.113281 335.449219 C 461.507812 328.929688 463.839844 323.339844 467.566406 317.75 L 460.578125 310.765625 C 457.78125 307.972656 458.246094 303.316406 461.042969 300.519531 L 466.632812 294.933594 C 468.496094 293.070312 470.359375 292.601562 472.222656 292.601562 C 474.085938 292.601562 475.484375 293.070312 476.882812 294.464844 L 483.871094 301.453125 C 488.992188 298.191406 495.050781 295.398438 501.570312 294 L 501.570312 284.21875 C 501.570312 280.496094 504.832031 277.234375 509.492188 277.234375 L 517.410156 277.234375 C 521.601562 277.234375 525.328125 280.496094 525.328125 284.21875 L 525.328125 294 C 531.851562 295.398438 537.441406 297.726562 543.03125 301.453125 L 550.019531 294.464844 C 551.417969 293.070312 552.8125 292.601562 554.675781 292.601562 C 556.539062 292.601562 558.871094 293.535156 560.265625 294.933594 L 565.855469 300.519531 C 569.117188 303.78125 569.117188 307.972656 566.324219 310.765625 L 559.335938 317.75 C 562.597656 322.875 565.390625 328.929688 566.789062 335.449219 L 576.570312 335.449219 C 580.296875 335.449219 583.558594 338.710938 583.558594 343.367188 L 583.558594 351.285156 Z M 583.09375 351.285156 " fill-opacity="1" fill-rule="nonzero"/><path fill="#000000" d="M 513.21875 314.957031 C 495.050781 314.957031 480.609375 329.394531 480.609375 347.558594 C 480.609375 365.71875 495.050781 380.15625 513.21875 380.15625 C 531.386719 380.15625 545.828125 365.71875 545.828125 347.558594 C 545.828125 329.394531 531.386719 314.957031 513.21875 314.957031 Z M 513.21875 361.527344 C 505.296875 361.527344 499.242188 355.476562 499.242188 347.558594 C 499.242188 339.640625 505.296875 333.585938 513.21875 333.585938 C 521.136719 333.585938 527.191406 339.640625 527.191406 347.558594 C 527.191406 355.476562 521.136719 361.527344 513.21875 361.527344 Z M 513.21875 361.527344 " fill-opacity="1" fill-rule="nonzero"/><path fill="#000000" d="M 424.707031 260.46875 C 424.707031 250.6875 419.117188 242.304688 411.199219 238.113281 C 413.992188 229.730469 411.664062 219.953125 405.140625 212.964844 L 400.949219 208.773438 C 396.292969 204.117188 389.769531 201.324219 383.246094 201.324219 C 380.917969 201.324219 378.125 201.789062 375.792969 202.253906 C 371.601562 194.335938 363.214844 188.75 353.433594 188.75 L 347.378906 188.75 C 337.59375 188.75 329.210938 194.335938 325.015625 202.253906 C 322.6875 201.324219 320.359375 201.324219 317.5625 201.324219 C 311.042969 201.324219 304.519531 204.117188 299.863281 208.773438 L 295.667969 212.964844 C 291.476562 217.15625 288.679688 223.210938 288.214844 229.265625 C 288.214844 232.527344 288.214844 235.320312 289.148438 238.113281 C 281.226562 242.304688 275.636719 250.6875 275.636719 260.46875 L 275.636719 266.523438 C 275.636719 276.304688 281.226562 284.6875 289.148438 288.878906 C 286.351562 297.261719 288.679688 307.039062 295.203125 314.027344 L 299.394531 318.21875 C 304.054688 322.875 310.578125 325.667969 317.097656 325.667969 C 319.425781 325.667969 322.222656 325.203125 324.550781 324.738281 C 328.742188 332.65625 337.128906 338.242188 346.910156 338.242188 L 352.96875 338.242188 C 362.75 338.242188 371.136719 332.65625 375.328125 324.738281 C 377.65625 325.667969 379.988281 325.667969 382.78125 325.667969 C 389.304688 325.667969 395.824219 322.875 400.484375 318.21875 L 404.675781 314.027344 C 411.664062 307.039062 413.527344 297.261719 410.730469 288.878906 C 418.652344 284.6875 424.242188 276.304688 424.242188 266.523438 L 424.242188 260.46875 Z M 406.074219 266.988281 C 406.074219 270.25 403.746094 273.042969 400.484375 273.042969 L 392.5625 273.042969 C 391.632812 278.164062 389.304688 282.824219 386.507812 287.015625 L 392.097656 292.601562 C 394.425781 294.933594 393.960938 298.65625 391.632812 300.984375 L 387.441406 305.644531 C 386.042969 307.039062 384.644531 307.507812 382.78125 307.507812 C 381.382812 307.507812 379.988281 307.039062 379.054688 306.109375 L 373.464844 300.519531 C 369.273438 303.316406 364.613281 305.175781 359.488281 306.574219 L 359.488281 314.492188 C 359.488281 317.75 356.695312 320.082031 353.433594 320.082031 L 347.378906 320.082031 C 344.117188 320.082031 341.320312 317.75 341.320312 314.492188 L 341.320312 306.574219 C 336.199219 305.644531 331.539062 303.316406 327.347656 300.519531 L 321.757812 306.109375 C 320.824219 307.039062 319.425781 307.507812 318.03125 307.507812 C 316.632812 307.507812 314.769531 307.039062 313.371094 305.644531 L 308.246094 300.984375 C 305.917969 298.65625 305.453125 294.933594 307.78125 292.601562 L 313.371094 287.015625 C 310.578125 282.824219 308.710938 278.164062 307.316406 273.042969 L 299.394531 273.042969 C 296.136719 273.042969 293.804688 270.25 293.804688 266.988281 L 293.804688 260.933594 C 293.804688 257.675781 296.136719 254.878906 299.394531 254.878906 L 307.316406 254.878906 C 308.246094 249.757812 310.578125 245.101562 313.371094 240.910156 L 307.78125 235.320312 C 305.917969 232.527344 305.917969 228.800781 308.246094 226.472656 L 312.441406 222.28125 C 313.835938 220.882812 315.234375 220.417969 317.097656 220.417969 C 318.496094 220.417969 319.894531 220.882812 320.824219 221.8125 L 326.414062 227.402344 C 330.605469 224.609375 335.265625 222.746094 340.390625 221.347656 L 340.390625 213.429688 C 340.390625 210.171875 343.183594 207.84375 346.445312 207.84375 L 352.503906 207.84375 C 355.761719 207.84375 358.558594 210.171875 358.558594 213.429688 L 358.558594 221.347656 C 363.683594 222.28125 368.339844 224.609375 372.53125 227.402344 L 378.125 221.8125 C 379.054688 220.882812 380.453125 220.417969 381.851562 220.417969 C 383.246094 220.417969 385.109375 220.882812 386.507812 222.28125 L 390.699219 226.472656 C 393.03125 228.800781 393.496094 232.527344 391.167969 234.855469 L 386.972656 240.441406 C 389.769531 244.632812 391.632812 249.292969 393.03125 254.414062 L 400.949219 254.414062 C 404.210938 254.414062 406.539062 257.207031 406.539062 260.46875 L 406.539062 266.988281 Z M 406.074219 266.988281 " fill-opacity="1" fill-rule="nonzero"/><path fill="#000000" d="M 350.171875 235.785156 C 334.800781 235.785156 322.222656 248.359375 322.222656 263.730469 C 322.222656 279.097656 334.800781 291.671875 350.171875 291.671875 C 365.546875 291.671875 378.125 279.097656 378.125 263.730469 C 378.125 248.359375 365.546875 235.785156 350.171875 235.785156 Z M 350.171875 273.042969 C 345.046875 273.042969 340.855469 268.851562 340.855469 263.730469 C 340.855469 258.605469 345.046875 254.414062 350.171875 254.414062 C 355.296875 254.414062 359.488281 258.605469 359.488281 263.730469 C 359.488281 268.851562 355.296875 273.042969 350.171875 273.042969 Z M 350.171875 273.042969 " fill-opacity="1" fill-rule="nonzero"/><g clip-path="url(#id23)"><path fill="#000000" d="M 511.820312 454.671875 C 509.957031 454.671875 508.09375 454.671875 506.230469 454.207031 L 506.230469 599.042969 C 506.230469 614.414062 493.652344 626.988281 478.277344 626.988281 L 254.675781 626.988281 C 239.300781 626.988281 226.726562 614.414062 226.726562 599.042969 L 226.726562 417.414062 L 208.089844 417.414062 L 208.089844 599.042969 C 208.089844 624.660156 229.054688 645.617188 254.675781 645.617188 L 478.277344 645.617188 C 503.902344 645.617188 524.863281 624.660156 524.863281 599.042969 L 524.863281 454.207031 C 523 454.207031 521.136719 454.671875 519.273438 454.671875 Z M 511.820312 454.671875 " fill-opacity="1" fill-rule="nonzero"/></g><g clip-path="url(#id24)"><path fill="#000000" d="M 226.726562 96.070312 C 226.726562 80.703125 239.300781 68.128906 254.675781 68.128906 L 278.898438 68.128906 L 287.75 85.824219 L 288.214844 86.757812 C 294.738281 97.46875 310.109375 105.386719 323.621094 105.386719 L 409.800781 105.386719 C 423.308594 105.386719 438.683594 97.46875 445.203125 86.757812 L 454.519531 68.128906 L 478.277344 68.128906 C 493.652344 68.128906 506.230469 80.703125 506.230469 96.070312 L 506.230469 240.910156 C 508.09375 240.910156 509.957031 240.441406 511.820312 240.441406 L 519.738281 240.441406 C 521.601562 240.441406 523.464844 240.441406 525.328125 240.910156 L 525.328125 96.070312 C 525.328125 70.457031 504.367188 49.5 478.746094 49.5 L 254.675781 49.5 C 229.054688 49.5 208.089844 70.457031 208.089844 96.070312 L 208.089844 287.015625 L 226.726562 287.015625 Z M 433.558594 68.128906 L 428.898438 76.976562 C 425.640625 82.097656 416.320312 86.757812 409.335938 86.757812 L 323.621094 86.757812 C 316.632812 86.757812 307.78125 82.097656 304.054688 76.976562 L 299.394531 68.128906 Z M 433.558594 68.128906 " fill-opacity="1" fill-rule="nonzero"/></g><path fill="#000000" d="M 411.199219 415.550781 C 413.992188 407.167969 411.664062 397.390625 405.140625 390.402344 L 400.949219 386.210938 C 396.292969 381.554688 389.769531 378.761719 383.246094 378.761719 C 380.917969 378.761719 378.125 379.226562 375.792969 379.691406 C 371.601562 371.773438 363.214844 366.1875 353.433594 366.1875 L 347.378906 366.1875 C 337.59375 366.1875 329.210938 371.773438 325.015625 379.691406 C 322.6875 378.761719 320.359375 378.761719 317.5625 378.761719 C 311.042969 378.761719 304.519531 381.554688 299.863281 386.210938 L 295.667969 390.402344 C 291.476562 394.59375 288.679688 400.648438 288.214844 406.703125 C 288.214844 409.964844 288.214844 412.757812 289.148438 415.550781 C 281.226562 419.742188 275.636719 428.125 275.636719 437.90625 L 275.636719 443.960938 C 275.636719 453.742188 281.226562 462.125 289.148438 466.316406 C 286.351562 474.699219 288.679688 484.476562 295.203125 491.464844 L 299.394531 495.65625 C 304.054688 500.3125 310.578125 503.105469 317.097656 503.105469 C 319.425781 503.105469 322.222656 502.640625 324.550781 502.175781 C 328.742188 510.09375 337.128906 515.679688 346.910156 515.679688 L 352.96875 515.679688 C 362.75 515.679688 371.136719 510.09375 375.328125 502.175781 C 377.65625 503.105469 379.988281 503.105469 382.78125 503.105469 C 389.304688 503.105469 395.824219 500.3125 400.484375 495.65625 L 404.675781 491.464844 C 411.664062 484.476562 413.527344 474.699219 410.730469 466.316406 C 418.652344 462.125 424.242188 453.742188 424.242188 443.960938 L 424.242188 437.90625 C 424.707031 427.660156 419.117188 419.277344 411.199219 415.550781 Z M 406.074219 443.960938 C 406.074219 447.222656 403.746094 450.015625 400.484375 450.015625 L 392.5625 450.015625 C 391.632812 455.136719 389.304688 459.796875 386.507812 463.988281 L 392.097656 469.574219 C 394.425781 471.902344 393.960938 475.628906 391.632812 477.957031 L 387.441406 482.617188 C 386.042969 484.011719 384.644531 484.476562 382.78125 484.476562 C 381.382812 484.476562 379.988281 484.011719 379.054688 483.082031 L 373.464844 477.492188 C 369.273438 480.285156 364.613281 482.148438 359.488281 483.546875 L 359.488281 491.464844 C 359.488281 494.722656 356.695312 497.050781 353.433594 497.050781 L 347.378906 497.050781 C 344.117188 497.050781 341.320312 494.722656 341.320312 491.464844 L 341.320312 483.546875 C 336.199219 482.617188 331.539062 480.285156 327.347656 477.492188 L 321.757812 483.082031 C 320.824219 484.011719 319.425781 484.476562 318.03125 484.476562 C 316.632812 484.476562 314.769531 484.011719 313.371094 482.617188 L 308.246094 477.957031 C 305.917969 475.628906 305.453125 471.902344 307.78125 469.574219 L 313.371094 463.988281 C 310.578125 459.796875 308.710938 455.136719 307.316406 450.015625 L 299.394531 450.015625 C 296.136719 450.015625 293.804688 447.222656 293.804688 443.960938 L 293.804688 437.90625 C 293.804688 434.648438 296.136719 431.851562 299.394531 431.851562 L 307.316406 431.851562 C 308.246094 426.730469 310.578125 422.070312 313.371094 417.878906 L 307.78125 412.292969 C 305.917969 409.496094 305.917969 405.773438 308.246094 403.445312 L 312.441406 399.253906 C 313.835938 397.855469 315.234375 397.390625 317.097656 397.390625 C 318.496094 397.390625 319.894531 397.855469 320.824219 398.785156 L 326.414062 404.375 C 330.605469 401.582031 335.265625 399.71875 340.390625 398.320312 L 340.390625 390.402344 C 340.390625 387.144531 343.183594 384.816406 346.445312 384.816406 L 352.503906 384.816406 C 355.761719 384.816406 358.558594 387.144531 358.558594 390.402344 L 358.558594 398.320312 C 363.683594 399.253906 368.339844 401.582031 372.53125 404.375 L 378.125 398.785156 C 379.054688 397.855469 380.453125 397.390625 381.851562 397.390625 C 383.246094 397.390625 385.109375 397.855469 386.507812 399.253906 L 390.699219 403.445312 C 393.03125 405.773438 393.496094 409.496094 391.167969 411.828125 L 386.972656 417.414062 C 389.769531 421.605469 391.632812 426.265625 393.03125 431.386719 L 400.949219 431.386719 C 404.210938 431.386719 406.539062 434.179688 406.539062 437.441406 L 406.539062 443.960938 Z M 406.074219 443.960938 " fill-opacity="1" fill-rule="nonzero"/><path fill="#000000" d="M 350.171875 412.757812 C 334.800781 412.757812 322.222656 425.332031 322.222656 440.699219 C 322.222656 456.070312 334.800781 468.644531 350.171875 468.644531 C 365.546875 468.644531 378.125 456.070312 378.125 440.699219 C 378.125 425.332031 365.546875 412.757812 350.171875 412.757812 Z M 350.171875 450.015625 C 345.046875 450.015625 340.855469 445.824219 340.855469 440.699219 C 340.855469 435.578125 345.046875 431.386719 350.171875 431.386719 C 355.296875 431.386719 359.488281 435.578125 359.488281 440.699219 C 359.488281 445.824219 355.296875 450.015625 350.171875 450.015625 Z M 350.171875 450.015625 " fill-opacity="1" fill-rule="nonzero"/><path fill="#000000" d="M 177.8125 324.273438 L 252.347656 324.273438 C 257.46875 324.273438 261.664062 320.082031 261.664062 314.957031 C 261.664062 309.835938 257.46875 305.644531 252.347656 305.644531 L 177.8125 305.644531 C 172.6875 305.644531 168.496094 309.835938 168.496094 314.957031 C 168.496094 320.082031 172.6875 324.273438 177.8125 324.273438 Z M 177.8125 324.273438 " fill-opacity="1" fill-rule="nonzero"/><path fill="#000000" d="M 261.664062 389.472656 C 261.664062 384.347656 257.46875 380.15625 252.347656 380.15625 L 177.8125 380.15625 C 172.6875 380.15625 168.496094 384.347656 168.496094 389.472656 C 168.496094 394.59375 172.6875 398.785156 177.8125 398.785156 L 252.347656 398.785156 C 257.46875 398.785156 261.664062 394.59375 261.664062 389.472656 Z M 261.664062 389.472656 " fill-opacity="1" fill-rule="nonzero"/><path fill="#000000" d="M 261.664062 352.214844 C 261.664062 347.09375 257.46875 342.902344 252.347656 342.902344 L 140.542969 342.902344 C 135.417969 342.902344 131.226562 347.09375 131.226562 352.214844 C 131.226562 357.335938 135.417969 361.527344 140.542969 361.527344 L 252.347656 361.527344 C 257.46875 361.527344 261.664062 357.335938 261.664062 352.214844 Z M 261.664062 352.214844 " fill-opacity="1" fill-rule="nonzero"/></svg>